<svg width="60" height="66" viewBox="0 0 60 66" fill="none" xmlns="http://www.w3.org/2000/svg">
<path fill-rule="evenodd" clip-rule="evenodd" d="M7.86722 0.694878C7.72858 0.726724 7.3032 0.81541 6.92194 0.891789C5.12931 1.2511 3.30933 2.41671 1.98808 4.05137C0.382243 6.03811 -0.368561 9.04493 0.176046 11.3078C0.699605 13.4837 1.82474 15.5916 5.18893 20.6996C6.55794 22.7783 7.67816 24.5052 7.67816 24.5371C7.67816 24.5689 7.39874 25.026 7.05705 25.5527C6.32755 26.6778 5.32076 28.7272 4.85921 30.0271C3.48175 33.9059 3.15809 38.4143 3.96611 42.4663C5.55947 50.4572 11.5899 57.2631 19.3358 59.8128C23.4314 61.1609 27.4312 61.3148 32.0349 60.3016L32.3815 60.2254V62.5931C32.3815 64.9379 32.3845 64.9639 32.6909 65.2722L33.0002 65.5837H46.1599H59.3194L59.6597 65.3142L60 65.0448L59.9577 60.3343L59.9153 55.624L59.5271 54.6045C58.9265 53.0281 58.1657 51.9527 56.9272 50.9302C55.5608 49.802 54.0372 49.2359 52.0707 49.1257L50.7747 49.053L50.3283 48.2493L49.8817 47.4456L50.4974 46.8159C51.6665 45.6203 52.1693 44.2581 52.1693 42.2857C52.1693 41.172 52.193 41.0708 52.6746 40.1237C53.6819 38.1429 53.8006 36.5825 53.0593 35.0667C52.7997 34.5359 52.4593 34.0853 52.082 33.7731C51.7635 33.5096 51.355 33.1306 51.1744 32.9309C49.9633 31.5925 49.6317 31.2899 48.9697 30.9186C48.2615 30.5215 48.2117 30.4604 47.8737 29.5711C45.0807 22.2236 38.8512 16.9343 31.0024 15.2458C29.5451 14.9323 29.1848 14.9051 26.4577 14.9011C23.8566 14.8974 23.3219 14.9325 22.0673 15.1882C19.4856 15.7148 16.7672 16.7771 14.4842 18.1515L13.791 18.569L14.0362 18.192C15.3895 16.1116 16.6182 13.7242 17.1554 12.1314C18.9151 6.91317 14.8246 1.01067 9.23245 0.698938C8.62016 0.664809 8.00586 0.663032 7.86722 0.694878ZM7.33484 2.58304C6.38313 2.80139 5.04839 3.49121 4.25978 4.17241C2.38699 5.78969 1.35462 8.88748 1.93288 11.1541C2.19453 12.1798 3.09973 14.1004 4.14521 15.8485C5.12666 17.4896 8.68633 22.828 8.79573 22.823C8.89871 22.8183 12.479 17.4168 13.4059 15.8678C14.3164 14.3463 14.9921 12.9862 15.4324 11.7885C16.0721 10.0483 15.8134 7.76907 14.7731 5.98216C14.3073 5.18208 13.2058 4.01838 12.4551 3.53359C10.9778 2.57923 8.97307 2.20711 7.33484 2.58304ZM29.0415 6.01121C27.4471 7.01886 26.036 7.98387 25.9057 8.15554C25.7459 8.3659 25.6947 8.57194 25.7485 8.78763C25.8405 9.15684 31.0003 13.6475 31.477 13.7733C32.1264 13.9449 32.6459 13.3478 32.4588 12.6449C32.4171 12.488 31.6734 11.765 30.8061 11.0384C29.9389 10.3119 29.2536 9.69301 29.2832 9.6632C29.3963 9.54926 32.2533 10.0471 33.8263 10.4548C40.7203 12.2412 46.7041 16.6721 50.5344 22.8267C51.3905 24.2025 52.6504 26.8572 53.1837 28.4092C53.4114 29.0721 53.6847 29.7171 53.7909 29.8427C54.0803 30.1848 54.7887 30.0835 55.1055 29.6548L55.3568 29.3144L54.8876 27.9472C51.3583 17.6623 42.4796 10.0367 31.9403 8.23877C29.2218 7.77491 29.3015 7.94581 31.232 6.71829C32.2789 6.05258 32.9513 5.54114 33.0205 5.35781C33.2306 4.80171 32.7773 4.17342 32.1692 4.17748C32.0433 4.17837 30.6358 5.00344 29.0415 6.01121ZM7.79525 5.23004C5.40987 5.9087 4.15945 8.29205 4.95815 10.6379C5.29013 11.6125 6.34796 12.6753 7.36307 13.0539C9.32433 13.7855 11.536 12.8795 12.4741 10.9605C12.7326 10.4318 12.7825 10.1441 12.7815 9.18754C12.7805 8.19893 12.7355 7.95989 12.4462 7.40621C12.0436 6.63582 11.1364 5.76495 10.3904 5.43266C9.67409 5.1137 8.52072 5.02374 7.79525 5.23004ZM8.04543 6.96164C6.34229 7.48119 5.93872 10.0056 7.3816 11.1135C7.84579 11.4699 8.6484 11.6177 9.3745 11.4807C9.92288 11.377 10.6791 10.7354 10.9109 10.1769C11.2586 9.33903 10.9943 8.0062 10.3697 7.44782C9.78828 6.92814 8.81943 6.72552 8.04543 6.96164ZM23.2599 16.8024C20.2804 17.2874 17.3378 18.4311 14.7985 20.091C13.645 20.8451 11.4416 22.7192 10.9152 23.3942L10.5603 23.8493L15.2004 23.8137C20.4404 23.7737 20.8556 23.8277 21.7831 24.6713C22.912 25.698 22.7535 27.3887 21.218 30.6947C20.3554 32.552 20.281 32.8891 20.6781 33.143C20.8415 33.2476 21.5562 33.4237 22.2665 33.5346C23.7746 33.77 24.4672 34.0657 25.3209 34.8382C26.5142 35.9182 26.9438 37.4716 26.5347 39.2264C26.3375 40.0722 25.8905 41.0979 25.4368 41.7457C25.2102 42.0691 25.2108 42.0957 25.4603 42.8102C26.5943 46.0582 25.609 49.056 22.8791 50.663C22.4211 50.9327 22.0464 51.1789 22.0464 51.21C22.0464 51.2412 22.3916 51.8322 22.8136 52.5234C24.2077 54.807 24.9453 56.809 24.9453 58.3093V59.1015L25.4044 59.1883C26.3552 59.3678 30.366 58.9481 31.9403 58.5043L32.3184 58.3976L32.4041 57.1054C32.5638 54.7006 33.2313 53.1744 34.8333 51.5516C36.4347 49.9295 38.4031 49.0976 40.653 49.092C41.6398 49.0896 41.6134 49.1066 42.1551 48.1197L42.5136 47.4668L41.8621 46.7493C40.9785 45.776 40.4761 44.6777 40.3106 43.357C40.2379 42.7768 40.213 42.0664 40.2554 41.7785C40.3223 41.3246 40.2565 41.1062 39.7601 40.1349C39.4451 39.5189 39.1875 38.9422 39.1875 38.8534C39.1875 38.7646 39.0599 38.6092 38.9039 38.5081C38.3721 38.1634 37.7539 38.1464 36.272 38.4359C34.2449 38.832 32.6266 38.758 31.4773 38.2165C29.8936 37.4706 29.0986 36.254 29.003 34.4307C28.9348 33.1296 29.1219 32.2378 29.7272 30.9776C30.949 28.4345 33.4015 26.8812 35.6434 27.2305C36.6069 27.3806 37.6351 27.832 38.4626 28.468C39.1642 29.0073 39.8904 29.3944 40.3885 29.4947C40.6693 29.5512 40.8599 29.4974 41.1269 29.2858C41.4723 29.0123 41.4845 28.9662 41.4268 28.1545C41.3512 27.0903 40.8814 26.1633 39.7133 24.7734C38.3607 23.1638 37.481 21.5975 37.1593 20.2257C37.0774 19.8768 36.9904 19.5167 36.9658 19.4255C36.9035 19.1943 34.5725 18.0955 33.16 17.6315C30.8921 16.8866 29.7817 16.7134 26.9619 16.6648C25.1299 16.6334 24.0527 16.6733 23.2599 16.8024ZM39.3135 20.9834C39.3135 21.191 39.8608 22.0877 40.4384 22.8267C42.4789 25.4371 42.761 25.9215 43.0505 27.3147C43.6638 30.2649 41.7288 32.0757 39.1565 30.9591C38.8615 30.8311 38.1125 30.3778 37.4919 29.9517C36.126 29.014 35.3832 28.7963 34.3465 29.0298C32.4181 29.4643 30.743 31.8531 30.743 34.1684C30.743 35.5128 31.4111 36.4432 32.6187 36.7809C33.3076 36.9735 34.7961 36.9353 35.8843 36.6972C36.4186 36.5802 37.3236 36.4867 37.8956 36.4892C38.8196 36.4934 38.9354 36.4682 38.9354 36.2626C38.9354 35.6215 39.4863 34.586 40.177 33.9288C41.0117 33.1345 41.1211 33.0208 41.9822 32.0528C42.8617 31.0639 44.1085 30.4321 45.3577 30.3421C45.846 30.307 46.2453 30.243 46.2449 30.2001C46.2447 30.1571 45.9103 29.4289 45.5019 28.5817C44.3108 26.1106 42.7576 23.9647 40.9211 22.2532C39.9833 21.379 39.3135 20.8501 39.3135 20.9834ZM8.61638 26.3792C7.24232 28.5225 6.17076 31.2204 5.63951 33.8742C5.3926 35.1078 5.35025 35.7022 5.35492 37.8614C5.35983 40.1143 5.39827 40.5782 5.69698 41.9978C6.90467 47.7352 10.136 52.6055 14.7878 55.6991C16.8974 57.1021 19.8782 58.3376 22.204 58.7729L23.1807 58.9557V58.2864C23.1807 56.957 22.3411 54.9925 20.6701 52.4129C19.4702 50.5606 19.489 50.2156 20.8158 49.7223C21.7398 49.3789 22.8888 48.6008 23.3566 48.002C24.377 46.6955 24.4543 44.7089 23.5619 42.7288C23.2232 41.9775 23.2376 41.8608 23.7645 41.0896C25.1114 39.1187 25.29 37.4761 24.2831 36.3215C23.7456 35.7054 23.353 35.5339 21.8163 35.2437C21.0763 35.1041 20.171 34.8531 19.8042 34.6858C19.2373 34.4273 19.098 34.2918 18.8733 33.7806C18.6321 33.2315 18.6222 33.1083 18.7597 32.3568C18.8425 31.9043 19.2137 30.8739 19.5845 30.0668C20.6469 27.7546 20.991 26.5036 20.6896 26.0493C20.3759 25.5764 20.1035 25.5545 14.556 25.5545H9.14511L8.61638 26.3792ZM45.3683 32.1081C44.3294 32.2786 43.4948 32.8069 42.9271 33.654C42.6617 34.0499 42.1975 34.545 41.8956 34.7541C40.8449 35.4818 40.4727 36.4115 40.7181 37.696L40.8561 38.4186L41.6443 37.6132C44.3207 34.8789 49.141 34.8605 51.1218 37.5769C51.5745 38.1977 51.5984 38.2122 51.6804 37.9165C52.0143 36.713 51.6122 35.6411 50.496 34.758C50.0956 34.4412 49.6037 33.9158 49.4029 33.5905C48.6911 32.4368 47.0472 31.8328 45.3683 32.1081ZM45.3691 37.485C43.9379 37.8892 42.8016 38.6802 42.3026 39.6195C42.056 40.0839 42.0239 40.3303 42.0287 41.7311C42.0355 43.7376 42.2443 44.5021 43.023 45.3741C43.3311 45.7189 43.941 46.195 44.3786 46.4321C45.0958 46.8206 45.2736 46.8628 46.1825 46.8604C47.0198 46.8583 47.3118 46.799 47.9043 46.511C48.8666 46.0431 49.5955 45.2992 50.05 44.3216C50.4258 43.5132 50.4272 43.5014 50.3825 41.5736C50.3433 39.8829 50.3028 39.5718 50.0635 39.1181C49.7387 38.5024 49.0233 37.8401 48.3995 37.5777C47.7401 37.3004 46.1905 37.2529 45.3691 37.485ZM43.6023 49.1286L43.1673 49.9481L44.6558 51.9443C45.9049 53.6193 46.1714 53.9127 46.3124 53.7673C46.4049 53.672 47.1027 52.7661 47.8632 51.7543L49.2461 49.9146L48.8192 49.1533C48.3515 48.3194 48.4187 48.3421 47.0953 48.5687C46.287 48.707 45.7288 48.6698 44.4166 48.39C44.0543 48.3126 44.0177 48.3459 43.6023 49.1286ZM39.09 51.0497C37.0311 51.5516 35.2677 53.1632 34.4959 55.2483C34.2333 55.9575 34.213 56.2477 34.1713 59.906L34.1267 63.8074H35.7749H37.4229V61.2348C37.4229 58.2647 37.4698 58.098 38.3052 58.098C39.1406 58.098 39.1875 58.2647 39.1875 61.2348V63.8074H46.1825H53.1776L53.1795 61.3016C53.1816 58.3971 53.2355 58.1834 53.9806 58.1214C54.3044 58.0944 54.5415 58.153 54.7024 58.2996C54.9233 58.501 54.9421 58.7245 54.9421 61.1627V63.8074H56.5806H58.2191V60.1547C58.2191 57.2841 58.1778 56.3422 58.0261 55.7562C57.2683 52.8271 54.6812 50.8608 51.6021 50.8735L50.7199 50.8772L48.7663 53.4894C47.6918 54.9261 46.6893 56.1585 46.5385 56.2279C45.9531 56.497 45.7093 56.2694 43.652 53.5334L41.6463 50.8661L40.7005 50.8769C40.1803 50.8829 39.4556 50.9607 39.09 51.0497Z" fill="white"/>
</svg>
