<svg width="42" height="71" viewBox="0 0 42 71" fill="none" xmlns="http://www.w3.org/2000/svg">
<path fill-rule="evenodd" clip-rule="evenodd" d="M20.3262 0.94837C20.0396 1.21513 20.0272 1.33077 20.0272 3.72591C20.0272 6.53526 20.0743 6.67697 21.007 6.67697C21.8833 6.67697 21.9393 6.49812 21.9393 3.70215C21.9393 1.33145 21.9266 1.215 21.6403 0.94837C21.2585 0.592731 20.708 0.592731 20.3262 0.94837ZM8.37661 4.73576C7.88834 5.27516 8.06562 5.77688 9.39332 7.61269C10.08 8.5622 10.7629 9.44658 10.9109 9.57806C11.2683 9.89561 11.7156 9.87977 12.1554 9.53396C12.8104 9.019 12.6685 8.60493 11.106 6.47218C9.7405 4.60825 9.69215 4.55992 9.15717 4.52019C8.7574 4.49057 8.5457 4.549 8.37661 4.73576ZM31.3949 5.75544C30.8852 6.44993 30.2393 7.33364 29.9597 7.71917C29.3361 8.57885 29.2913 9.12535 29.8111 9.53396C30.2509 9.87977 30.6982 9.89561 31.0556 9.57806C31.2036 9.44658 31.8865 8.5622 32.5732 7.61269C33.5717 6.23204 33.8218 5.79189 33.8218 5.41537C33.8218 4.81563 33.4717 4.49261 32.8219 4.49261C32.3488 4.49261 32.2713 4.56115 31.3949 5.75544ZM19.4126 9.82284C17.6342 10.0988 15.2095 11.0706 14.4797 11.8001C14.0616 12.2181 14.0653 12.744 14.4895 13.1679C14.9452 13.6233 15.2329 13.5925 16.3801 12.9648C17.8465 12.1624 19.2494 11.8109 20.9832 11.8116C22.7062 11.8122 23.7426 12.0563 25.3538 12.8413C26.2998 13.3022 26.745 13.6371 27.7579 14.6496C28.7708 15.662 29.1058 16.1071 29.5669 17.0526C30.3527 18.6641 30.5966 19.6991 30.5966 21.4213C30.5966 22.3306 30.5118 23.1793 30.3647 23.7422C30.0216 25.0546 29.1666 26.6799 28.2101 27.8379C26.655 29.7206 25.6488 31.4916 25.1395 33.2425L24.9247 33.9813H24.2423C23.656 33.9813 23.5699 33.9478 23.632 33.7424C23.8676 32.9606 26.4465 22.481 26.4465 22.305C26.4465 22.1876 26.2955 21.9408 26.1112 21.7565L25.776 21.4213H20.9832H16.1905L15.8553 21.7565C15.671 21.9408 15.52 22.1876 15.52 22.305C15.52 22.481 18.0989 32.9606 18.3345 33.7424C18.3966 33.9478 18.3105 33.9813 17.7242 33.9813H17.0418L16.8155 33.1963C16.5296 32.2045 15.6725 30.3601 15.139 29.589C14.9142 29.2641 14.3292 28.5173 13.8389 27.9295C12.8028 26.687 12.1223 25.4547 11.6778 24.0152C11.427 23.2031 11.3623 22.6807 11.3651 21.4896C11.3691 19.7622 11.6002 18.72 12.3141 17.2091C12.575 16.657 12.7884 16.0579 12.7884 15.878C12.7884 15.3606 12.3137 14.982 11.7264 15.0311C11.3151 15.0656 11.1619 15.1701 10.8654 15.6191C10.4122 16.3049 9.85687 17.6985 9.55161 18.9157C9.38608 19.5761 9.31833 20.3936 9.32147 21.6944L9.32584 23.5374L8.36951 24.1518C7.8434 24.4897 6.69749 25.4726 5.82297 26.3361C2.91586 29.2065 1.13935 32.4797 0.26565 36.5753C-0.0932827 38.2583 -0.0872727 42.8311 0.276304 44.5618C0.785476 46.9857 2.02713 49.9686 3.32847 51.8937C4.05084 52.9623 5.59242 54.7481 6.24459 55.2719C7.30978 56.1277 7.249 55.7203 7.32522 62.5081C7.39064 68.3401 7.40525 68.612 7.67882 69.1357C7.83575 69.4361 8.22501 69.8661 8.54379 70.0914C9.07809 70.4689 9.22997 70.5046 10.485 70.548C11.2339 70.574 12.0009 70.5565 12.1895 70.5091C12.9006 70.3308 13.0317 69.0073 12.3734 68.655C12.236 68.5816 11.6014 68.5214 10.9633 68.5214C10.0907 68.5214 9.74993 68.4681 9.58849 68.3069C9.40083 68.1193 9.37392 67.4333 9.37392 62.846C9.37392 59.9605 9.3996 57.5996 9.43115 57.5996C9.46256 57.5996 9.93718 57.8147 10.4857 58.0775C11.0343 58.3403 11.5953 58.5553 11.7323 58.5553C12.1181 58.5553 12.6518 57.9388 12.6518 57.4931C12.6518 56.9993 12.2742 56.6516 11.2276 56.1814C8.38494 54.9044 5.4374 51.9076 3.78341 48.6125C3.12592 47.303 2.44124 45.1217 2.19007 43.5371C1.86091 41.4591 1.98274 38.0957 2.45462 36.234C3.51476 32.0519 5.85261 28.5153 9.13559 26.1275L9.95999 25.5279L10.4851 26.5805C10.7741 27.1593 11.3487 28.0631 11.762 28.5887C12.1755 29.1143 12.7541 29.8516 13.0482 30.227C13.6549 31.0019 14.3024 32.2269 14.7215 33.3925C14.9386 33.9964 15.0309 34.6932 15.1077 36.3062C15.2325 38.9281 15.4778 39.5457 16.627 40.1321C17.0809 40.3636 17.1253 40.4409 17.1957 41.124C17.3345 42.4673 18.2254 43.7001 19.4687 44.2691C20.4403 44.7137 21.7951 44.6657 22.7348 44.1532C23.1347 43.935 23.6482 43.5212 23.8762 43.2337C24.3807 42.5968 24.8075 41.5169 24.8075 40.8771C24.8075 40.4672 24.8765 40.3683 25.3197 40.1422C26.4909 39.5446 26.7334 38.94 26.8588 36.3062C26.9352 34.7011 27.0283 33.9954 27.2422 33.4006C27.7188 32.0756 28.4612 30.8026 29.5396 29.4615C30.873 27.803 31.5842 26.5951 32.0591 25.1826C33.7535 20.1427 31.8582 14.6209 27.4221 11.673C25.1588 10.1691 21.9535 9.42856 19.4126 9.82284ZM0.793125 14.7746C0.439655 15.1507 0.407558 15.7727 0.723605 16.1218C0.927519 16.3471 5.30027 17.8718 5.74239 17.8718C6.12577 17.8718 6.64231 17.3124 6.64231 16.8973C6.64231 16.1038 6.49249 16.0081 4.00645 15.2126C2.71058 14.798 1.5241 14.4587 1.37018 14.4587C1.21611 14.4587 0.956475 14.601 0.793125 14.7746ZM37.9224 15.2153C36.6273 15.6364 35.598 16.0478 35.4981 16.1846C35.1943 16.5998 35.2836 17.2739 35.6841 17.5888C35.882 17.7444 36.1179 17.8718 36.2083 17.8718C36.6453 17.8718 41.041 16.3449 41.2415 16.1235C41.7674 15.5426 41.2772 14.4422 40.5055 14.4711C40.3225 14.4781 39.16 14.8129 37.9224 15.2153ZM17.8851 23.5715C17.9177 23.6278 18.5113 25.9932 19.2042 28.8276L20.464 33.9813H20.9838H21.5036L22.5452 29.715C23.118 27.3686 23.7016 25.0034 23.842 24.4589L24.0974 23.4692H20.9615C19.2369 23.4692 17.8524 23.5153 17.8851 23.5715ZM34.7779 26.4343C33.8397 26.7729 33.8626 27.5199 34.8482 28.7217C36.5869 30.8419 37.7042 33.5363 38.0203 36.3705C38.1705 37.7177 38.0483 38.4812 37.5551 39.2742C36.9678 40.2185 36.7852 40.8534 36.8559 41.7052C36.9107 42.365 37.0646 42.6588 38.4422 44.7315C39.3924 46.1611 39.9679 47.1593 39.9679 47.3774C39.9679 47.8143 39.68 48.0637 38.807 48.3833C37.8414 48.7368 37.5448 48.9579 37.1624 49.6104C36.8529 50.1383 36.8258 50.3266 36.8152 52.0143C36.8091 53.0214 36.759 54.8282 36.7039 56.0296C36.6136 57.9977 36.5679 58.2888 36.2409 58.9699C35.5497 60.4103 34.3263 61.4999 32.7953 62.0389C32.2153 62.243 31.5655 62.2808 28.405 62.2941L24.6956 62.3096L24.1103 62.7204C23.7616 62.9652 23.388 63.3973 23.1862 63.7891C22.8868 64.3707 22.8405 64.6637 22.7869 66.3136C22.7536 67.3402 22.6647 68.2569 22.5893 68.3507C22.487 68.4781 21.6756 68.5214 19.3896 68.5214H16.3271L15.9919 68.8565C15.5616 69.2866 15.5648 69.8073 16.0005 70.2428L16.3444 70.5864L19.7344 70.5437L23.1244 70.501L23.6687 70.1236C24.6224 69.4624 24.8075 68.9529 24.8075 66.9873C24.8075 65.0454 24.9483 64.4641 25.4492 64.3385C25.6368 64.2914 27.0593 64.2821 28.61 64.3179C31.9456 64.3949 32.9403 64.262 34.446 63.5382C35.2097 63.171 35.7562 62.7718 36.472 62.0582C38.1126 60.4224 38.7387 58.8685 38.7387 56.4324C38.7387 55.6717 38.7789 54.0319 38.8279 52.7883L38.9171 50.5273L39.8346 50.1674C40.8706 49.7611 41.6539 49.0695 41.8908 48.3518C41.9769 48.091 42.0214 47.5197 41.9899 47.082C41.9356 46.3341 41.8406 46.1486 40.4038 43.9866C39.557 42.7126 38.8753 41.5456 38.8753 41.3702C38.8753 41.196 39.0874 40.7063 39.3466 40.282C40.0075 39.2003 40.1565 38.4658 40.066 36.7354C39.8892 33.3514 38.3313 29.4778 36.2574 27.2658C35.5352 26.4956 35.1727 26.2919 34.7779 26.4343ZM17.2078 36.2357C17.1632 36.3518 17.1539 36.8217 17.187 37.2801C17.2311 37.8883 17.3163 38.1641 17.5025 38.3001C17.8811 38.5769 24.0941 38.5704 24.4741 38.2928C24.6948 38.1316 24.7392 37.9316 24.7392 37.0983V36.0974L21.014 36.0611C17.7582 36.0293 17.2785 36.0514 17.2078 36.2357ZM19.2083 40.8416C19.2095 41.5797 20.2316 42.5806 20.9854 42.5817C21.8089 42.5829 22.7588 41.652 22.7588 40.8438C22.7588 40.5382 22.7371 40.5344 20.9832 40.5344C19.2328 40.5344 19.2077 40.5388 19.2083 40.8416Z" fill="white"/>
</svg>
