<svg width="63" height="64" viewBox="0 0 63 64" fill="none" xmlns="http://www.w3.org/2000/svg">
<path fill-rule="evenodd" clip-rule="evenodd" d="M27.5626 0.753553C26.6502 1.04111 25.97 1.61058 25.5116 2.47049C25.3061 2.85599 25.2565 3.32515 25.2014 5.40189L25.1358 7.87437L24.0867 8.25633C23.5096 8.46639 22.579 8.8532 22.0185 9.11598L20.9996 9.59379L19.2624 7.89443C17.3908 6.06368 17.0743 5.87971 15.7969 5.87971C14.6504 5.87971 14.0868 6.28318 11.2673 9.12332C8.82537 11.5829 8.68247 11.7547 8.46976 12.4856C8.02689 14.0079 8.38473 14.7884 10.526 16.9708L12.0857 18.5603L11.551 19.6739C11.2569 20.2864 10.8791 21.1948 10.7115 21.6927L10.4067 22.598L7.92966 22.6647C5.72148 22.7244 5.39579 22.7622 4.92786 23.0134C4.24145 23.3819 3.75934 23.9022 3.42945 24.6304C3.18119 25.1785 3.1619 25.4822 3.15927 28.9014C3.15599 33.0474 3.21832 33.4275 4.03989 34.2729C4.57015 34.8185 5.40143 35.2442 5.94482 35.2486L6.30568 35.2515V34.2025C6.30568 33.3437 6.26893 33.1535 6.10294 33.1535C5.9914 33.1535 5.75521 33.0086 5.57806 32.8316L5.25591 32.5098V28.9882C5.25591 25.2582 5.23229 25.4309 5.81872 24.8661C5.83394 24.8514 7.22501 24.807 8.91001 24.7677L11.9736 24.696L12.3975 23.3192C12.9163 21.6337 13.3695 20.5641 14.1402 19.207L14.7298 18.1686L12.6199 16.0562C11.0013 14.4357 10.49 13.843 10.4239 13.5105C10.3402 13.0888 10.4059 13.0087 12.8772 10.5274C16.1824 7.20878 15.7021 7.24602 18.5772 10.086L20.7116 12.1942L21.6115 11.6889C22.9919 10.9136 24.5385 10.2456 25.7961 9.88148C26.4233 9.69974 27.0186 9.55118 27.1188 9.55118C27.2688 9.55118 27.3017 9.01383 27.3051 6.50255C27.3095 3.30732 27.328 3.19809 27.9156 2.88523C28.3151 2.67268 34.6849 2.67268 35.0844 2.88523C35.6719 3.19796 35.6905 3.30811 35.6949 6.48799L35.6991 9.52194L36.1817 9.61241C37.527 9.8647 39.764 10.7828 41.8307 11.9309L42.3857 12.2392L44.5222 10.1085C46.4683 8.16769 46.6998 7.97769 47.118 7.97769C47.5391 7.97769 47.7826 8.18329 50.0624 10.4638C52.3623 12.7644 52.5478 12.9849 52.5478 13.4192C52.5478 13.8507 52.3759 14.0605 50.4083 16.0292L48.2688 18.1701L48.8805 19.2298C49.5908 20.4604 50.2681 22.0835 50.7105 23.6159L51.0225 24.696L54.088 24.7677C55.7741 24.807 57.1661 24.8514 57.1813 24.8661C57.7677 25.4309 57.7441 25.2582 57.7441 28.9882V32.5098L57.4219 32.8316C57.2448 33.0086 57.0086 33.1535 56.8971 33.1535C56.7311 33.1535 56.6943 33.3437 56.6943 34.2025V35.2515L57.0552 35.2486C57.5986 35.2442 58.4298 34.8185 58.9601 34.2729C59.7817 33.4275 59.844 33.0474 59.8407 28.9014C59.8381 25.4822 59.8188 25.1785 59.5705 24.6304C59.2407 23.9022 58.7586 23.3819 58.0721 23.0134C57.6043 22.7622 57.2784 22.7243 55.0726 22.6647L52.598 22.598L52.1742 21.4179C51.9411 20.7688 51.5597 19.8629 51.3268 19.4047L50.9032 18.5717L52.4684 16.9765C54.6157 14.788 54.9734 14.0089 54.5302 12.4856C54.3175 11.7547 54.1746 11.5829 51.7327 9.12332C48.9132 6.28318 48.3496 5.87971 47.2032 5.87971C45.9258 5.87971 45.6091 6.06381 43.7388 7.89325L42.0026 9.59156L40.7891 9.02812C40.1217 8.71828 39.1904 8.335 38.7199 8.17661L37.8642 7.8884L37.7986 5.40898C37.7267 2.69248 37.6267 2.30698 36.7937 1.53479C35.9052 0.711331 35.8538 0.702677 31.6968 0.675141C29.6039 0.661242 27.7434 0.696645 27.5626 0.753553ZM29.5973 14.4194C22.7909 15.269 17.4353 20.9339 16.854 27.8986L16.7655 28.9575H17.8342H18.9028V28.4502C18.9028 28.1712 18.9893 27.4484 19.0951 26.8439C19.993 21.7089 23.8333 17.7725 29.0724 16.6172C30.3413 16.3374 33.053 16.3999 34.4363 16.741C39.3268 17.9469 43.0424 21.9114 43.9049 26.8439C44.0107 27.4484 44.0972 28.1712 44.0972 28.4502V28.9575H45.1658H46.2345L46.146 27.8986C45.4409 19.4493 37.9808 13.373 29.5973 14.4194ZM30.2547 24.9156C28.6687 25.2179 26.9909 26.41 26.1234 27.8511C23.6224 32.0055 26.6467 37.3463 31.5 37.3463C33.1526 37.3463 34.5078 36.8002 35.7602 35.6295C37.4973 34.0056 38.1544 31.7546 37.5581 29.4714C36.7282 26.2949 33.5197 24.2934 30.2547 24.9156ZM30.5466 26.9946C29.3427 27.2967 28.3254 28.1157 27.7317 29.2608C27.4324 29.838 27.3782 30.1096 27.3729 31.0555C27.3675 32.0189 27.4166 32.2717 27.7348 32.9193C28.9862 35.4658 32.422 36.0472 34.4202 34.0505C35.3303 33.141 35.6291 32.4185 35.6313 31.1211C35.6336 29.8758 35.2634 28.9452 34.4376 28.12C33.4838 27.1669 31.8004 26.6799 30.5466 26.9946ZM12.4087 29.1116C10.8227 29.4138 9.14489 30.606 8.27739 32.0471C5.77646 36.2014 8.8007 41.5423 13.654 41.5423C15.3066 41.5423 16.6619 40.9961 17.9142 39.8255C19.6513 38.2016 20.3085 35.9506 19.7121 33.6674C18.8822 30.4909 15.6738 28.4894 12.4087 29.1116ZM48.1007 29.1116C46.5146 29.4138 44.8369 30.606 43.9694 32.0471C41.4684 36.2014 44.4927 41.5423 49.346 41.5423C50.9986 41.5423 52.3538 40.9961 53.6062 39.8255C55.3433 38.2016 56.0004 35.9506 55.404 33.6674C54.5742 30.4909 51.3657 28.4894 48.1007 29.1116ZM12.7006 31.1905C11.4968 31.4927 10.4794 32.3117 9.88576 33.4568C9.58645 34.034 9.53225 34.3055 9.52687 35.2515C9.52149 36.2148 9.57057 36.4676 9.88878 37.1152C11.1402 39.6618 14.576 40.2432 16.5742 38.2465C17.4843 37.337 17.7831 36.6145 17.7854 35.317C17.7876 34.0717 17.4174 33.1411 16.5917 32.316C15.6378 31.3628 13.9544 30.8759 12.7006 31.1905ZM48.3925 31.1905C47.1887 31.4927 46.1714 32.3117 45.5777 33.4568C45.2784 34.034 45.2242 34.3055 45.2188 35.2515C45.2135 36.2148 45.2625 36.4676 45.5807 37.1152C46.8322 39.6618 50.2679 40.2432 52.2662 38.2465C53.1763 37.337 53.4751 36.6145 53.4773 35.317C53.4796 34.0717 53.1094 33.1411 52.2836 32.316C51.3298 31.3628 49.6463 30.8759 48.3925 31.1905ZM25.9231 38.5298C23.6152 38.8766 21.4963 40.0813 20.0598 41.863L19.4389 42.6331L14.2174 42.608C10.0507 42.588 8.76921 42.623 7.87494 42.7812C5.28465 43.2397 3.0522 44.6786 1.64131 46.7994C0.904379 47.9071 0.489066 48.906 0.215865 50.2278C-0.0637654 51.5802 -0.0743943 56.5469 0.199594 57.8385C0.619106 59.8169 2.08261 61.7391 3.89017 62.686C5.5568 63.5589 5.69865 63.5742 12.1069 63.5742H17.8531V62.5252V61.4762H13.1291H8.4052V55.7068V49.9373H7.35544H6.30568V55.6554V61.3736L5.94482 61.2861C4.81869 61.0131 3.61657 60.1101 2.90575 59.0032C2.18837 57.8862 2.07644 57.1043 2.13523 53.6248C2.1847 50.6912 2.20517 50.4811 2.52102 49.6516C2.70446 49.17 3.04511 48.4792 3.27803 48.1165C3.87954 47.1799 5.22927 45.9664 6.19886 45.4907C7.66577 44.7708 8.35206 44.6972 13.6212 44.6946C16.2375 44.6934 18.378 44.7275 18.378 44.7705C18.378 44.8135 18.2747 45.1823 18.1483 45.5901C17.9426 46.2543 17.9187 47.0134 17.9187 52.8876C17.9187 59.0574 17.9338 59.4843 18.1738 60.1308C18.7145 61.5876 20.0452 62.8579 21.5082 63.3142C22.183 63.5245 22.7154 63.5742 24.2967 63.5742H26.2512V55.1823V46.7904H25.2014H24.1517V54.1333V61.4762H23.2588C21.7078 61.4762 20.4418 60.5753 20.0737 59.2098C19.9867 58.8869 19.9544 56.5001 19.9833 52.5197C20.0271 46.4462 20.0336 46.3163 20.3292 45.5154C21.1321 43.3404 22.9288 41.5724 25.0608 40.8599C25.879 40.5865 26.1849 40.5693 31.0431 40.5259C36.7356 40.475 37.3422 40.5335 38.9175 41.2849C39.9111 41.7587 41.2587 42.9593 41.876 43.9206C42.1089 44.2833 42.4524 44.974 42.6393 45.4557L42.9792 46.3314L43.0204 52.5197C43.0467 56.4888 43.013 58.8878 42.9263 59.2098C42.5582 60.5753 41.2922 61.4762 39.7412 61.4762H38.8483V54.1333V46.7904H37.7986H36.7488V55.1823V63.5742H38.6932C40.8703 63.5742 41.6583 63.4146 42.6796 62.7666C43.5346 62.2243 44.1853 61.4644 44.6695 60.4434L45.0813 59.5749V52.9532C45.0813 47.0165 45.0576 46.2547 44.8517 45.5901C44.7254 45.1823 44.622 44.8135 44.622 44.7705C44.622 44.7275 46.7626 44.6934 49.3788 44.6946C54.6479 44.6972 55.3342 44.7708 56.8011 45.4907C57.7707 45.9664 59.1205 47.1799 59.722 48.1165C59.9549 48.4792 60.2954 49.17 60.4787 49.6516C60.7934 50.4786 60.8149 50.6971 60.8649 53.5699C60.9207 56.7756 60.848 57.4775 60.3509 58.5339C59.7712 59.7664 58.3081 60.9888 57.0552 61.2875L56.6943 61.3736V55.6554V49.9373H55.6446H54.5948V55.7068V61.4762H49.8709H45.1469V62.5314V63.5864L51.2159 63.5476C57.2573 63.5088 57.2884 63.5072 58.0721 63.1963C59.1614 62.7643 60.5219 61.8417 61.1518 61.108C61.8912 60.2467 62.579 58.8826 62.8004 57.8385C63.0744 56.5469 63.0638 51.5802 62.7841 50.2278C62.1209 47.0189 60.0433 44.5374 56.9621 43.2734C55.4891 42.6691 54.4074 42.5809 48.7987 42.6079L43.593 42.6329L42.9483 41.8597C41.4375 40.0476 39.4144 38.9102 37.0517 38.5445C35.9933 38.3806 26.9944 38.3688 25.9231 38.5298ZM27.3009 62.5252V63.5742H31.5H35.6991V62.5252V61.4762H31.5H27.3009V62.5252Z" fill="white"/>
</svg>
