<svg width="77" height="66" viewBox="0 0 77 66" fill="none" xmlns="http://www.w3.org/2000/svg">
<path fill-rule="evenodd" clip-rule="evenodd" d="M31.7841 2.88187C28.2229 4.27435 25.1878 5.48918 25.0393 5.58164C24.7908 5.73641 24.7695 6.16857 24.7701 11.044C24.7709 17.0072 24.895 18.2251 25.769 20.8456C26.0568 21.709 26.57 22.9691 26.9095 23.6459L27.5265 24.8766L25.9552 24.9833C24.3425 25.0929 21.123 25.4807 20.4743 25.6435C20.1599 25.7224 20.1243 25.6908 20.2125 25.4121C20.4583 24.6357 19.6763 23.1526 18.7772 22.6896C18.238 22.412 9.45122 19.9709 9.0066 19.9753C8.4553 19.9807 7.44767 20.505 7.02849 21.0045C6.72848 21.3622 5.90523 24.0352 3.27823 33.18C-0.432099 46.097 -0.37737 45.828 0.480414 46.9558C0.713514 47.2626 1.12298 47.6135 1.39 47.736C2.03441 48.0313 10.7094 50.4324 11.1164 50.428C12.1168 50.4174 13.3584 49.3694 13.6914 48.2547L13.8755 47.6381L14.3892 48.1374C14.8649 48.5998 14.9029 48.709 14.9029 49.6175C14.9029 51.1009 15.5937 52.205 16.848 52.7261C17.2812 52.9061 17.2924 52.9398 17.2924 54.0544C17.2924 55.0754 17.3421 55.2688 17.7551 55.858C18.0095 56.2211 18.5047 56.662 18.8555 56.8377L19.4933 57.1573L19.4216 58.1623C19.3617 59.0022 19.409 59.2812 19.7087 59.8609C20.4502 61.2944 22.0423 61.998 23.5103 61.5407L24.2139 61.3216L24.5421 61.9453C25.263 63.3149 27.0278 63.9318 28.5536 63.3475L29.2462 63.0822L30.1743 63.9439C31.2724 64.9636 32.3496 65.3631 33.64 65.2295C35.3036 65.0573 36.9765 63.7277 37.4934 62.1669L37.7464 61.4029L38.5792 62.1661C39.6418 63.1402 40.6162 63.4854 42.0183 63.3845C43.2033 63.2991 44.0243 62.9254 44.8471 62.097C45.467 61.4728 46.0445 60.4216 46.0445 59.9173C46.0445 59.4478 46.1514 59.4151 46.9251 59.6488C48.5741 60.1465 50.0257 59.7624 51.2816 58.4964C52.569 57.1984 52.9497 55.666 52.4301 53.8717C52.3558 53.6152 52.3933 53.5238 52.5729 53.5238C52.7067 53.5238 53.1953 53.3815 53.6584 53.2077C54.6099 52.8507 55.5958 51.973 56.0515 51.0773C56.356 50.4787 56.3711 50.4712 57.7922 50.2109C59.4487 49.9074 61.1197 49.3729 62.3933 48.7393L63.2856 48.2952L63.4638 48.7268C63.8004 49.5416 65.0707 50.4314 65.8975 50.4314C66.4829 50.4314 75.5673 47.8057 75.9353 47.53C76.6169 47.0198 76.9257 46.4588 76.9949 45.606C77.0526 44.8943 76.6574 43.3809 73.9553 33.9647C72.2472 28.0119 70.7098 22.7098 70.5389 22.1821C70.0093 20.547 68.7152 19.7418 67.215 20.114C65.4197 20.5592 58.5801 22.4952 58.3008 22.6371C57.3821 23.1035 56.8354 23.9713 56.79 25.0357L56.7591 25.7558L54.3406 26.7976L51.9221 27.8392L50.6637 27.0807C49.9715 26.6635 49.2734 26.2802 49.1123 26.2289C48.705 26.0992 48.7349 25.9668 49.4424 24.7726C50.7098 22.6331 51.5787 20.1464 51.9844 17.498C52.2246 15.9297 52.3157 6.14306 52.0933 5.80893C52.031 5.71539 51.8266 5.55783 51.6391 5.45872C51.0553 5.15057 38.6314 0.33502 38.4401 0.342905C38.3405 0.34708 35.3454 1.48955 31.7841 2.88187ZM34.2508 3.82566C31.9614 4.71919 29.2663 5.76904 28.2616 6.15867L26.4348 6.86728L26.5088 11.9894C26.573 16.4376 26.624 17.2843 26.8963 18.4257C27.3376 20.2755 28.0576 22.188 28.8195 23.535C29.465 24.6759 29.4786 24.6881 30.1606 24.7368C30.634 24.7707 31.08 24.6779 31.5856 24.4404L32.3214 24.0947L32.0038 23.6182C31.3548 22.6436 30.16 20.0049 29.7576 18.6576C29.3605 17.3274 29.3393 17.081 29.2767 13.0657L29.2115 8.86555L29.5728 8.63811C29.7715 8.51318 31.8597 7.66171 34.213 6.74622L38.4919 5.08161L42.7693 6.74189C45.1219 7.65506 47.2026 8.5022 47.3935 8.62435C47.737 8.84437 47.7404 8.88164 47.7404 12.4595C47.7404 16.3241 47.5927 17.5986 46.9127 19.6023C46.4836 20.8663 45.7488 22.365 45.0036 23.4959C44.707 23.9458 44.4904 24.3341 44.5221 24.3587C44.5539 24.3832 45.1269 24.5946 45.7954 24.8285C46.8066 25.1823 47.0451 25.2191 47.215 25.0479C47.6412 24.6187 48.8279 22.3421 49.2897 21.0675C50.3054 18.2649 50.3908 17.6098 50.4719 11.9933L50.5459 6.87517L49.9525 6.63768C48.0711 5.88469 38.5292 2.19182 38.4763 2.19615C38.4417 2.19893 36.5402 2.93228 34.2508 3.82566ZM37.6425 7.31011C37.2185 7.47864 35.5288 8.14349 33.8874 8.78747L30.9034 9.95823L30.9797 13.3802C31.0432 16.2329 31.1112 17.008 31.3882 18.0391C31.7648 19.4414 33.0208 22.1082 33.6731 22.8907L34.1085 23.413L34.9196 23.2386C36.2016 22.9629 38.7415 23.0263 40.5676 23.3798C41.4642 23.5533 42.2846 23.7286 42.3903 23.7693C42.773 23.9166 44.4651 21.2564 45.1007 19.508C45.8716 17.3882 45.9517 16.8058 45.9598 13.2768L45.9675 9.90582L42.4987 8.54457C40.5909 7.79591 38.8912 7.14297 38.7216 7.09349C38.552 7.04401 38.0664 7.14157 37.6425 7.31011ZM39.5029 15.1766L36.7043 17.9575L35.7087 16.9486C34.8698 16.0982 34.6411 15.9466 34.2543 15.9843C33.6347 16.0447 33.337 16.614 33.6303 17.1781C33.8876 17.6729 36.3832 20.1265 36.6291 20.1265C37.0995 20.1265 37.8604 19.4683 40.6102 16.6832C42.6099 14.6577 43.5779 13.569 43.5779 13.3456C43.5779 12.9195 43.056 12.3956 42.6314 12.3956C42.4105 12.3956 41.3782 13.3133 39.5029 15.1766ZM8.36897 22.1751C7.99882 22.7602 1.62017 45.2106 1.71575 45.5924C1.76339 45.7829 1.93744 46.0111 2.10256 46.0998C2.57523 46.3534 10.6175 48.5759 11.0633 48.5759C11.2833 48.576 11.5698 48.4542 11.6997 48.3054C11.9475 48.0219 18.453 25.5449 18.4502 24.9822C18.4495 24.8041 18.3274 24.5502 18.1789 24.418C17.861 24.1348 9.73412 21.8273 9.0547 21.8273C8.7399 21.8273 8.51789 21.94 8.36897 22.1751ZM63.157 23.0156C60.9101 23.6531 58.9501 24.2835 58.8018 24.4165C58.6535 24.5495 58.5325 24.8041 58.533 24.9822C58.5334 25.1603 59.4626 28.5415 60.5976 32.4958C61.7327 36.4502 63.1984 41.5641 63.8548 43.8602C64.5111 46.1563 65.1537 48.1567 65.2827 48.3054C65.4117 48.4542 65.6908 48.576 65.9028 48.576C66.3343 48.576 74.4289 46.3409 74.8862 46.0955C75.0468 46.0092 75.2174 45.7829 75.265 45.5924C75.3606 45.2106 68.9819 22.7602 68.6118 22.1751C68.274 21.6416 67.6771 21.7336 63.157 23.0156ZM34.8275 25.0761C34.2121 25.2378 33.4143 25.5013 33.0546 25.6616C30.4515 26.8219 27.4283 29.8865 25.7261 33.0903C25.1916 34.0964 25.0779 34.4592 25.0779 35.157C25.0779 36.9095 26.3434 38.2349 28.03 38.2484C29.4064 38.2595 29.7483 38.0144 32.4678 35.0674C34.6646 32.6868 35.1123 32.2778 36.0021 31.8389C36.9233 31.3845 37.1547 31.3362 38.411 31.3362C40.7925 31.3362 40.6208 31.2057 48.2588 38.8194C51.8933 42.4422 55.1339 45.7397 55.4603 46.1473C55.7866 46.5547 56.173 47.268 56.319 47.7321C56.5339 48.4163 56.6481 48.576 56.9216 48.576C57.6445 48.576 60.2778 47.7943 61.5173 47.2118L62.8205 46.5994L60.3864 38.1174C59.0476 33.4523 57.8045 29.1388 57.6242 28.5318L57.2959 27.428L54.6688 28.5704C53.2238 29.1986 51.9228 29.7127 51.7775 29.7127C51.6322 29.7127 51.1653 29.4777 50.74 29.1904C49.9534 28.6592 47.7322 27.4689 46.8925 27.1288C44.6109 26.2046 41.9702 25.4201 39.7453 25.0053C38.0357 24.6866 36.2096 24.7129 34.8275 25.0761ZM10.9716 25.3578C9.45415 26.0816 8.82268 27.708 9.48853 29.1779C10.844 32.1708 15.2951 31.0474 15.025 27.7805C14.8571 25.7507 12.7672 24.5015 10.9716 25.3578ZM63.5246 25.37C61.5163 26.2847 61.3092 29.2005 63.1651 30.4322C64.8706 31.5641 67.1574 30.6539 67.6028 28.666C68.1349 26.2903 65.745 24.3587 63.5246 25.37ZM25.0779 26.8007C23.087 26.9697 19.835 27.4838 19.6791 27.6543C19.6159 27.7234 18.4105 31.8138 17.0001 36.7439L14.4364 45.7079L15.2086 46.4825L15.981 47.257L17.4847 45.7581C19.1088 44.1391 19.7221 43.7829 20.8862 43.7829C22.352 43.7829 23.7647 44.9761 23.9514 46.372C24.0291 46.953 24.0795 47.0104 24.5953 47.105C25.9518 47.3535 27.0688 48.48 27.319 49.8516C27.4087 50.3439 27.4846 50.4314 27.8214 50.4314C28.4367 50.4314 29.4816 51.0098 29.9292 51.5983C30.152 51.8913 30.416 52.4758 30.5158 52.897C30.684 53.607 30.7372 53.6697 31.2436 53.7555C32.7506 54.0108 33.8851 55.3101 33.897 56.7938C33.9068 58.0321 33.5506 58.6733 31.9377 60.3198L30.4765 61.8114L31.1303 62.4427C31.9922 63.2749 32.3052 63.4193 33.2462 63.4193C34.1641 63.4193 34.7492 63.1555 35.3076 62.49C36.1449 61.492 36.1541 60.2663 35.3333 59.0595C34.886 58.4018 34.8423 57.9777 35.1867 57.6321C35.7433 57.0741 36.1435 57.304 38.2463 59.3898C40.3159 61.4425 40.7239 61.7185 41.6892 61.7185C43.6833 61.7185 45.0389 59.3796 44.0194 57.6984C43.8389 57.4008 42.1047 55.5527 40.1657 53.5913C36.5795 49.9637 36.3544 49.6579 36.8826 49.1282C37.5034 48.5057 37.7328 48.6801 42.3384 53.2745C44.7583 55.6887 46.8898 57.7413 47.075 57.8357C47.5114 58.0585 48.898 58.0573 49.3308 57.8337C49.8443 57.5686 50.3648 57.0521 50.6253 56.5498C50.9346 55.9534 50.9383 54.8009 50.6329 54.2152C50.4986 53.9576 48.4404 51.7659 46.0595 49.3448C41.6406 44.8513 41.4257 44.5718 41.9701 44.0258C42.5795 43.4148 42.845 43.6097 46.8827 47.6343C50.1779 50.9188 50.8421 51.5111 51.3947 51.6583C52.8544 52.0473 54.3512 51.119 54.6703 49.6266C55.0063 48.0554 55.2033 48.3044 47.5221 40.5976C42.8488 35.909 40.3695 33.5305 39.955 33.3379C39.5794 33.1633 38.9754 33.0486 38.41 33.0441C36.9128 33.0327 36.3581 33.4222 33.5778 36.4367C30.6209 39.6427 30.0679 40.0006 28.0946 39.9849C26.6189 39.973 25.6669 39.5878 24.6887 38.6069C23.6947 37.61 23.315 36.6674 23.3096 35.1831C23.3053 34.006 23.3461 33.8467 23.9637 32.6319C24.7874 31.0114 26.2785 28.9144 27.531 27.6154L28.49 26.6204L27.5934 26.6419C27.1001 26.6536 25.9682 26.7251 25.0779 26.8007ZM11.3452 27.227C10.8003 27.7734 10.7767 28.1666 11.2556 28.7249C11.5135 29.0256 11.7625 29.1458 12.1279 29.1458C12.7028 29.1458 13.3612 28.5296 13.3612 27.9914C13.3612 27.5776 12.5474 26.775 12.1279 26.775C11.9452 26.775 11.5931 26.9783 11.3452 27.227ZM64.2388 26.9738C63.4279 27.3853 63.4372 28.6026 64.2542 29.0264C65.4592 29.6512 66.5197 28.1234 65.5536 27.1546C65.1316 26.7313 64.8052 26.6864 64.2388 26.9738ZM20.2216 45.6306C20.052 45.7005 19.1674 46.5261 18.256 47.4653C16.7632 49.0032 16.5987 49.2287 16.5987 49.7367C16.5987 50.1537 16.716 50.4183 17.0493 50.7526C17.5494 51.2541 18.0755 51.3274 18.7262 50.9862C19.3805 50.6431 22.1143 47.7624 22.2319 47.2919C22.5133 46.1679 21.3165 45.1788 20.2216 45.6306ZM21.3614 50.9945C20.1939 52.1546 19.1572 53.3013 19.0575 53.5428C18.6736 54.4723 19.3902 55.5338 20.4017 55.5338C20.9425 55.5338 21.1327 55.3818 23.2607 53.2475C25.4519 51.0499 25.5404 50.9367 25.5404 50.3308C25.5404 49.4587 24.9712 48.8853 24.1057 48.8853C23.5134 48.8853 23.3828 48.9858 21.3614 50.9945ZM26.6966 52.426C25.9891 52.8736 21.4115 57.569 21.255 58.0077C21.0697 58.5272 21.3017 59.3281 21.723 59.6242C21.9102 59.7556 22.3405 59.8631 22.6793 59.8631C23.2723 59.8631 23.3979 59.7601 26.0268 57.1186C27.7556 55.3815 28.7964 54.2171 28.8625 53.946C29.0046 53.3634 28.6746 52.6304 28.1472 52.3569C27.5729 52.0591 27.2525 52.0742 26.6966 52.426ZM30.2301 55.6116C29.9825 55.7193 28.8953 56.7084 27.8143 57.8099C25.716 59.9477 25.5991 60.1674 26.0727 61.0859C26.3457 61.6155 27.0763 61.9461 27.6572 61.8029C27.9178 61.7386 28.8798 60.9013 30.1268 59.6529C32.0838 57.6943 32.1695 57.5819 32.1695 56.9748C32.1695 55.8716 31.1998 55.1901 30.2301 55.6116Z" fill="white"/>
</svg>
