<svg width="68" height="70" viewBox="0 0 68 70" fill="none" xmlns="http://www.w3.org/2000/svg">
<path fill-rule="evenodd" clip-rule="evenodd" d="M25.7715 0.564684C25.3382 0.786517 24.7727 1.40585 24.7716 1.65945C24.7712 1.746 24.3657 1.9506 23.8704 2.11402C19.7817 3.46359 16.3503 6.41661 14.4055 10.2594C13.6064 11.8385 13.1106 13.2784 12.8153 14.8785L12.6011 16.0398L11.8318 16.5295C9.1104 18.2619 9.19739 22.2163 11.9964 24.0023L12.4967 24.3216V25.9105C12.4967 26.7844 12.5598 27.8588 12.637 28.298C13.1211 31.0569 14.9061 34.5298 17.0571 36.8984C17.5049 37.3913 17.8176 37.8394 17.7522 37.8942C17.6867 37.949 17.303 38.1036 16.8994 38.2377C15.6232 38.6619 12.8775 40.0525 11.5628 40.9409C6.29562 44.4998 2.42325 50.3799 0.619876 57.5573C-0.356321 61.4431 -0.195423 63.3668 1.21571 64.6792C2.45193 65.8289 3.91016 66.0454 10.3621 66.0367C14.8809 66.0308 15.1936 65.9846 15.6101 65.2625C15.8324 64.8774 15.8471 64.7433 15.7159 64.3014C15.4373 63.3634 15.5561 63.3824 9.54921 63.3201C3.94991 63.2619 3.43306 63.2115 2.95237 62.6756C2.34693 62.0005 2.66326 59.6139 3.83278 56.0345C5.8867 49.7484 9.34135 45.2381 14.2996 42.3698C14.9529 41.9918 15.5261 41.6826 15.5734 41.6826C15.6207 41.6826 15.6976 42.1856 15.7445 42.8004C15.9326 45.2696 16.7642 47.3708 18.4429 49.6195C19.6035 51.1738 19.8426 51.3743 20.535 51.3743C21.0192 51.3743 21.2198 51.2008 24.8747 47.6205C26.9823 45.5559 28.7527 43.8448 28.8089 43.8179C28.865 43.791 30.3602 45.1925 32.1314 46.9323C33.9028 48.6721 35.6764 50.3832 36.0729 50.735C37.3151 51.8367 37.8675 51.6168 39.4376 49.3949C41.0517 47.1109 41.7848 45.2148 41.9382 42.9277C41.9841 42.243 42.0576 41.6834 42.1017 41.6845C42.3142 41.6895 44.3003 42.8693 45.2352 43.5458C46.5556 44.5014 48.168 45.9957 48.0258 46.1319C47.8609 46.2899 46.5501 46.6527 45.5837 46.8078C43.9548 47.0693 43.766 47.4376 43.9026 50.0872C44.0116 52.2002 44.1668 53.3113 44.5901 55.0087C45.1746 57.3523 46.3206 59.9044 47.7813 62.1149C48.1868 62.7289 48.5188 63.259 48.5188 63.2928C48.5188 63.3267 43.441 63.3544 37.2349 63.3544H25.9511L25.5611 63.7479C25.0287 64.2851 25.0284 64.9389 25.5605 65.5396L25.9496 65.9793L38.3278 66.0163L50.7057 66.0534L51.5833 66.9082C53.2968 68.5771 54.9533 69.3901 56.3125 69.229C58.4549 68.9751 61.1916 66.4954 63.9466 62.3117C66.2428 58.8249 67.4792 55.4186 67.8606 51.5283C68.0804 49.2882 68.0411 48.0159 67.7369 47.5126C67.4835 47.093 66.8507 46.8002 66.1936 46.7985C65.6158 46.7969 63.8648 46.2131 62.5648 45.5886C60.8337 44.757 59.1309 43.5811 57.694 42.2247C56.5553 41.1497 56.1136 40.9091 55.5875 41.0775C55.429 41.1283 54.7793 41.652 54.1437 42.2414C53.5082 42.8305 52.4727 43.6693 51.8427 44.1051L50.6972 44.8977L49.8415 44.0184C47.4425 41.5534 44.0743 39.3839 40.8813 38.247L39.8479 37.8791L40.3886 37.257C40.686 36.9148 41.311 36.1252 41.7776 35.5024C44.2096 32.2555 45.311 29.0676 45.316 25.2605L45.3174 24.2509L45.9237 23.8643C47.2481 23.0202 47.9247 21.6057 47.8233 19.8933C47.7306 18.3283 46.9488 17.0565 45.6528 16.3629C45.2808 16.1638 45.05 15.9478 45.05 15.7989C45.05 15.666 44.9573 15.1046 44.844 14.5511C44.1989 11.4006 42.6591 8.48338 40.4433 6.21457C38.798 4.52982 36.3199 2.94966 34.21 2.24001C33.7147 2.07337 33.3095 1.85894 33.3095 1.76363C33.3095 1.4714 32.6131 0.73577 32.1526 0.541666C31.4937 0.263836 26.3225 0.282546 25.7715 0.564684ZM27.1973 6.58366C27.0271 10.2975 26.7653 12.2844 26.17 14.3826C25.9875 15.0258 25.8382 15.6164 25.8382 15.695C25.8382 15.7919 26.8747 15.8379 29.0558 15.8379H32.2732L32.1841 15.5351C31.2526 12.3723 30.9215 10.0796 30.8136 6.04523L30.7334 3.05021H29.0463H27.3593L27.1973 6.58366ZM23.6276 5.04537C20.5462 6.41688 18.092 8.76148 16.6282 11.7324C15.9743 13.0595 15.2264 15.5365 15.4185 15.7391C15.4723 15.7959 17.1876 15.8262 19.2303 15.8064L22.9445 15.7706L23.2005 15.0303C23.6636 13.6907 24.1021 11.7837 24.2962 10.2653C24.5414 8.34769 24.7126 4.66241 24.5561 4.6752C24.4907 4.68058 24.073 4.84722 23.6276 5.04537ZM33.443 6.11254C33.4433 9.3839 34.0691 13.2035 34.9539 15.3332L35.1637 15.8379H38.7727C40.7576 15.8379 42.3817 15.7852 42.3817 15.7206C42.3817 15.6561 42.2387 15.0345 42.0639 14.3393C41.0716 10.3925 38.2528 6.97187 34.5827 5.26101C34.0387 5.00754 33.5599 4.80011 33.5184 4.80011C33.4768 4.80011 33.4429 5.39077 33.443 6.11254ZM13.8232 18.523C13.2148 18.7095 12.9038 18.934 12.6982 19.335C12.2725 20.1658 12.5457 21.2241 13.3026 21.6751C13.6386 21.8755 15.0376 21.8953 28.8339 21.8953C45.334 21.8953 44.4642 21.9355 44.9746 21.1494C45.2656 20.7013 45.2752 19.7009 44.9925 19.2659C44.8754 19.0853 44.6179 18.8308 44.4203 18.7002C44.0831 18.4773 43.148 18.4614 29.1128 18.4406C20.8912 18.4283 14.0109 18.4653 13.8232 18.523ZM15.0911 24.7339C14.9408 24.9791 15.1784 27.6869 15.4443 28.7603C15.5818 29.3155 16.0226 30.4361 16.4238 31.2505C18.9506 36.3803 24.4565 40.4711 28.8337 40.4711C33.3027 40.4711 38.8994 36.3002 41.387 31.1159C42.2169 29.3863 42.5178 28.1855 42.6096 26.2364L42.6873 24.5874H28.9341C19.167 24.5874 15.1548 24.6298 15.0911 24.7339ZM19.463 40.201C19.0018 40.3301 18.5815 40.4791 18.5291 40.532C18.4767 40.585 18.4365 41.335 18.4398 42.1987C18.4452 43.5908 18.4915 43.8992 18.8468 44.9153C19.2233 45.9919 20.3725 48.0168 20.599 48.0028C20.6555 47.9992 21.8961 46.829 23.3558 45.4022L26.0097 42.808L24.9568 42.4314C23.6892 41.9779 22.2978 41.285 21.3021 40.6108C20.8986 40.3377 20.5083 40.0809 20.4349 40.0402C20.3616 39.9996 19.9242 40.0719 19.463 40.201ZM36.7116 40.4252C35.7371 41.0919 33.6452 42.142 32.6109 42.4835L31.7122 42.7802L34.3273 45.361C35.7656 46.7805 36.9924 47.961 37.0534 47.9842C37.2221 48.049 37.9578 46.9759 38.4573 45.9365C39.0762 44.6484 39.3502 43.3015 39.2931 41.8286C39.2674 41.1683 39.2042 40.5851 39.1524 40.533C39.1006 40.481 38.6804 40.3326 38.2185 40.2035L37.3786 39.9688L36.7116 40.4252ZM54.789 45.2167C52.5885 47.0192 49.937 48.452 47.6122 49.0948C46.34 49.4466 46.408 49.2613 46.6654 51.672C47.051 55.2847 48.5136 58.8005 51.0439 62.1971C52.9559 64.7638 54.9621 66.585 55.8772 66.585C57.091 66.585 59.5044 64.236 61.7483 60.8705C63.8348 57.7413 65.0376 54.2913 65.2734 50.7597L65.3639 49.4046L64.4459 49.1567C62.0413 48.5071 59.3237 47.0638 57.1238 45.2683L55.9229 44.2881L54.789 45.2167ZM59.2483 52.0401C59.0958 52.1039 58.3753 52.811 57.6473 53.6114C56.9193 54.4116 56.0731 55.3404 55.7672 55.6752L55.2109 56.2839L54.6332 55.8441C53.3876 54.8959 52.8356 54.814 52.1762 55.4792C51.8284 55.8301 51.7412 56.5633 51.991 57.0345C52.1816 57.3936 54.6827 59.284 55.1108 59.3925C55.3037 59.4414 55.6307 59.4105 55.8374 59.3243C56.2543 59.1499 60.5803 54.4029 60.8865 53.7836C61.3566 52.8325 60.2271 51.6302 59.2483 52.0401ZM19.5575 63.7479C19.0464 64.2636 19.0297 64.9184 19.5129 65.4978C19.792 65.8324 19.9602 65.912 20.3889 65.912C21.0953 65.912 21.4183 65.7172 21.6535 65.1493C22.2094 63.8072 20.579 62.7172 19.5575 63.7479Z" fill="white"/>
</svg>
