<svg width="69" height="69" viewBox="0 0 69 69" fill="none" xmlns="http://www.w3.org/2000/svg">
<path fill-rule="evenodd" clip-rule="evenodd" d="M33.4175 0.523981C32.7225 0.751567 18.4861 8.39776 17.9244 8.84501C17.69 9.03165 17.3265 9.53341 17.1166 9.95998L16.7351 10.7355L16.6678 19.9813L16.6006 29.2269L9.13385 33.2299C5.02716 35.4317 1.45525 37.4099 1.19627 37.6258C0.93729 37.8418 0.574045 38.3147 0.389058 38.6767L0.0527201 39.3347L0.0154538 48.5861C-0.0271939 59.1988 -0.0585406 58.8516 1.03577 59.9128C1.55239 60.4137 3.00039 61.202 9.00349 64.2499C13.0385 66.2987 16.6097 68.0474 16.9397 68.1362C17.2696 68.2248 17.8012 68.2616 18.1209 68.2178C18.8429 68.119 24.2812 65.4309 24.7063 64.9627C24.8729 64.7795 25.009 64.479 25.009 64.2951C25.009 63.8981 24.4564 63.3017 24.0884 63.3017C23.9454 63.3017 22.7089 63.8757 21.3406 64.5772C19.9724 65.2788 18.8149 65.8528 18.7685 65.8528C18.7219 65.8528 18.6996 61.802 18.7186 56.851L18.7531 47.8491L25.9867 44.1626C29.9652 42.135 33.2803 40.476 33.3534 40.476C33.4404 40.476 33.4747 43.5896 33.4521 49.4385L33.4175 58.4009L30.5468 59.8778C28.9679 60.6902 27.5905 61.4721 27.4861 61.6154C27.3816 61.7588 27.2961 62.0184 27.2961 62.1922C27.2961 62.5887 27.8613 63.1674 28.2488 63.1674C28.4094 63.1674 29.8721 62.4899 31.4991 61.6619L34.4573 60.1563L35.4173 60.6587C35.9453 60.9351 39.4721 62.7304 43.2547 64.6484C50.513 68.3288 50.8335 68.4577 51.9478 68.1441C52.2633 68.0553 55.821 66.3047 59.8537 64.2541C67.8456 60.1899 68.2672 59.9234 68.611 58.719C68.703 58.3963 68.8287 58.0749 68.8903 58.0048C69.0345 57.8403 69.0376 39.4984 68.8934 39.5874C68.8335 39.6242 68.7116 39.3825 68.6226 39.0502C68.341 37.9992 67.5472 37.3854 64.1339 35.5798L61.0969 33.9731L61.2904 33.4315C61.8721 31.8028 62.0637 29.3818 61.7419 27.7275C61.5063 26.5173 60.7239 26.0248 59.985 26.6219C59.6394 26.9013 59.6192 27.1684 59.8264 28.7275C60.3972 33.0226 57.5413 37.1749 53.2614 38.2727C52.2062 38.5434 50.2434 38.573 49.2254 38.3338C46.8756 37.7815 44.7275 36.1878 43.488 34.077C42.5156 32.421 42.1354 29.953 42.55 27.989C43.0857 25.4516 44.9122 23.0892 47.2074 21.9649C50.6259 20.2905 54.4907 20.8838 57.3103 23.516C58.0513 24.2076 58.5726 24.3218 59.0447 23.8955C59.7329 23.2739 59.1776 22.2645 57.4846 21.0588C53.9402 18.5345 49.2528 18.3358 45.5578 20.5532C44.407 21.2439 42.7334 22.8925 42.0136 24.0442C40.2266 26.9041 39.8707 30.6242 41.0829 33.7735C41.1467 33.9392 40.5476 34.3156 38.3586 35.4854C36.8152 36.3102 35.5106 36.985 35.4595 36.985C35.4082 36.985 35.382 32.9642 35.4009 28.0497L35.4355 19.1146L42.6727 15.4285C46.6531 13.4013 49.9678 11.7425 50.0385 11.7425C50.1144 11.7425 50.1671 12.5318 50.1671 13.6661C50.1671 15.503 50.1811 15.6026 50.4784 15.8815C50.8629 16.2419 51.381 16.2556 51.8003 15.9164C52.1137 15.6629 52.1179 15.6263 52.1179 13.1303V10.6012L51.7002 9.86613C51.4704 9.46184 51.0769 8.96948 50.8257 8.77211C50.1761 8.26188 35.9276 0.653953 35.291 0.477524C34.6151 0.29022 34.0912 0.303244 33.4175 0.523981ZM32.0049 3.47078C30.8579 4.08828 27.6613 5.80275 24.9011 7.28051L19.8826 9.96736L27.1668 13.6662L34.451 17.3649L40.0556 14.5044C43.1381 12.9311 46.4106 11.2684 47.3279 10.8096L48.9957 9.97529L41.8792 6.16071C37.9621 4.06102 34.6116 2.34654 34.4265 2.34695C34.2415 2.34748 33.1518 2.85314 32.0049 3.47078ZM18.6869 20.4364L18.6879 29.1303L19.1914 29.4135C20.2743 30.0227 33.0654 36.8532 33.2698 36.9315C33.4682 37.0075 33.4837 36.2514 33.4521 28.0623L33.4175 19.1103L26.1908 15.4263C22.2161 13.4002 18.9014 11.7425 18.825 11.7425C18.7307 11.7425 18.6861 14.5406 18.6869 20.4364ZM55.2122 26.2382C54.9863 26.3299 51.9574 29.4197 50.2779 31.2715L49.7973 31.8015L48.3696 30.4995C47.2257 29.4562 46.8613 29.1975 46.5366 29.1975C45.9906 29.1975 45.5929 29.6177 45.5929 30.1945C45.5929 30.6131 45.763 30.8126 47.481 32.41C49.1175 33.9316 49.4285 34.1654 49.8165 34.1654C50.2216 34.1654 50.4862 33.933 52.6069 31.715C56.6773 27.4579 56.5351 27.6222 56.5351 27.1739C56.5351 26.5124 55.8063 25.9968 55.2122 26.2382ZM13.9771 32.9021C12.0163 33.9637 8.79604 35.6943 6.82119 36.7479C4.84621 37.8014 3.27215 38.7031 3.32327 38.7516C3.37426 38.8001 6.63365 40.4766 10.5663 42.477L17.7164 46.1144L24.9245 42.4561C28.8889 40.4439 32.134 38.7644 32.1359 38.7237C32.1405 38.627 17.8068 30.9385 17.6569 30.9573C17.5938 30.9651 15.938 31.8403 13.9771 32.9021ZM39.3707 37.2203C37.9092 38.0072 36.7152 38.6841 36.7171 38.7244C36.719 38.7646 39.9694 40.4433 43.9402 42.4546L51.1596 46.1114L58.2983 42.4768C62.2245 40.4776 65.4785 38.8018 65.5294 38.7527C65.5803 38.7035 64.4057 38.0149 62.9191 37.2222L60.2162 35.7809L59.1401 36.9289C57.1213 39.0823 54.9562 40.1877 52.2138 40.4651C48.6847 40.8222 45.1264 39.3793 42.8894 36.6844C42.5056 36.2221 42.1547 35.8315 42.1097 35.8165C42.0646 35.8016 40.8321 36.4332 39.3707 37.2203ZM0.0490877 48.8678C0.0490877 53.9633 0.0659046 56.0284 0.0863539 53.4567C0.106803 50.8851 0.106803 46.716 0.0862194 44.1922C0.06577 41.6683 0.0490877 43.7723 0.0490877 48.8678ZM2.00348 49.1431C2.00348 56.5256 2.03295 57.8669 2.20219 58.1936C2.44247 58.6572 2.72163 58.8103 10.6483 62.8238L16.6697 65.8727L16.6351 56.8332L16.6006 47.7937L9.40293 44.1375C5.44422 42.1266 2.15995 40.4802 2.10438 40.4787C2.04896 40.4772 2.00348 44.3761 2.00348 49.1431ZM35.3682 49.4018V58.3276L35.6709 58.5149C36.0923 58.7756 50.0038 65.8528 50.0949 65.8528C50.1357 65.8528 50.1534 61.8003 50.1344 56.8473L50.0999 47.8417L42.9022 44.1648C38.9435 42.1424 35.629 40.4852 35.5364 40.4819C35.4035 40.4772 35.3682 42.3476 35.3682 49.4018ZM59.4501 44.144L52.2524 47.8071L52.2179 56.8396L52.1833 65.8721L58.6083 62.6227C66.3384 58.7132 66.3987 58.68 66.65 58.1949C66.8203 57.8665 66.8495 56.5391 66.8495 49.1431C66.8495 44.3761 66.8042 40.4771 66.7486 40.4784C66.693 40.4799 63.4088 42.1294 59.4501 44.144Z" fill="white"/>
</svg>
