<svg width="77" height="56" viewBox="0 0 77 56" fill="none" xmlns="http://www.w3.org/2000/svg">
<path fill-rule="evenodd" clip-rule="evenodd" d="M36.8476 0.432854C33.9218 0.876713 31.5804 2.16449 29.4725 4.48897C27.9804 6.13432 26.7834 7.15403 25.2835 8.05786C22.8434 9.52817 20.4146 10.1767 16.7901 10.3256C13.7112 10.4524 12.9408 10.7642 12.048 12.2452L11.6778 12.8592L7.6711 12.9044C3.86651 12.9473 3.62961 12.9664 2.97732 13.28C1.8616 13.8165 1.09296 14.5609 0.555514 15.6256L0.0613053 16.6044L0.0120645 20.6367C-0.0406291 24.9455 0.0628066 26.0998 0.653696 27.7951C1.34427 29.7761 2.32833 31.2805 4.10295 33.0685C6.20124 35.1827 8.95121 36.7054 11.8774 37.3734L13.3351 37.7062L13.8652 38.9514C14.537 40.5296 15.7002 42.532 16.9503 44.2625C18.1444 45.9154 20.9175 48.6618 22.7067 49.9633C27.2821 53.2918 33.036 55.2417 38.343 55.2624C45.7946 55.2915 53.6597 51.623 58.6327 45.7987C60.5213 43.5867 62.1698 40.9543 63.1042 38.6584L63.4918 37.7062L64.954 37.374C67.762 36.7359 70.173 35.4522 72.3359 33.4437C74.7061 31.2429 76.3091 28.4864 76.6417 26.0393C76.6954 25.6445 76.7979 25.2861 76.8697 25.2428C76.9413 25.1995 77 23.2855 77 20.9893C77 18.6931 76.9454 16.8473 76.8787 16.8876C76.8119 16.9277 76.6805 16.6844 76.5867 16.3469C76.3342 15.4385 75.6091 14.4234 74.7935 13.8364C73.5784 12.9617 73.0528 12.8764 68.8804 12.8764H65.1687L64.7934 12.2539C63.8949 10.7632 63.1297 10.4525 60.046 10.3256C54.4787 10.0968 50.9758 8.49528 47.4305 4.55782C46.1408 3.12545 45.0064 2.24037 43.5394 1.52199C41.6019 0.573189 38.8618 0.127133 36.8476 0.432854ZM37.2921 2.86207C36.3405 3.00402 35.1502 3.40159 34.1571 3.90887C33.1217 4.43799 32.4104 5.05588 30.3113 7.25027C28.9239 8.70065 27.2508 9.92222 25.3751 10.854C22.799 12.1338 20.5139 12.6708 16.9757 12.8277C14.9634 12.9169 14.7574 12.952 14.4417 13.2601C14.1574 13.5376 14.0979 13.7526 14.0979 14.5035V15.4116L16.9128 15.3273C18.8818 15.2685 20.1873 15.1514 21.2571 14.9378C25.4126 14.1081 29.2207 12.0973 31.8877 9.32425C32.4656 8.72321 33.3182 7.83476 33.7822 7.34989C35.7226 5.3219 38.656 4.784 41.2012 5.98945C42.1925 6.45894 42.6718 6.87497 44.5416 8.88904C46.7136 11.2283 49.6465 13.1239 52.7267 14.1792C54.9451 14.9393 56.7906 15.2337 59.9234 15.3273L62.7382 15.4116V14.5035C62.7382 13.7526 62.6787 13.5376 62.3944 13.2601C62.0781 12.9515 61.8732 12.9169 59.821 12.8259C58.5862 12.7711 56.9186 12.5933 56.0838 12.4273C52.3757 11.6899 49.0472 9.88721 46.5248 7.25027C43.853 4.45718 42.8359 3.7243 40.8361 3.1508C39.9822 2.90587 38.0518 2.74854 37.2921 2.86207ZM37.7164 7.9102C36.8113 8.07354 36.2423 8.40226 35.5238 9.17703C32.0717 12.8999 29.8506 14.5586 26.4081 15.9848C23.3417 17.2553 21.1051 17.6892 16.977 17.8143L14.0763 17.9022L14.1331 24.435C14.186 30.5325 14.2125 31.0745 14.5303 32.5711C15.9817 39.4068 19.6138 44.8751 25.1664 48.584C29.6359 51.5693 35.5279 53.2056 40.0703 52.7229C50.074 51.66 58.2502 45.2146 61.3754 35.9278C62.5731 32.3688 62.6391 31.7963 62.7032 24.4124L62.7601 17.8571L60.9101 17.8569C55.0484 17.8566 50.8213 16.6904 46.5309 13.8901C45.2355 13.0446 42.9769 11.0078 41.2884 9.16238C40.3242 8.10869 39.064 7.66689 37.7164 7.9102ZM3.96484 15.5975C3.27907 15.9464 3.02206 16.224 2.75649 16.9024C2.54811 17.4347 2.52124 18.1156 2.56778 21.682C2.62137 25.7892 2.62723 25.8552 3.04037 27.0126C4.07142 29.8997 6.42222 32.4076 9.45788 33.8587C10.5142 34.3635 12.3208 35.0212 12.4105 34.9336C12.4336 34.9112 12.3443 34.4381 12.2122 33.8824C11.6392 31.4736 11.5518 29.9845 11.5488 22.5813L11.5458 15.3668L7.98036 15.3676C5.04048 15.3684 4.33594 15.4088 3.96484 15.5975ZM65.2903 22.3969C65.2903 29.5957 65.2004 31.2492 64.6811 33.5933C64.5218 34.3122 64.4107 34.9191 64.4341 34.9421C64.4577 34.965 65.0223 34.7994 65.6889 34.5742C69.5303 33.2763 72.5749 30.4366 73.7962 27.0126C74.2087 25.8556 74.2149 25.7876 74.2683 21.682C74.3299 16.9633 74.2637 16.5706 73.2831 15.8403L72.7456 15.44L69.0179 15.3962L65.2903 15.3524V22.3969ZM0.052448 21.153C0.0525981 23.4895 0.0733152 24.4249 0.0985361 23.2316C0.123757 22.0383 0.123757 20.1266 0.098386 18.9834C0.0731651 17.8402 0.052448 18.8166 0.052448 21.153ZM21.454 21.6212C20.9173 21.8163 20.5533 22.308 20.5533 22.8377C20.5533 23.6959 20.9751 23.9621 22.7343 24.2133C31.3371 25.4427 40.745 25.6252 49.6504 24.7358C55.6558 24.1361 56.2828 23.9603 56.2828 22.8757C56.2828 21.6272 55.7693 21.4563 53.1092 21.8199C47.0615 22.6463 40.3386 22.9664 34.3398 22.7133C29.7185 22.5185 25.3116 22.1187 22.0545 21.5991C21.8481 21.5661 21.5779 21.5761 21.454 21.6212ZM20.8909 29.4641C20.4357 29.9369 20.4371 30.7369 20.8938 31.1556C21.7424 31.9336 28.2414 33.3236 33.3889 33.8281C35.519 34.0368 41.3027 34.0355 43.5223 33.8259C48.4127 33.3637 55.0949 31.9249 55.9451 31.1509C56.4183 30.7202 56.4052 29.8859 55.9183 29.4396C55.4572 29.0168 54.8909 29.0603 52.57 29.6968C50.4694 30.273 47.7908 30.8027 45.2487 31.1447C43.708 31.352 42.2857 31.4072 38.4931 31.4072C32.4952 31.4072 29.8973 31.1069 24.9069 29.8366C21.8365 29.0552 21.3299 29.0082 20.8909 29.4641ZM20.842 38.2076C20.0238 39.006 20.3299 39.7645 21.7366 40.4242C25.6036 42.2374 30.5103 43.5217 35.1153 43.926C41.7214 44.5058 48.7696 43.2867 54.9658 40.4926C55.918 40.0632 56.433 39.537 56.433 38.9936C56.433 38.551 55.6708 37.7795 55.2335 37.7795C55.0565 37.7795 54.1523 38.1082 53.2241 38.51C43.7268 42.6212 32.8249 42.575 23.3108 38.3834C22.5567 38.0512 21.7915 37.7795 21.6103 37.7795C21.4291 37.7795 21.0834 37.9721 20.842 38.2076Z" fill="white"/>
</svg>
