<svg width="1992" height="796" viewBox="0 0 1992 796" fill="none" xmlns="http://www.w3.org/2000/svg">
<path d="M-141.882 -203.58C-131.655 -207.631 -120.9 -210.141 -109.571 -210.978C-118.696 -220.974 -127.82 -231.102 -136.989 -241.406C-152.637 -246.558 -167.096 -248.584 -180.54 -247.747C-167.581 -232.775 -154.665 -217.979 -141.882 -203.58ZM-68.4005 -167.384C-58.3062 -170.73 -47.7711 -172.888 -36.7952 -173.813C-47.0658 -184.469 -57.3805 -195.302 -67.7834 -206.354C-81.9331 -209.877 -95.3334 -211.154 -107.984 -210.361C-94.7163 -195.698 -81.4923 -181.387 -68.4005 -167.384ZM-97.317 -153.997C-88.3247 -159.413 -78.9356 -163.817 -69.194 -167.119C-82.3298 -181.211 -95.5979 -195.61 -108.91 -210.229C-120.283 -209.437 -131.082 -206.971 -141.309 -202.92C-126.542 -186.275 -111.907 -169.938 -97.317 -153.997ZM-123.324 -134.666C-115.213 -141.888 -106.794 -148.229 -97.9782 -153.557C-112.569 -169.585 -127.247 -185.922 -142.058 -202.611C-151.668 -198.736 -160.836 -193.54 -169.52 -187.023C-154.004 -169.189 -138.62 -151.795 -123.324 -134.666ZM5.91837 -131.187C15.7041 -134.005 25.8425 -135.987 36.2895 -137C24.7405 -148.229 13.1475 -159.59 1.4222 -171.259C-11.3169 -173.416 -23.4389 -173.989 -35.1201 -173.152C-21.3231 -158.841 -7.65828 -144.882 5.91837 -131.187ZM-23.2626 -119.738C-14.094 -124.318 -4.66083 -128.061 5.08084 -130.923C-8.58395 -144.662 -22.2928 -158.709 -36.134 -173.02C-47.1539 -172.183 -57.6891 -170.026 -67.8275 -166.679C-52.8403 -150.739 -37.9853 -135.062 -23.2626 -119.738ZM-50.4159 -103.313C-41.8643 -109.478 -33.0484 -114.85 -23.9679 -119.43C-38.7347 -134.754 -53.6337 -150.474 -68.6209 -166.503C-78.4067 -163.244 -87.7957 -158.841 -96.788 -153.425C-81.2278 -136.295 -65.7557 -119.606 -50.4159 -103.313ZM-75.7178 -82.2647C-67.7393 -89.8386 -59.4964 -96.708 -50.9889 -102.829C-66.3288 -119.166 -81.8008 -135.899 -97.4052 -152.984C-106.177 -147.656 -114.64 -141.315 -122.751 -134.093C-106.971 -116.436 -91.278 -99.1299 -75.7178 -82.2647ZM-99.3447 -57.0768C-91.8952 -65.9278 -84.2252 -74.2063 -76.2908 -81.7363C-91.8511 -98.6015 -107.544 -115.951 -123.368 -133.609C-131.347 -126.475 -138.973 -118.461 -146.378 -109.654C-130.553 -91.7321 -114.905 -74.2063 -99.3447 -57.0768ZM-121.473 -28.1901C-114.464 -38.186 -107.279 -47.6534 -99.8296 -56.5044C-115.346 -73.6339 -131.038 -91.1597 -146.819 -109.082C-154.092 -100.363 -161.057 -90.8514 -167.801 -80.6794C-152.241 -62.8013 -136.813 -45.2756 -121.473 -28.1901ZM-142.279 3.99921C-135.667 -7.05348 -128.922 -17.5778 -121.914 -27.5736C-137.253 -44.6591 -152.681 -62.1408 -168.242 -80.0189C-174.898 -69.8909 -181.289 -59.1024 -187.505 -47.6975C-172.297 -30.0836 -157.222 -12.8661 -142.279 3.99921ZM81.207 -95.1668C90.5519 -97.6328 100.073 -99.4382 109.859 -100.539C96.8554 -112.164 83.8077 -124.01 70.6719 -136.163C59.4315 -137.22 48.5878 -137.264 38.0527 -136.339C52.5109 -122.292 66.9251 -108.509 81.207 -95.1668ZM52.2023 -85.259C61.3269 -89.1341 70.7159 -92.3486 80.3254 -94.9026C65.9994 -108.333 51.5852 -122.16 37.0388 -136.251C26.5478 -135.282 16.4094 -133.345 6.57956 -130.527C21.8753 -115.115 37.127 -99.9666 52.2023 -85.259ZM24.3438 -71.0799C33.1598 -76.32 42.1962 -80.9436 51.453 -84.9068C36.3335 -99.6143 21.0819 -114.806 5.74205 -130.262C-4.04372 -127.4 -13.5209 -123.657 -22.6895 -119.122C-6.86484 -102.785 8.82764 -86.7122 24.3438 -71.0799ZM-2.3246 -52.9376C6.13876 -59.4547 14.8225 -65.3994 23.6826 -70.7276C8.12236 -86.3159 -7.57011 -102.433 -23.3948 -118.813C-32.5194 -114.234 -41.3354 -108.862 -49.8869 -102.741C-33.93 -85.7434 -18.0612 -69.0983 -2.3246 -52.9376ZM-27.8469 -31.0524C-19.7362 -38.7584 -11.4492 -45.892 -2.94171 -52.4532C-18.6342 -68.658 -34.503 -85.3031 -50.504 -102.256C-59.0115 -96.1356 -67.2544 -89.2221 -75.2329 -81.6922C-59.32 -64.4306 -43.4953 -47.5213 -27.8469 -31.0524ZM-52.135 -5.77649C-44.3769 -14.5394 -36.4866 -22.8179 -28.3759 -30.568C-44.0243 -47.037 -59.849 -63.9463 -75.7619 -81.2078C-83.6963 -73.6339 -91.3662 -65.3994 -98.8157 -56.5484C-83.1673 -39.2428 -67.563 -22.2454 -52.135 -5.77649ZM-75.3652 22.5818C-67.9597 12.8502 -60.378 3.60294 -52.664 -5.20401C-68.092 -21.673 -83.6963 -38.6703 -99.3447 -55.9319C-106.75 -47.081 -113.979 -37.6576 -120.988 -27.6177C-105.648 -10.5322 -90.4405 6.28903 -75.3652 22.5818ZM-97.5374 53.7584C-90.4405 43.1901 -83.2114 32.974 -75.85 23.1983C-90.9254 6.86148 -106.133 -9.91573 -121.429 -27.0012C-128.393 -17.0053 -135.138 -6.48103 -141.75 4.57166C-126.895 21.3048 -112.128 37.7298 -97.5374 53.7584ZM-118.784 87.4009C-111.952 76.0399 -105.031 65.0312 -97.9341 54.3749C-112.569 38.3463 -127.291 21.9654 -142.146 5.23218C-148.714 16.2408 -155.062 27.7779 -161.321 39.7554C-147.039 55.9601 -132.845 71.8566 -118.784 87.4009ZM-139.281 123.289C-132.713 111.224 -126.013 99.4664 -119.225 88.0614C-133.286 72.5172 -147.436 56.6647 -161.718 40.4599C-167.933 52.3933 -173.972 64.767 -179.879 77.5371C-166.214 93.1254 -152.681 108.361 -139.281 123.289ZM157.73 -59.5428C166.326 -61.6564 175.097 -63.3738 184.002 -64.6068C169.411 -76.4521 154.732 -88.6057 139.922 -101.156C130.268 -101.42 120.835 -101.023 111.622 -100.011C127.094 -86.1397 142.478 -72.6211 157.73 -59.5428ZM129.431 -50.8239C138.379 -54.1265 147.503 -56.9888 156.804 -59.3226C141.553 -72.4449 126.125 -86.0076 110.608 -99.8785C100.779 -98.7777 91.2132 -96.9722 81.8241 -94.5503C97.8692 -79.5345 113.694 -65.0031 129.431 -50.8239ZM101.219 -38.4942C110.212 -42.9858 119.336 -47.0369 128.681 -50.5157C112.945 -64.6948 97.0317 -79.2703 81.0307 -94.2861C71.4212 -91.7321 62.0322 -88.5616 52.8636 -84.6866C69.085 -68.8781 85.2183 -53.466 101.219 -38.4942ZM73.4489 -22.7298C82.2649 -28.3663 91.3013 -33.5183 100.47 -38.1419C84.4689 -53.1137 68.3356 -68.5258 52.0701 -84.3343C42.8133 -80.3712 33.7328 -75.7475 24.9169 -70.5074C41.2265 -54.1706 57.4038 -38.23 73.4489 -22.7298ZM46.4279 -3.66281C55.0676 -10.3561 63.8395 -16.565 72.8318 -22.3335C56.7867 -37.8337 40.6093 -53.8183 24.2997 -70.1551C15.3956 -64.827 6.71181 -58.9263 -1.75156 -52.4092C14.3817 -35.72 30.4709 -19.4712 46.4279 -3.66281ZM20.2003 18.5306C28.5755 10.8686 37.127 3.60291 45.8108 -3.17844C29.8538 -18.9869 13.8087 -35.2357 -2.41275 -51.9248C-10.9202 -45.3636 -19.2072 -38.186 -27.3179 -30.5239C-11.3169 -13.7467 4.46373 2.59012 20.2003 18.5306ZM-5.23387 43.4983C2.92093 34.9116 11.208 26.7651 19.6272 19.015C3.93477 3.07449 -11.89 -13.2183 -27.8469 -29.9955C-35.9576 -22.2454 -43.892 -13.9669 -51.606 -5.20401C-36.0458 11.4411 -20.5737 27.6018 -5.23387 43.4983ZM-29.8746 71.108C-21.9843 61.7287 -13.9176 52.7015 -5.76283 44.0707C-21.1027 28.2183 -36.5307 12.0576 -52.135 -4.63156C-59.8931 4.17535 -67.4308 13.4226 -74.8362 23.1543C-59.7168 39.5352 -44.7296 55.4757 -29.8746 71.108ZM-53.7659 101.052C-46.096 90.9236 -38.2939 81.1039 -30.3595 71.6805C-45.2144 56.0482 -60.2016 40.1076 -75.3211 23.7708C-82.7265 33.5024 -89.9556 43.7185 -97.0084 54.3308C-82.5061 70.1833 -68.0479 85.8596 -53.7659 101.052ZM-76.952 133.065C-69.5025 122.32 -61.9208 111.84 -54.2508 101.668C-68.5328 86.4761 -82.9469 70.8438 -97.4492 54.9473C-104.546 65.5597 -111.467 76.5683 -118.299 87.9733C-104.414 103.297 -90.6168 118.357 -76.952 133.065ZM-99.521 166.971C-92.2478 155.611 -84.8424 144.514 -77.3928 133.681C-91.0576 118.974 -104.811 103.958 -118.696 88.6338C-125.528 100.039 -132.184 111.796 -138.752 123.862C-125.572 138.525 -112.525 152.924 -99.521 166.971ZM-121.649 202.64C-114.508 190.75 -107.279 179.081 -99.9618 167.632C-112.921 153.541 -125.969 139.186 -139.149 124.566C-145.717 136.676 -152.197 149.137 -158.544 161.819C-146.158 175.69 -133.859 189.297 -121.649 202.64ZM235.84 -24.4912C243.51 -26.3407 251.268 -27.9259 259.158 -29.2029C242.628 -41.0482 225.966 -53.2899 209.171 -66.0159C201.281 -65.7076 193.523 -65.0031 185.897 -63.9903C202.647 -50.3836 219.31 -37.2172 235.84 -24.4912ZM208.73 -16.6971C217.326 -19.5593 226.054 -22.0693 234.87 -24.227C218.34 -36.997 201.634 -50.2074 184.839 -63.8582C175.891 -62.6692 167.119 -60.9959 158.479 -58.8823C175.362 -44.3949 192.112 -30.3038 208.73 -16.6971ZM180.475 -5.86453C189.467 -9.78362 198.592 -13.3064 207.893 -16.4328C191.275 -30.0396 174.48 -44.1747 157.554 -58.7061C148.253 -56.3723 139.084 -53.5541 130.092 -50.2515C147.018 -34.9715 163.813 -20.1758 180.475 -5.86453ZM151.911 8.00638C161.036 3.07449 170.293 -1.41702 179.682 -5.51225C163.019 -19.8676 146.225 -34.6632 129.254 -49.8992C119.909 -46.4205 110.741 -42.4133 101.748 -37.9218C118.675 -22.1574 135.381 -6.87732 151.911 8.00638ZM123.568 24.7836C132.648 18.927 141.861 13.4226 151.206 8.35867C134.632 -6.52505 117.926 -21.8051 101.043 -37.6135C91.8303 -32.9899 82.838 -27.8378 73.9779 -22.2014C90.6842 -6.04068 107.214 9.59161 123.568 24.7836ZM95.6212 44.2909C104.613 37.5536 113.694 31.1686 122.951 25.1799C106.553 9.98795 90.0671 -5.6884 73.4048 -21.7611C64.4125 -16.0365 55.6406 -9.82767 47.0009 -3.1344C63.3105 13.1584 79.532 28.9228 95.6212 44.2909ZM68.1152 66.4404C76.9312 58.8664 85.8795 51.6447 94.96 44.7753C78.8708 29.4072 62.6934 13.5988 46.3397 -2.60599C37.6119 4.17535 29.1044 11.397 20.6852 19.1031C36.6421 35.2198 52.4668 51.0723 68.1152 66.4404ZM41.2264 90.8356C49.8661 82.557 58.638 74.5428 67.5422 66.9247C51.8938 51.6007 36.0691 35.7482 20.1562 19.5875C11.6928 27.3376 3.40581 35.484 -4.70491 44.0707C10.7231 60.0113 26.0629 75.6436 41.2264 90.8356ZM14.9107 117.432C23.374 108.449 31.9696 99.7306 40.6534 91.364C25.4899 76.172 10.1501 60.5397 -5.27795 44.5992C-13.4768 53.23 -21.4994 62.2571 -29.3897 71.6365C-14.4466 87.2688 0.276123 102.505 14.9107 117.432ZM-10.9202 145.967C-2.58908 136.367 5.87428 127.032 14.4258 117.961C-0.208755 103.077 -14.9756 87.8412 -29.8305 72.2089C-37.7649 81.6764 -45.5671 91.4521 -53.237 101.58C-39.0432 116.728 -24.9376 131.524 -10.9202 145.967ZM-36.2221 176.263C-28.0673 166.135 -19.7803 156.183 -11.4051 146.539C-25.4225 132.096 -39.484 117.344 -53.7219 102.197C-61.3918 112.368 -68.9735 122.849 -76.4231 133.593C-62.9346 148.125 -49.5343 162.348 -36.2221 176.263ZM-61.1273 208.144C-53.0607 197.532 -44.95 187.095 -36.707 176.879C-49.9751 162.964 -63.3754 148.741 -76.8639 134.254C-84.3575 145.086 -91.7188 156.227 -98.992 167.544C-86.297 181.327 -73.646 194.889 -61.1273 208.144ZM-85.6799 241.478C-77.7014 230.425 -69.6788 219.505 -61.5681 208.76C-74.0868 195.506 -86.6937 181.987 -99.4328 168.204C-106.75 179.653 -113.979 191.323 -121.12 203.212C-109.219 216.246 -97.4492 228.928 -85.6799 241.478ZM316.242 9.59161C322.721 8.05042 329.201 6.64133 335.769 5.36432C316.815 -6.21681 297.684 -18.3264 278.377 -31.0083C272.558 -30.4359 266.828 -29.6432 261.098 -28.7626C279.655 -15.4641 298.037 -2.65002 316.242 9.59161ZM290.675 16.6372C298.786 14.1272 306.941 11.8814 315.228 9.85583C297.023 -2.42984 278.597 -15.2439 260.04 -28.5864C252.149 -27.3094 244.347 -25.7242 236.633 -23.8747C254.794 -9.87169 272.823 3.60291 290.675 16.6372ZM262.684 26.3688C271.633 22.9341 280.625 19.7636 289.794 16.9014C271.897 3.8671 253.868 -9.60748 235.663 -23.6545C226.803 -21.4968 218.075 -18.9869 209.436 -16.1246C227.332 -1.46109 245.096 12.7181 262.684 26.3688ZM233.592 38.7866C242.892 34.4272 252.326 30.42 261.847 26.7211C244.259 13.0704 226.495 -1.15283 208.554 -15.8164C199.253 -12.6899 190.129 -9.16713 181.092 -5.29208C198.768 9.89987 216.268 24.6074 233.592 38.7866ZM204.102 53.7584C213.579 48.5623 223.145 43.6744 232.842 39.1389C215.519 24.9157 198.019 10.2081 180.343 -4.98383C170.954 -0.888611 161.653 3.60291 152.528 8.53479C169.896 24.079 187.087 39.1829 204.102 53.7584ZM174.524 71.1521C184.046 65.1634 193.655 59.4829 203.353 54.1547C186.338 39.5352 169.147 24.4753 151.823 8.93109C142.478 13.9951 133.265 19.4994 124.141 25.356C141.112 41.0323 157.906 56.3564 174.524 71.1521ZM145.167 90.7915C154.644 84.0983 164.21 77.6252 173.863 71.5484C157.245 56.7527 140.451 41.4727 123.524 25.7523C114.267 31.7411 105.142 38.082 96.1942 44.8634C112.636 60.5837 128.99 75.9519 145.167 90.7915ZM116.162 112.545C125.507 105.191 134.985 98.0573 144.55 91.2759C128.373 76.4362 112.019 61.0681 95.5771 45.3037C86.4966 52.1731 77.5484 59.3948 68.6883 66.9688C84.6452 82.6011 100.47 97.749 116.162 112.545ZM87.4223 136.235C96.6791 128.221 106.068 120.471 115.545 113.029C99.8528 98.2334 84.0722 83.0855 68.1152 67.4532C59.2111 75.1152 50.4392 83.0855 41.7995 91.364C57.1393 106.688 72.3469 121.66 87.4223 136.235ZM59.0788 161.687C68.2475 153.145 77.4602 144.822 86.8492 136.72C71.7739 122.144 56.5663 107.216 41.2264 91.8924C32.4986 100.259 23.9471 108.978 15.4397 117.961C30.1183 132.845 44.6647 147.464 59.0788 161.687ZM31.088 188.725C40.1245 179.698 49.2931 170.847 58.5058 162.216C44.0916 148.037 29.5452 133.417 14.9107 118.533C6.35916 127.605 -2.1042 136.94 -10.4353 146.539C3.53804 160.939 17.3792 174.942 31.088 188.725ZM3.40581 217.215C12.3981 207.704 21.4345 198.368 30.5591 189.253C16.8502 175.514 3.05316 161.467 -10.9202 147.112C-19.2954 156.799 -27.5824 166.707 -35.7372 176.835C-22.5573 190.574 -9.50964 204.049 3.40581 217.215ZM-23.9679 246.982C-15.0637 237.119 -6.11546 227.343 2.92093 217.788C-9.99451 204.621 -23.0422 191.147 -36.134 177.452C-44.3769 187.668 -52.4876 198.104 -60.5543 208.76C-48.3 221.707 -36.0899 234.477 -23.9679 246.982ZM-51.2093 277.851C-42.3933 267.635 -33.4892 257.507 -24.4968 247.511C-36.6188 235.005 -48.7849 222.279 -61.0832 209.289C-69.194 220.033 -77.2606 230.91 -85.195 242.007C-73.7783 254.204 -62.4497 266.094 -51.2093 277.851ZM400.17 42.2213C405.063 40.9883 410 39.8434 414.937 38.7866C392.72 27.91 370.284 16.373 347.582 4.08728C344.32 4.61572 341.059 5.18814 337.841 5.76059C358.867 18.5747 379.629 30.6842 400.17 42.2213ZM376.455 48.6944C383.948 46.4486 391.486 44.379 399.112 42.4855C378.527 30.9484 357.765 18.7949 336.783 5.98077C330.171 7.21375 323.647 8.62286 317.123 10.1641C337.091 23.6387 356.883 36.4528 376.455 48.6944ZM348.861 57.6775C357.677 54.551 366.537 51.6447 375.485 49.0027C355.87 36.761 336.078 23.9029 316.109 10.4723C307.822 12.4979 299.579 14.7437 291.469 17.2537C310.776 31.2567 329.906 44.7753 348.861 57.6775ZM319.239 69.0384C328.716 65.1193 338.326 61.4204 347.979 57.9857C329.025 45.0836 309.894 31.5209 290.543 17.4738C281.374 20.3361 272.338 23.4626 263.39 26.9413C282.168 41.5168 300.814 55.6078 319.239 69.0384ZM288.603 82.6891C298.433 78.0215 308.351 73.574 318.401 69.3907C299.976 55.9161 281.374 41.825 262.596 27.2495C253.031 30.9484 243.598 34.9996 234.297 39.315C252.546 54.2868 270.663 68.7742 288.603 82.6891ZM257.571 98.4536C267.577 93.0813 277.672 87.9293 287.854 83.0414C269.913 69.1265 251.797 54.6831 233.503 39.6673C223.806 44.2029 214.196 49.0907 204.719 54.2868C222.483 69.5228 240.115 84.2304 257.571 98.4536ZM226.318 116.2C236.413 110.167 246.595 104.354 256.866 98.8499C239.41 84.6267 221.822 69.9191 204.014 54.6831C194.272 60.0113 184.663 65.6918 175.141 71.6805C192.333 86.9605 209.436 101.844 226.318 116.2ZM195.198 135.751C205.248 129.146 215.387 122.761 225.613 116.596C208.73 102.241 191.671 87.4009 174.436 72.0768C164.739 78.1976 155.173 84.6267 145.696 91.3199C162.402 106.644 178.844 121.352 195.198 135.751ZM164.166 157.02C174.216 149.842 184.354 142.885 194.537 136.191C178.183 121.836 161.741 107.084 145.079 91.8043C135.514 98.6297 126.036 105.719 116.691 113.073C132.648 128.089 148.517 142.796 164.166 157.02ZM133.398 179.786C143.36 172.168 153.41 164.726 163.548 157.46C147.9 143.281 132.031 128.573 116.118 113.513C106.641 120.999 97.2521 128.749 87.9953 136.72C103.247 151.515 118.366 165.827 133.398 179.786ZM102.718 204.005C112.636 195.902 122.686 187.976 132.781 180.27C117.793 166.311 102.674 152 87.4223 137.292C78.0773 145.35 68.8205 153.717 59.6519 162.26C74.1101 176.483 88.4802 190.442 102.718 204.005ZM72.3469 229.413C82.2208 220.958 92.1388 212.635 102.145 204.489C87.9071 190.926 73.537 176.967 59.0788 162.744C49.822 171.375 40.6975 180.226 31.617 189.253C45.3259 202.948 58.8584 216.334 72.3469 229.413ZM42.0199 256.01C51.8497 247.203 61.7677 238.484 71.7298 229.897C58.2854 216.819 44.7088 203.476 31.088 189.781C21.9635 198.941 12.883 208.276 3.93477 217.743C16.718 230.778 29.413 243.548 42.0199 256.01ZM11.9133 283.531C21.699 274.416 31.5729 265.433 41.4909 256.494C28.884 244.032 16.189 231.306 3.44989 218.272C-5.58652 227.827 -14.5348 237.603 -23.4389 247.467C-11.5814 259.753 0.187973 271.774 11.9133 283.531ZM-18.1493 311.89C-8.36356 302.554 1.46628 293.219 11.3843 284.016C-0.296921 272.258 -12.1104 260.237 -23.9238 248.039C-32.9161 258.035 -41.8203 268.163 -50.6363 278.379C-39.7485 289.784 -28.9489 300.925 -18.1493 311.89ZM500.232 76.9206C520.905 81.9846 541.402 86.6082 561.767 90.8356C515.659 76.7445 468.582 60.1434 420.535 40.636C447.424 53.6703 474.004 65.7798 500.232 76.9206ZM467.965 78.4619C473.96 76.7004 479.955 75.0271 485.994 73.3979L486.082 73.3538L486.17 73.3979C489.3 74.1905 492.385 74.9831 495.515 75.7317C469.375 64.5028 442.883 52.3933 416.083 39.271C411.102 40.3278 406.121 41.5168 401.184 42.7057C423.709 55.3877 445.969 67.277 467.965 78.4619ZM440.547 87.0926C449.275 84.1423 458.047 81.4121 466.907 78.7701C444.867 67.5853 422.607 55.6519 400.082 43.0139C392.456 44.9074 384.874 46.9771 377.336 49.2228C398.627 62.5213 419.697 75.1592 440.547 87.0926ZM410.22 97.9692C419.962 94.2703 429.748 90.7475 439.577 87.4449C418.728 75.4675 397.657 62.8736 376.323 49.5311C367.33 52.2172 358.426 55.0794 349.61 58.2059C370.063 72.1208 390.252 85.3753 410.22 97.9692ZM378.35 110.827C388.621 106.468 398.936 102.285 409.339 98.3215C389.37 85.6835 369.182 72.4291 348.773 58.5141C339.075 61.9488 329.51 65.6477 319.988 69.5668C339.648 83.9662 359.087 97.6609 378.35 110.827ZM345.599 125.579C356.178 120.603 366.801 115.803 377.513 111.18C358.25 98.0132 338.81 84.3185 319.151 69.9191C309.101 74.1024 299.183 78.5059 289.309 83.2176C308.263 97.8811 327.041 112.016 345.599 125.579ZM312.495 141.96C323.206 136.411 333.962 131.083 344.805 125.975C326.248 112.457 307.47 98.2774 288.559 83.6139C278.377 88.4577 268.283 93.6097 258.232 98.982C276.481 113.822 294.598 128.133 312.495 141.96ZM279.126 159.882C289.926 153.849 300.814 147.993 311.745 142.312C293.849 128.529 275.776 114.218 257.483 99.3343C247.212 104.883 237.03 110.651 226.935 116.684C244.523 131.612 261.891 146.011 279.126 159.882ZM245.802 179.213C256.601 172.74 267.489 166.443 278.421 160.278C261.186 146.407 243.818 132.008 226.23 117.124C216.004 123.245 205.865 129.674 195.815 136.279C212.654 151.031 229.316 165.386 245.802 179.213ZM212.477 199.821C223.277 192.952 234.165 186.171 245.096 179.609C228.611 165.783 211.948 151.427 195.11 136.676C184.883 143.413 174.745 150.37 164.695 157.504C180.828 172.08 196.697 186.171 212.477 199.821ZM179.197 221.663C189.996 214.397 200.884 207.263 211.86 200.262C196.079 186.567 180.211 172.52 164.166 157.988C154.027 165.21 143.977 172.652 133.971 180.314C149.134 194.449 164.254 208.276 179.197 221.663ZM146.005 244.428C156.76 236.855 167.604 229.413 178.492 222.059C163.593 208.716 148.473 194.845 133.31 180.754C123.215 188.504 113.209 196.431 103.247 204.489C117.661 218.228 131.899 231.438 146.005 244.428ZM112.856 268.163C123.612 260.325 134.456 252.531 145.387 244.869C131.238 231.879 117.044 218.668 102.674 204.973C92.6678 213.12 82.7498 221.442 72.8759 229.897C86.3203 242.975 99.6324 255.745 112.856 268.163ZM79.7083 292.734C90.5079 284.632 101.352 276.574 112.239 268.603C99.0153 256.186 85.7032 243.416 72.3028 230.425C62.2967 239.012 52.4227 247.687 42.5488 256.538C55.0235 268.868 67.41 280.933 79.7083 292.734ZM46.6042 317.966C57.3597 309.688 68.2034 301.409 79.0912 293.219C66.8369 281.418 54.4504 269.352 42.0199 257.066C32.1019 265.961 22.228 274.989 12.4422 284.104C23.903 295.553 35.3197 306.87 46.6042 317.966ZM13.4561 343.727C24.2556 335.272 35.0993 326.817 46.0312 318.407C34.7467 307.354 23.3741 296.037 11.9133 284.544C1.99525 293.747 -7.83459 303.039 -17.6203 312.418C-7.21747 323.074 3.14133 333.467 13.4561 343.727ZM644.505 113.073C661.785 113.601 678.932 113.954 695.991 114.086C657.289 109.066 617.969 102.769 578.033 94.9308C600.425 101.536 622.598 107.569 644.505 113.073ZM585.262 110.431C603.908 111.532 622.421 112.324 640.847 112.941C617.396 106.996 593.681 100.435 569.702 93.2575C548.191 88.898 526.503 84.0983 504.639 78.8141C531.881 90.3072 558.77 100.787 585.262 110.431ZM540.477 113.249C545.369 111.62 550.306 110.035 555.199 108.493H555.243H555.331C564.412 109.154 573.492 109.77 582.573 110.299C555.42 100.391 527.87 89.5586 499.967 77.6692C495.339 76.5243 490.71 75.3794 486.082 74.1905C480.351 75.7317 474.665 77.3169 468.979 78.9902C493.135 91.2319 516.938 102.637 540.477 113.249ZM508.651 124.302C518.877 120.603 529.104 117.036 539.375 113.602C515.836 102.945 492.033 91.5401 467.877 79.2985C459.017 81.8965 450.201 84.6707 441.429 87.621C464.13 100.611 486.523 112.809 508.651 124.302ZM474.885 137.16C485.773 132.845 496.705 128.661 507.681 124.654C485.553 113.161 463.16 100.92 440.503 87.9293C430.629 91.2319 420.799 94.7547 411.014 98.4976C432.569 112.104 453.859 124.962 474.885 137.16ZM440.106 151.515C451.347 146.716 462.631 142.004 473.96 137.512C452.934 125.315 431.643 112.413 410.132 98.8058C399.729 102.769 389.37 106.952 379.1 111.312C399.685 125.403 420.006 138.789 440.106 151.515ZM404.754 167.236C416.215 161.952 427.72 156.844 439.269 151.868C419.168 139.142 398.847 125.711 378.262 111.664C367.551 116.244 356.883 121.043 346.304 126.019C366.008 140.463 385.491 154.113 404.754 167.236ZM369.049 184.189C380.642 178.509 392.235 173.004 403.961 167.588C384.698 154.466 365.214 140.771 345.511 126.416C334.667 131.568 323.867 136.896 313.156 142.4C331.978 156.932 350.624 170.847 369.049 184.189ZM333.168 202.287C344.805 196.255 356.531 190.354 368.3 184.585C349.875 171.243 331.229 157.328 312.407 142.84C301.431 148.521 290.587 154.378 279.743 160.41C297.772 174.898 315.536 188.857 333.168 202.287ZM297.199 221.31C308.88 214.969 320.605 208.76 332.419 202.684C314.831 189.253 297.023 175.338 279.082 160.851C268.15 166.971 257.263 173.312 246.463 179.786C263.522 194.053 280.449 207.924 297.199 221.31ZM261.186 241.17C272.911 234.565 284.636 228.048 296.45 221.663C279.699 208.32 262.817 194.449 245.714 180.138C234.738 186.699 223.85 193.48 213.05 200.35C229.272 214.397 245.317 228.004 261.186 241.17ZM225.128 261.866C236.853 255.041 248.623 248.259 260.48 241.61C244.612 228.444 228.566 214.837 212.433 200.834C201.501 207.836 190.614 214.969 179.77 222.235C195.022 235.842 210.141 248.964 225.128 261.866ZM189.027 283.223C200.796 276.177 212.609 269.176 224.467 262.263C209.48 249.404 194.404 236.238 179.153 222.631C168.265 229.941 157.421 237.427 146.622 245.001C160.86 258.035 175.009 270.805 189.027 283.223ZM152.793 305.152C164.562 297.931 176.42 290.753 188.321 283.619C174.304 271.202 160.198 258.476 145.961 245.397C135.073 253.059 124.229 260.853 113.429 268.692C126.653 281.153 139.789 293.307 152.793 305.152ZM116.471 327.566C128.284 320.212 140.186 312.858 152.132 305.549C139.128 293.703 126.036 281.55 112.812 269.132C101.881 277.102 91.0368 285.16 80.2372 293.263C92.4033 304.976 104.481 316.425 116.471 327.566ZM80.105 350.376C91.9625 342.934 103.864 335.448 115.81 328.006C103.82 316.821 91.7862 305.416 79.6201 293.747C68.7324 301.938 57.8887 310.216 47.1331 318.495C58.1972 329.283 69.1732 339.94 80.105 350.376ZM43.5186 373.406C55.4202 365.876 67.4099 358.346 79.4438 350.772C68.556 340.38 57.5801 329.768 46.5601 318.979C35.6283 327.39 24.7846 335.844 13.985 344.299C23.903 354.119 33.7328 363.85 43.5186 373.406ZM765.813 121.131C780.492 118.621 795.127 116.111 809.717 113.557C776.525 114.57 742.936 115.099 708.95 114.967C728.081 117.3 747.035 119.326 765.813 121.131ZM716.091 129.41C731.74 126.856 747.344 124.258 762.904 121.616C742.892 119.678 722.747 117.477 702.426 114.923C684.398 114.79 666.281 114.482 648.076 113.954C670.997 119.634 693.655 124.786 716.091 129.41ZM665.884 137.38C681.973 134.914 697.974 132.36 713.975 129.762C691.054 125.006 667.868 119.722 644.417 113.822C625.683 113.249 606.817 112.413 587.818 111.356C614.178 120.867 640.23 129.542 665.884 137.38ZM617.881 145.923C620.085 145.13 622.245 144.338 624.449 143.545H624.493H624.537C637.805 141.652 650.985 139.67 664.165 137.644C638.158 129.674 611.842 120.867 585.174 111.224C575.3 110.651 565.382 109.991 555.42 109.286C550.791 110.739 546.163 112.236 541.578 113.778C567.321 125.359 592.755 136.059 617.881 145.923ZM581.03 159.838C592.932 155.214 604.833 150.723 616.779 146.319C591.653 136.455 566.219 125.711 540.432 114.086C530.118 117.521 519.803 121.087 509.576 124.786C533.688 137.336 557.535 149.005 581.03 159.838ZM543.254 174.898C555.464 169.922 567.718 165.034 580.016 160.234C556.522 149.358 532.718 137.688 508.607 125.139C497.587 129.146 486.655 133.329 475.723 137.644C498.512 150.855 521.037 163.229 543.254 174.898ZM504.992 190.882C517.423 185.598 529.853 180.358 542.328 175.25C520.112 163.581 497.631 151.207 474.841 137.997C463.469 142.488 452.184 147.2 440.944 152C462.543 165.694 483.878 178.641 504.992 190.882ZM466.422 207.704C478.941 202.155 491.504 196.651 504.11 191.279C483.04 179.037 461.661 166.091 440.062 152.396C428.513 157.372 416.964 162.48 405.504 167.764C426.045 181.723 446.366 195.066 466.422 207.704ZM427.632 225.229C440.239 219.417 452.89 213.736 465.585 208.1C445.528 195.462 425.251 182.119 404.71 168.16C393.029 173.533 381.392 179.081 369.799 184.761C389.282 198.809 408.589 212.371 427.632 225.229ZM388.709 243.372C401.36 237.383 414.055 231.438 426.794 225.626C407.752 212.768 388.445 199.205 368.961 185.114C357.192 190.882 345.467 196.783 333.785 202.816C352.299 216.863 370.636 230.381 388.709 243.372ZM349.654 262.042C362.349 255.878 375.132 249.801 387.916 243.724C369.843 230.778 351.55 217.259 333.08 203.168C321.267 209.245 309.541 215.498 297.86 221.795C315.316 235.71 332.595 249.14 349.654 262.042ZM310.511 281.153C323.25 274.856 336.078 268.603 348.905 262.395C331.846 249.492 314.566 236.106 297.111 222.191C285.297 228.576 273.528 235.093 261.803 241.698C278.201 255.261 294.466 268.471 310.511 281.153ZM271.236 300.661C284.019 294.276 296.89 287.891 309.762 281.55C293.717 268.868 277.495 255.701 261.098 242.139C249.24 248.832 237.471 255.569 225.745 262.395C241.041 275.473 256.205 288.331 271.236 300.661ZM231.828 320.432C244.7 313.959 257.571 307.486 270.531 301.013C255.543 288.683 240.336 275.869 225.084 262.791C213.227 269.704 201.413 276.706 189.644 283.751C203.793 296.301 217.855 308.587 231.828 320.432ZM192.2 340.468C205.116 333.951 218.075 327.39 231.079 320.829C217.15 308.983 203.088 296.698 188.939 284.148C177.037 291.281 165.179 298.459 153.41 305.681C166.414 317.526 179.373 329.195 192.2 340.468ZM152.44 360.592C161.433 356.056 170.425 351.521 179.417 346.941L191.495 340.82C178.668 329.547 165.752 317.922 152.705 306.077C140.759 313.387 128.902 320.741 117.044 328.094C128.946 339.191 140.715 350.024 152.44 360.592ZM112.372 380.804C125.419 374.243 138.555 367.637 151.691 360.988C140.01 350.42 128.24 339.587 116.383 328.579C104.437 336.021 92.5356 343.462 80.678 350.948C91.3013 361.032 101.881 371.028 112.372 380.804ZM72.0384 400.928C85.2183 394.41 98.3982 387.805 111.666 381.156C101.175 371.424 90.6401 361.429 80.0168 351.301C67.983 358.875 56.0373 366.404 44.0916 373.934C53.4366 383.05 62.7816 392.121 72.0384 400.928ZM870.195 110.387C882.89 105.807 895.585 101.272 908.28 96.8683C900.081 98.3215 891.882 99.7746 883.683 101.228C862.79 104.927 841.807 108.67 820.693 112.369C837.267 111.84 853.797 111.18 870.195 110.387ZM827.526 126.063C840.926 121.043 854.326 116.111 867.682 111.268C850.271 112.06 832.771 112.765 815.183 113.337C799.755 116.023 784.283 118.71 768.767 121.352C788.559 123.245 808.13 124.786 827.526 126.063ZM785.121 142.224C798.697 136.984 812.274 131.788 825.806 126.724C805.97 125.403 786.002 123.818 765.858 121.88C750.033 124.566 734.164 127.252 718.207 129.85C740.776 134.474 763.036 138.569 785.121 142.224ZM742.716 158.869C756.38 153.453 770.045 148.081 783.71 142.796C761.406 139.098 738.881 134.914 716.091 130.203C700.002 132.845 683.825 135.399 667.603 137.909C692.949 145.615 717.987 152.572 742.716 158.869ZM700.443 175.866C714.152 170.318 727.817 164.77 741.481 159.353C716.576 153.012 691.362 145.967 665.84 138.173C652.131 140.286 638.422 142.312 624.625 144.294C622.73 144.998 620.834 145.659 618.939 146.363C646.533 157.196 673.686 166.971 700.443 175.866ZM658.126 193.172C671.879 187.492 685.588 181.855 699.341 176.307C672.584 167.412 645.431 157.592 617.881 146.76C605.891 151.163 593.946 155.655 582 160.278C607.743 172.168 633.133 183.132 658.126 193.172ZM615.853 210.83C629.606 205.061 643.359 199.293 657.112 193.612C632.119 183.529 606.729 172.608 580.986 160.675C568.688 165.474 556.389 170.362 544.135 175.338C568.379 188.064 592.271 199.865 615.853 210.83ZM573.581 228.664C587.378 222.807 601.131 216.995 614.928 211.226C591.389 200.262 567.498 188.416 543.254 175.734C530.779 180.842 518.304 186.039 505.874 191.367C528.707 204.621 551.276 217.039 573.581 228.664ZM531.22 246.718C545.017 240.818 558.814 234.917 572.655 229.06C550.395 217.391 527.826 204.973 504.948 191.719C492.341 197.091 479.778 202.596 467.216 208.144C488.815 221.795 510.149 234.609 531.22 246.718ZM488.859 264.905C502.7 258.96 516.497 253.015 530.338 247.115C509.268 234.961 487.977 222.147 466.378 208.584C453.683 214.221 441.032 219.945 428.425 225.758C448.79 239.497 468.935 252.487 488.859 264.905ZM446.322 283.223L454.476 279.7C465.629 274.9 476.781 270.101 487.977 265.301C468.053 252.883 447.953 239.893 427.544 226.11C414.804 231.967 402.065 237.911 389.414 243.9C408.633 257.595 427.544 270.673 446.322 283.223ZM403.652 301.541C417.581 295.553 431.511 289.564 445.44 283.575C426.706 271.069 407.752 257.991 388.621 244.252C375.838 250.285 363.055 256.406 350.359 262.571C368.344 276.089 386.108 289.08 403.652 301.541ZM360.939 319.816C374.912 313.871 388.841 307.882 402.859 301.894C385.271 289.432 367.551 276.486 349.61 262.923C336.783 269.132 323.956 275.385 311.216 281.682C327.923 294.892 344.497 307.53 360.939 319.816ZM318.005 338.046C332.022 332.101 346.084 326.157 360.145 320.168C343.747 307.882 327.173 295.244 310.423 282.078C297.552 288.419 284.68 294.804 271.897 301.189C287.413 313.915 302.753 326.113 318.005 338.046ZM274.806 356.188C288.912 350.288 303.018 344.387 317.167 338.398C301.96 326.465 286.62 314.267 271.104 301.541C258.188 308.014 245.273 314.488 232.401 320.961C246.683 333.114 260.789 344.739 274.806 356.188ZM231.343 374.155C245.537 368.342 259.731 362.441 274.013 356.541C259.995 345.136 245.934 333.467 231.696 321.357C218.693 327.918 205.733 334.479 192.818 340.996C205.777 352.357 218.604 363.366 231.343 374.155ZM187.572 391.901C201.854 386.176 216.18 380.363 230.55 374.507C217.811 363.718 205.028 352.754 192.112 341.393L179.726 347.646C170.822 352.181 161.917 356.673 153.057 361.164C164.65 371.645 176.155 381.861 187.572 391.901ZM143.536 409.294C157.906 403.702 172.32 397.977 186.779 392.209C175.362 382.213 163.857 371.953 152.308 361.517C139.172 368.166 126.036 374.771 112.989 381.332C123.259 390.844 133.398 400.135 143.536 409.294ZM99.1035 426.336C113.606 420.875 128.152 415.283 142.743 409.602C132.648 400.443 122.466 391.196 112.239 381.684C98.9713 388.334 85.7913 394.939 72.6114 401.5C81.5156 409.955 90.3316 418.145 99.1035 426.336ZM53.4366 443.201C46.0311 436.111 38.6698 429.154 31.2203 421.888C-39.0873 456.147 -108.028 487.764 -175.515 513.965C-101.02 495.646 -24.5409 471.339 53.4366 443.201ZM31.9697 421.536C39.4633 428.802 46.8246 435.803 54.23 442.893C68.8646 437.608 83.5873 432.192 98.31 426.6C89.5381 418.409 80.7662 410.263 71.9061 401.808C58.5499 408.502 45.2377 415.063 31.9697 421.536ZM7.28485 397.141C15.3515 405.111 23.4181 413.169 31.3966 420.963C44.6647 414.49 57.9768 407.929 71.3772 401.28C62.1644 392.473 52.8195 383.402 43.4745 374.331L39.8159 376.62C28.884 383.534 18.0844 390.359 7.28485 397.141ZM-19.3395 370.5C-10.6116 379.307 -1.92789 388.025 6.71181 396.612C17.5555 389.787 28.4432 382.917 39.4192 376.004L42.9015 373.802C33.1157 364.291 23.2859 354.559 13.412 344.739C2.43605 353.326 -8.49579 361.913 -19.3395 370.5ZM-47.727 341.613C-38.382 351.257 -29.1252 360.636 -19.8684 369.971C-9.02475 361.385 1.90709 352.798 12.8389 344.211C2.5683 333.995 -7.79051 323.559 -18.1493 312.99C-28.0673 322.458 -37.9412 332.013 -47.727 341.613ZM-77.7455 310.216C-67.8716 320.608 -58.0417 330.957 -48.3 341.04C-38.5143 331.441 -28.6404 321.885 -18.7224 312.418C-29.4779 301.453 -40.3216 290.313 -51.2093 278.952C-60.0694 289.3 -68.9295 299.736 -77.7455 310.216ZM-109.395 276.486C-98.948 287.714 -88.5892 298.811 -78.2744 309.688C-69.4584 299.164 -60.6424 288.771 -51.6942 278.423C-62.9346 266.666 -74.2632 254.821 -85.6358 242.667C-93.6143 253.808 -101.549 265.081 -109.395 276.486ZM-142.719 240.245C-131.743 252.311 -120.812 264.244 -109.924 275.913C-102.078 264.508 -94.1432 253.235 -86.1648 242.095C-97.89 229.589 -109.659 216.907 -121.561 203.917C-128.658 215.806 -135.711 227.96 -142.719 240.245ZM-177.675 201.407C-166.126 214.397 -154.665 227.123 -143.204 239.673C-136.24 227.387 -129.143 215.277 -122.002 203.344C-134.212 190.002 -146.466 176.395 -158.853 162.568C-165.244 175.25 -171.504 188.196 -177.675 201.407ZM-192.001 -261.001C-188.386 -256.818 -184.772 -252.679 -181.201 -248.496C-167.492 -249.42 -152.681 -247.395 -136.725 -242.11L-136.636 -242.066L-136.592 -241.978C-127.247 -231.498 -117.946 -221.238 -108.69 -211.022C-95.7742 -211.903 -82.1094 -210.626 -67.563 -207.015L-67.4748 -206.971L-67.3867 -206.883C-56.8075 -195.654 -46.3164 -184.645 -35.8695 -173.813C-23.9238 -174.693 -11.4491 -174.165 1.59853 -171.963H1.73076L1.81892 -171.875C13.7205 -160.03 25.5339 -148.449 37.2592 -137.044C48.1029 -138.013 59.2552 -138.013 70.8041 -136.912H70.9363L71.0245 -136.824C84.3808 -124.45 97.6488 -112.428 110.829 -100.627C120.35 -101.684 130.048 -102.124 140.01 -101.86H140.142L140.23 -101.772C155.261 -89.046 170.204 -76.7163 185.015 -64.6949C192.95 -65.7517 201.016 -66.5003 209.215 -66.8085H209.348L209.436 -66.7204C226.495 -53.8183 243.421 -41.4005 260.172 -29.335C266.211 -30.3038 272.25 -31.0964 278.377 -31.7129H278.509L278.597 -31.6248C298.169 -18.7667 317.608 -6.48103 336.827 5.23218C340.397 4.57166 343.968 3.9552 347.582 3.38275H347.715L347.803 3.42676C370.813 15.8886 393.602 27.6018 416.127 38.6105C416.347 38.5664 416.568 38.5224 416.788 38.4784H416.876L416.964 38.5224C469.067 59.8352 520.023 77.6692 569.834 92.641C614.795 101.712 658.964 108.802 702.382 114.262C740.423 114.526 777.98 113.91 815.095 112.721C838.017 108.714 860.85 104.662 883.507 100.611C893.293 98.8939 903.035 97.1325 912.776 95.4152C1325.63 -47.3892 1719.44 -87.0204 2011.96 270.277V271.466C1720.76 -84.8187 1328.85 -46.9048 917.713 94.5345C1343.57 19.0591 1721.73 -37.4814 2012 317.174V318.363C1720.76 -38.0539 1340.88 20.248 913.041 96.0316C899.64 100.655 886.24 105.411 872.84 110.255C937.858 107.172 1001.38 102.681 1063.35 98.2774C1437.02 71.8566 1754.7 49.399 2012 364.071V365.26C1754.79 50.1475 1437.11 72.6052 1063.4 99.026C1000.63 103.474 936.271 108.009 870.371 111.092C856.751 116.023 843.086 120.999 829.421 126.107C946.762 133.813 1058.2 132.36 1164.03 130.995C1498.29 126.636 1777.01 123.069 2012.04 411.012V412.201C1777.1 123.818 1498.34 127.384 1164.03 131.744C1057.67 133.109 945.66 134.606 827.702 126.724C814.037 131.832 800.372 137.072 786.663 142.356C945.263 168.513 1091.65 171.551 1227.6 174.369C1536.02 180.754 1790.67 186.039 2012.04 457.864V459.053C1790.72 186.831 1536.07 181.503 1227.6 175.162C1091.26 172.344 944.382 169.305 785.253 142.929C771.544 148.257 757.791 153.585 744.038 159.045C937.77 208.056 1111.8 215.101 1270.35 221.574C1560.93 233.376 1799.49 243.063 2012.04 504.761V505.95C1799.49 243.856 1560.93 234.124 1270.31 222.367C1111.44 215.938 937.02 208.848 742.804 159.574C729.095 165.034 715.342 170.582 701.633 176.131C926.661 250.681 1123.61 260.897 1300.15 270.101C1577.94 284.5 1805.26 296.345 2012.09 551.702V552.891C1805.31 297.138 1577.99 285.293 1300.15 270.849C1123.3 261.69 926 251.386 700.575 176.571C686.822 182.163 673.025 187.8 659.272 193.48C912.997 295.377 1129.69 307.838 1321.31 318.891C1589.76 334.347 1809.01 346.985 2012.13 598.599V599.788C1809.05 347.778 1589.8 335.096 1321.27 319.684C1129.43 308.675 912.424 296.125 658.258 193.921C644.461 199.601 630.708 205.37 616.911 211.182C897.569 341.657 1131.68 355.528 1336.3 367.637C1597.87 383.094 1811.26 395.776 2012.13 645.452V646.641C1811.3 396.524 1597.91 383.886 1336.25 368.386C1131.41 356.276 897.04 342.362 615.942 211.535C602.144 217.347 588.347 223.16 574.55 229.016C880.774 388.994 1130.62 403.57 1346.79 416.076C1603.33 430.959 1812.45 443.157 2012.13 692.261V693.45C1812.45 443.905 1603.33 431.708 1346.79 416.824C1130.44 404.274 880.289 389.699 573.669 229.369C559.828 235.225 546.031 241.126 532.19 247.071C863.01 437.3 1127.31 451.832 1353.93 464.249C1606.77 478.12 1812.8 489.481 2012.13 739.114V740.303C1812.8 490.23 1606.77 478.869 1353.88 464.998C1127.05 452.536 862.525 438.005 531.308 247.423C517.467 253.367 503.626 259.268 489.784 265.213C844.408 486.179 1122.11 500.182 1358.43 512.071C1608.67 524.665 1812.49 534.925 2012.18 785.967V787.156C1812.49 535.718 1608.67 525.414 1358.43 512.82C1121.94 500.93 843.967 486.883 488.947 265.565C477.618 270.453 466.246 275.297 454.917 280.185L447.247 283.487C825.101 535.674 1115.46 548.664 1360.81 559.584C1609.28 570.637 1811.66 579.708 2012.13 832.776V834.008C1811.61 580.501 1609.24 571.43 1360.76 560.377C1115.19 549.457 824.616 536.422 446.366 283.839C432.392 289.828 418.463 295.861 404.534 301.806C805.221 585.653 1107.57 597.19 1361.51 606.834C1608.89 616.257 1810.38 623.963 2012.13 879.628V880.861C1810.38 624.756 1608.89 617.05 1361.47 607.626C1107.3 597.939 804.736 586.446 403.696 302.158C389.723 308.147 375.706 314.135 361.776 320.124C784.856 635.941 1098.71 645.716 1360.85 653.863C1607.7 661.525 1808.79 667.778 2012.13 926.481V927.714C1808.75 668.57 1607.7 662.273 1360.85 654.655C1098.49 646.509 784.415 636.733 360.983 320.476C346.921 326.465 332.86 332.454 318.842 338.398C764.094 686.536 1089.01 694.286 1359.09 700.628C1599.23 706.264 1796.1 710.932 1995.65 952.814H1994.68C1795.43 711.68 1598.84 707.013 1359.04 701.376C1088.79 695.035 763.609 687.285 318.005 338.707C303.855 344.695 289.705 350.64 275.6 356.497C742.848 737.396 1078.52 742.813 1356.27 747.172C1580.46 750.695 1766.96 753.645 1954.52 952.814H1953.46C1766.25 754.438 1580.02 751.443 1356.22 747.921C1078.25 743.561 742.363 738.145 274.762 356.805C260.524 362.75 246.287 368.65 232.093 374.463C721.249 788.521 1067.41 791.295 1352.69 793.497C1558.99 795.082 1733.46 796.491 1907.18 952.77H1906.03C1732.71 797.24 1558.55 795.83 1352.69 794.245C1067.23 792.043 720.808 789.269 231.299 374.771C216.929 380.672 202.603 386.484 188.321 392.209C699.341 839.909 1055.77 839.821 1348.46 839.689C1533.6 839.601 1693.26 839.601 1850.36 952.814H1848.99C1692.33 840.394 1533.07 840.393 1348.46 840.482C1055.6 840.614 698.944 840.702 187.528 392.561C173.07 398.374 158.656 404.054 144.241 409.646C677.125 891.386 1043.65 888.303 1343.57 885.705C1501.38 884.34 1640.76 883.195 1776.17 952.77H1774.45C1639.57 883.944 1500.72 885.133 1343.57 886.454C1043.47 889.008 676.684 892.09 143.448 409.911C128.857 415.591 114.311 421.184 99.8087 426.644C654.556 942.862 1031.13 936.697 1338.19 931.545C1451.7 929.652 1555.68 927.934 1655.7 952.726H1652.44C1553.43 928.727 1450.46 930.4 1338.19 932.294C1030.91 937.446 654.115 943.611 98.9712 426.908C84.2044 432.456 69.5258 437.873 54.8472 443.201C404.005 777.028 683.428 905.257 919.344 952.726H915.465C680.21 904.596 401.669 775.883 54.0537 443.465C-26.0837 472.44 -104.722 497.319 -181.157 515.814C-184.772 517.223 -188.386 518.588 -192.001 519.953V519.117C-190.326 518.5 -188.695 517.884 -187.02 517.223C-188.695 517.62 -190.326 518.016 -192.001 518.412V517.619C-188.474 516.783 -184.904 515.946 -181.378 515.109C-112.216 488.557 -41.5117 456.191 30.6472 421.051C22.7128 413.301 14.6462 405.287 6.62364 397.317C-60.9951 440.118 -127.071 480.983 -192.001 516.078V515.198C-127.247 480.19 -61.3477 439.414 6.0506 397.009C-2.58908 388.466 -11.2288 379.791 -19.9566 370.984C-29.522 378.558 -39.0432 386.132 -48.5645 393.662C-97.1407 432.236 -144.835 470.062 -192.001 504.673V503.704C-144.967 469.181 -97.4492 431.444 -48.9612 393.001C-39.484 385.471 -30.0068 377.942 -20.4415 370.412C-29.6983 361.076 -38.911 351.741 -48.256 342.097C-69.5466 362.926 -90.5728 383.842 -111.467 404.627C-138.576 431.62 -165.377 458.305 -192.001 483.977V482.92C-165.553 457.38 -138.929 430.915 -111.996 404.098C-91.1458 383.358 -70.1196 362.397 -48.829 341.613C-58.5707 331.573 -68.4005 321.225 -78.2304 310.833C-106.045 344.079 -133.33 378.03 -160.263 411.628C-170.887 424.882 -181.466 438.049 -192.001 451.083V449.894C-181.642 437.08 -171.239 424.134 -160.836 411.144C-133.859 377.545 -106.618 343.594 -78.7593 310.304C-89.074 299.472 -99.4328 288.331 -109.836 277.146C-137.871 317.834 -165.112 359.975 -192.001 401.896V400.531C-165.288 358.875 -138.223 316.998 -110.365 276.574C-121.208 264.905 -132.14 253.015 -143.116 240.95C-159.778 270.233 -176 300.485 -192.001 331.089V329.503C-176.176 299.252 -160.131 269.396 -143.645 240.377C-155.062 227.827 -166.523 215.145 -178.072 202.155C-182.744 212.195 -187.372 222.367 -192.001 232.627V230.822C-187.549 220.958 -183.097 211.182 -178.556 201.539C-183.053 196.519 -187.505 191.455 -192.001 186.391V185.246C-187.417 190.442 -182.788 195.638 -178.248 200.79C-172.077 187.624 -165.817 174.678 -159.426 161.952C-170.225 149.886 -181.069 137.6 -192.001 125.139V123.994C-180.981 136.588 -169.961 149.049 -159.073 161.247C-152.726 148.565 -146.246 136.103 -139.678 123.994C-153.078 109.066 -166.611 93.8299 -180.231 78.3297C-184.243 87.0045 -188.166 95.8115 -192.045 104.839V102.989C-188.342 94.4464 -184.595 86.0358 -180.76 77.7573C-184.507 73.4859 -188.254 69.1705 -192.045 64.8551V63.7102C-188.166 68.1577 -184.287 72.6052 -180.408 77.0087C-174.501 64.2386 -168.462 51.8649 -162.247 39.9315C-172.077 28.6586 -182.039 17.2977 -192.001 5.76059V4.61572C-181.907 16.2849 -171.856 27.822 -161.85 39.1389C-155.635 27.2055 -149.243 15.6684 -142.675 4.61572C-157.618 -12.1615 -172.694 -29.379 -187.901 -46.9489C-189.268 -44.3949 -190.678 -41.7968 -192.001 -39.1547V-40.74C-190.811 -43.0298 -189.621 -45.2756 -188.386 -47.5213L-192.001 -51.7486V-52.8936L-188.034 -48.2699C-181.862 -59.6749 -175.427 -70.5074 -168.771 -80.5914C-176.485 -89.4423 -184.243 -98.3814 -192.001 -107.408V-108.553C-184.066 -99.3501 -176.22 -90.235 -168.33 -81.2078C-161.586 -91.4239 -154.621 -100.891 -147.348 -109.61C-162.115 -126.431 -177.014 -143.473 -192.001 -160.911V-162.055C-176.837 -144.398 -161.806 -127.136 -146.863 -110.183C-139.502 -118.99 -131.832 -127.004 -123.853 -134.137C-139.149 -151.267 -154.577 -168.705 -170.137 -186.539C-177.763 -180.858 -185.036 -174.121 -192.001 -166.459V-167.604C-185.213 -175.002 -178.072 -181.563 -170.666 -187.199C-177.719 -195.346 -184.86 -203.624 -192.001 -211.947V-213.092C-184.639 -204.505 -177.322 -196.006 -170.049 -187.64C-161.365 -194.157 -152.241 -199.397 -142.631 -203.272C-155.503 -217.759 -168.462 -232.643 -181.466 -247.659C-185.036 -247.439 -188.563 -246.954 -192.001 -246.294V-247.13C-188.783 -247.747 -185.477 -248.187 -182.127 -248.451C-185.433 -252.238 -188.695 -256.025 -192.001 -259.856V-261.001Z" fill="white"/>
</svg>
