<svg width="63" height="67" viewBox="0 0 63 67" fill="none" xmlns="http://www.w3.org/2000/svg">
<path fill-rule="evenodd" clip-rule="evenodd" d="M37.1526 0.289016C35.9712 0.721998 35.2099 1.80009 35.2099 3.0401L35.2097 3.69903L34.1331 4.06969C33.5409 4.27347 32.6316 4.64713 32.1124 4.89993L31.1684 5.35964L30.7077 4.95548C29.7763 4.13866 28.9457 3.90581 27.872 4.16083C27.2329 4.31246 27.0345 4.4706 25.1157 6.35846C23.9785 7.47723 22.943 8.59795 22.8147 8.84893C22.2491 9.95479 22.4113 11.1378 23.2726 12.1878L23.7561 12.7772L23.166 14.0399C22.8415 14.7344 22.4712 15.6399 22.3433 16.0523L22.1109 16.8019L21.3842 16.8031C20.3858 16.8048 19.4384 17.346 18.9343 18.2027L18.5694 18.8228L18.5276 21.6625C18.4795 24.9286 18.5745 25.4324 19.3876 26.2239C19.9997 26.8197 20.6686 27.1017 21.4695 27.1017H22.0942L22.3953 27.9818C22.5609 28.4659 22.9363 29.3725 23.2294 29.9966L23.7623 31.1314L23.3544 31.5956C23.1301 31.8507 22.8471 32.2494 22.7257 32.4815C22.428 33.0505 22.4335 34.3272 22.7362 34.9244C23.0163 35.4768 26.633 39.1601 27.1833 39.4533C28.2559 40.0249 29.4996 39.883 30.5268 39.0721L31.1893 38.5489L32.3186 39.0721C32.9397 39.3598 33.8444 39.7228 34.3289 39.8787L35.2099 40.162L35.2127 40.8353C35.2143 41.2056 35.3238 41.7464 35.456 42.0372C35.7699 42.7276 36.6445 43.4652 37.3635 43.6461C38.1065 43.8329 42.6238 43.8329 43.3668 43.6461C44.0858 43.4652 44.9604 42.7276 45.2743 42.0372C45.4065 41.7464 45.516 41.2087 45.5176 40.8423L45.5204 40.1761L46.3971 39.8886C46.8793 39.7305 47.7839 39.3644 48.4074 39.0751L49.541 38.5489L50.2035 39.0721C51.2307 39.883 52.4745 40.0249 53.547 39.4533C54.0973 39.1601 57.7141 35.4768 57.9941 34.9244C58.2968 34.3272 58.3023 33.0505 58.0046 32.4815C57.8832 32.2494 57.6002 31.8507 57.3759 31.5956L56.968 31.1314L57.5009 29.9966C57.7941 29.3725 58.1694 28.4659 58.335 27.9818L58.6361 27.1017H59.2608C60.0617 27.1017 60.7306 26.8197 61.3427 26.2239C62.1558 25.4324 62.2508 24.9286 62.2027 21.6625L62.1609 18.8228L61.796 18.2027C61.292 17.346 60.3446 16.8048 59.3461 16.8031L58.6194 16.8019L58.387 16.0523C58.2591 15.64 57.8899 14.7365 57.5666 14.0446L56.9786 12.7866L57.4995 12.1283C58.0824 11.3918 58.387 10.4089 58.2412 9.73471C58.0574 8.88465 57.6502 8.36119 55.6146 6.35846C53.6958 4.4706 53.4974 4.31246 52.8583 4.16083C51.7846 3.90581 50.954 4.13866 50.0226 4.95548L49.5619 5.35964L48.6179 4.89993C48.0987 4.64713 47.1894 4.27347 46.5972 4.06969L45.5206 3.69903L45.5204 3.02941C45.5204 2.05367 44.9806 1.08236 44.155 0.571934L43.5189 0.178847L40.5716 0.147426C38.3814 0.124219 37.5033 0.160594 37.1526 0.289016ZM37.9099 2.8053C37.8606 2.85471 37.8201 3.32719 37.8201 3.85535C37.8201 4.95795 37.6045 5.58976 37.1552 5.80475C36.9825 5.88741 36.2459 6.13669 35.5181 6.35899C34.7905 6.58128 33.5064 7.11504 32.6647 7.54529C31.8229 7.9754 30.9918 8.32742 30.8177 8.32742C30.6076 8.32742 30.197 8.04216 29.5978 7.47997C29.1011 7.01387 28.6474 6.63252 28.5897 6.63252C28.532 6.63252 27.6941 7.42404 26.7277 8.39144L24.9704 10.1504L25.7031 10.9012C26.8522 12.0786 26.9502 12.4353 26.3946 13.4141C25.6917 14.652 25.01 16.2149 24.6995 17.3005C24.1445 19.24 24.0897 19.2889 22.3543 19.3997L21.1797 19.4747V21.9518V24.429L22.3543 24.4942C24.0384 24.5877 24.1879 24.702 24.573 26.1921C24.863 27.3137 25.5866 29.0436 26.2163 30.1206C26.9439 31.3653 26.9122 31.6081 25.8782 32.708C25.4116 33.2042 25.0298 33.6594 25.0298 33.7194C25.0298 33.7795 25.8243 34.6145 26.7953 35.5749L28.5607 37.3212L29.3077 36.594C30.1312 35.792 30.4738 35.5766 30.9269 35.5756C31.0932 35.5752 31.9927 35.9549 32.9259 36.4191C33.8591 36.8834 34.7546 37.2984 34.9162 37.3412L35.2099 37.4191V34.6099V31.8007L34.6552 31.5214C31.4562 29.9106 29.0227 26.3547 28.5525 22.6037C28.0539 18.6257 29.9239 14.3713 33.2005 12.03C35.0401 10.7154 36.3031 10.5837 37.2567 11.6071C37.8166 12.2077 37.8487 12.4958 37.8293 16.7367C37.8075 21.4732 37.8586 21.7891 38.7874 22.6443C39.847 23.62 40.8838 23.6195 41.9448 22.6426C42.8727 21.7881 42.924 21.4711 42.9 16.7367C42.8785 12.4915 42.9098 12.2119 43.4736 11.6071C44.4286 10.5824 45.6868 10.7149 47.5391 12.0352C50.7799 14.3454 52.6623 18.6061 52.1828 22.5458C51.7215 26.3346 49.2955 29.8999 46.0751 31.5214L45.5204 31.8007V34.6099V37.4191L45.8141 37.3412C45.9757 37.2984 46.8713 36.8834 47.8044 36.4191C48.7376 35.9549 49.6371 35.5752 49.8034 35.5756C50.2565 35.5766 50.5991 35.792 51.4226 36.594L52.1696 37.3212L53.935 35.5749C54.9061 34.6145 55.7005 33.7795 55.7005 33.7194C55.7005 33.6594 55.3187 33.2042 54.8522 32.708C53.8181 31.6081 53.7864 31.3653 54.514 30.1206C55.1437 29.0436 55.8673 27.3137 56.1573 26.1921C56.5424 24.702 56.6919 24.5877 58.376 24.4942L59.5506 24.429V21.9518V19.4747L58.376 19.3997C56.6335 19.2885 56.5837 19.243 56.0233 17.2583C55.8409 16.6129 55.3121 15.3305 54.8478 14.4086C54.3836 13.4867 54.0038 12.6175 54.0038 12.4769C54.0038 12.0724 54.2415 11.7064 55.0272 10.9012L55.7599 10.1504L54.0026 8.39144C53.0362 7.42404 52.1983 6.63252 52.1406 6.63252C52.0829 6.63252 51.6293 7.01387 51.1325 7.47997C50.5229 8.05193 50.1242 8.32742 49.9061 8.32742C49.7283 8.32742 48.9169 7.98166 48.103 7.55924C47.2893 7.13669 46.0082 6.60292 45.2561 6.37294C42.9994 5.68298 43.019 5.70306 42.915 3.95979L42.8449 2.78639L40.4223 2.75106C39.0899 2.7315 37.9593 2.75601 37.9099 2.8053ZM34.3952 14.3911C32.9923 15.4913 31.8135 17.3249 31.3365 19.1487C31.0444 20.2658 31.0435 22.3289 31.3348 23.4512C31.8271 25.3479 33.1589 27.3496 34.6621 28.4518C35.0039 28.7025 35.7644 29.1472 36.3523 29.4403C36.9401 29.7333 37.4961 30.1043 37.588 30.2648C37.7127 30.4831 37.7713 31.8887 37.8201 35.837L37.8854 41.1173H40.3652H42.8449L42.9102 35.837C42.9604 31.7683 43.0154 30.4866 43.1498 30.251C43.2457 30.0829 43.6568 29.7958 44.0634 29.6131C47.2306 28.1897 49.1753 25.5848 49.5882 22.2126C49.9352 19.3779 48.6427 16.2459 46.3753 14.4265C45.9481 14.0837 45.5664 13.8033 45.527 13.8031C45.4874 13.8031 45.4727 15.3591 45.4939 17.261C45.5168 19.3034 45.4765 21.0226 45.3953 21.4608C44.9729 23.7431 43.2628 25.5054 41.083 25.9049C39.1193 26.2647 36.8615 25.0371 35.8667 23.0685C35.2858 21.9191 35.1912 21.043 35.2355 17.2255C35.2573 15.3431 35.2458 13.8031 35.2099 13.8033C35.174 13.8034 34.8074 14.0679 34.3952 14.3911ZM3.02929 43.6308C2.03922 43.9804 1.48375 44.4723 0.935856 45.4849C0.70328 45.9149 0.686836 46.3727 0.651336 53.4197C0.609311 61.7555 0.611921 61.7858 1.46757 62.7845C1.72168 63.081 2.2346 63.4754 2.60747 63.6611C3.2851 63.9983 3.28666 63.9985 6.68563 63.9956C9.82226 63.993 10.1316 63.9721 10.6733 63.7274C11.3896 63.404 12.0469 62.7943 12.3841 62.1406L12.6364 61.6517H14.1916H15.7469L23.0336 63.5994C27.0414 64.6706 31.1416 65.7783 32.1452 66.0608C34.5273 66.7312 35.6938 66.9185 36.9046 66.8248C38.8194 66.6766 40.3287 66.0445 42.838 64.3403C44.9417 62.9115 45.3899 62.4776 45.3899 61.8695C45.3899 61.3325 44.8539 60.6377 44.4111 60.6006C43.777 60.5474 43.5186 60.6683 42.1139 61.6749C39.5907 63.4832 37.8645 64.2592 36.3656 64.2592C35.6183 64.2592 34.2998 63.9905 32.5418 63.4798C31.8199 63.2701 27.8242 62.1862 23.6626 61.0714L16.0958 59.0441H14.4272H12.7587L12.7927 53.7313L12.8268 48.4184L14.2625 48.3532C15.5688 48.2939 15.8744 48.2268 17.6558 47.6071C18.7325 47.2326 20.1715 46.83 20.8534 46.7124C24.1487 46.1441 26.8958 47.1251 30.1851 50.045C31.6714 51.3643 31.2609 51.2777 36.3845 51.3519C40.6281 51.4133 40.9134 51.4325 41.3439 51.6851C42.5212 52.376 42.7244 54.0205 41.7598 55.0511C41.071 55.7871 41.0943 55.7847 34.4897 55.7847C27.8952 55.7847 27.8587 55.7885 27.535 56.4981C27.2867 57.0426 27.351 57.4442 27.7599 57.9013L28.1409 58.3271H34.7097H41.2788L42.1565 57.9117C43.2141 57.4112 44.0683 56.5723 44.5589 55.5523C44.8565 54.9332 44.9223 54.6081 44.9463 53.6335L44.9753 52.4601L50.2992 49.7307C54.765 47.4412 55.7293 46.9935 56.2818 46.953C57.5041 46.8633 58.4413 47.6839 58.4413 48.8437C58.4413 49.9232 58.1175 50.2747 55.2154 52.3452C52.5268 54.2633 52.355 54.4378 52.4079 55.1957C52.454 55.8547 52.9918 56.3062 53.7308 56.3062C54.144 56.3062 54.257 56.2348 57.3172 54.0405C60.4812 51.772 60.9862 51.061 60.9862 48.8747C60.9862 47.8775 60.9307 47.5163 60.7018 47.0212C59.7582 44.98 57.289 43.8698 55.1034 44.5042C54.678 44.6277 51.936 45.9592 49.0098 47.4631L43.6897 50.1977L43.1798 49.7941C42.8993 49.5722 42.3863 49.26 42.0396 49.1002C41.4369 48.8223 41.2134 48.8067 36.9534 48.7444L32.4974 48.6792L31.7981 48.0183C29.9356 46.2582 27.5361 44.8544 25.4214 44.2878C24.5082 44.0431 24.0006 43.9929 22.5501 44.0033C20.4699 44.0183 19.5835 44.1909 16.9341 45.097C15.1753 45.6986 14.9465 45.7457 13.7832 45.7457C12.5916 45.7457 12.5251 45.7309 12.4538 45.4523C12.3285 44.962 11.6534 44.2591 10.9156 43.8508L10.2165 43.4641L6.9537 43.4307C4.09533 43.4015 3.6089 43.4263 3.02929 43.6308ZM3.55448 46.3265L3.23407 46.6465V53.758C3.23407 60.6956 3.24046 60.8758 3.49509 61.1302C3.74085 61.3757 3.9301 61.3909 6.7377 61.3909C9.46047 61.3909 9.73808 61.3702 9.93528 61.1525C10.1308 60.9367 10.1512 60.2353 10.1493 53.7536C10.1482 49.8154 10.1042 46.5286 10.0514 46.4497C9.79615 46.0678 9.32252 46.0064 6.63003 46.0064C3.87867 46.0064 3.87437 46.0069 3.55448 46.3265ZM48.5593 57.1816C48.1094 57.2661 47.6087 57.9486 47.6087 58.4775C47.6087 59.5242 49.0249 60.1185 49.7628 59.3813C50.7099 58.4352 49.8877 56.932 48.5593 57.1816Z" fill="black"/>
</svg>
