<svg width="56" height="62" viewBox="0 0 56 62" fill="none" xmlns="http://www.w3.org/2000/svg">
<path fill-rule="evenodd" clip-rule="evenodd" d="M39.9081 0.259053C37.872 0.73731 36.0862 2.82973 35.8623 4.99969C35.7345 6.2387 36.1692 8.93613 36.6949 10.1654C36.77 10.3413 36.6738 10.4299 36.2653 10.5602C34.5171 11.1182 32.4562 12.5751 31.3108 14.0626C30.3965 15.25 30.0303 16.0577 28.9872 19.1893C28.0518 21.9975 27.9888 22.4016 28.419 22.8305C28.5881 22.999 28.5675 23.2136 28.2679 24.4048C27.9736 25.5745 27.8685 25.8078 27.5757 25.9408C27.2481 26.0896 27.1234 25.9938 25.1409 24.0708C23.9916 22.9562 23.0625 21.9496 23.076 21.8338C23.0897 21.7182 23.2273 21.2832 23.3819 20.8674C23.5871 20.3152 23.6642 19.7713 23.6673 18.8508C23.6698 18.1558 23.7717 17.2019 23.8945 16.7243C24.2213 15.4527 24.1095 13.8453 23.6258 12.8598C22.934 11.4502 21.4727 10.4403 19.722 10.1621C18.954 10.0399 18.8143 9.96262 18.2223 9.33163C17.8632 8.94905 17.2204 8.46502 16.7939 8.25621C16.1213 7.92697 15.8532 7.87652 14.777 7.87652C13.7227 7.87652 13.4186 7.93137 12.757 8.24054C11.1488 8.99208 10.1555 10.4477 10.0504 12.2068C9.97678 13.4402 10.1332 14.0856 10.7546 15.1144C11.0373 15.5825 11.2576 16.1652 11.3151 16.5968C11.3671 16.9879 11.5114 17.5203 11.6356 17.78C11.7598 18.0395 11.8348 18.2722 11.8022 18.2968C11.7697 18.3216 11.1862 18.709 10.5055 19.1578C9.06522 20.1075 6.77033 22.254 5.68778 23.6641C3.70235 26.2503 2.25627 29.6184 1.75237 32.831C1.64535 33.5131 0.504458 54.024 0.503906 55.2753C0.503768 55.4112 0.656154 55.674 0.842327 55.8596C1.17592 56.1923 1.21522 56.1971 3.60044 56.1971H6.01999V58.609C6.01999 60.9866 6.02482 61.0258 6.35855 61.3584C6.80633 61.8049 7.44014 61.8049 7.88792 61.3584C8.22165 61.0258 8.22648 60.9866 8.22648 58.609V56.1971H9.88134H11.5362V58.609C11.5362 60.9866 11.541 61.0258 11.8748 61.3584C12.3225 61.8049 12.9564 61.8049 13.4041 61.3584C13.7379 61.0258 13.7427 60.9866 13.7427 58.609V56.1971H15.3976H17.0524V58.609C17.0524 60.9866 17.0573 61.0258 17.391 61.3584C17.6043 61.5712 17.887 61.6959 18.1557 61.6959C18.4243 61.6959 18.707 61.5712 18.9204 61.3584C19.2541 61.0258 19.2589 60.9866 19.2589 58.609V56.1971H20.5752C21.7891 56.1971 21.918 56.1708 22.2301 55.8596L22.5687 55.5222V46.255V36.9879L23.0995 36.6378C23.7393 36.2156 24.4029 35.2537 24.7183 34.2912C24.8459 33.9018 24.9642 33.5661 24.9815 33.5452C24.9986 33.5242 25.4683 33.7871 26.0253 34.1295C26.5823 34.4718 27.1724 34.7518 27.3369 34.7518C27.5013 34.7518 28.2642 34.343 29.0321 33.8433L30.4286 32.9347L32.1873 34.2437C33.1544 34.9637 34.1166 35.63 34.3251 35.7243L34.7043 35.8957V48.4584V61.021L35.0429 61.3584C35.2562 61.5712 35.5389 61.6959 35.8076 61.6959C36.0762 61.6959 36.3589 61.5712 36.5723 61.3584L36.9108 61.021V50.3608V39.7007H42.4271H47.9433V50.3608V61.021L48.2818 61.3584C48.7296 61.8049 49.3634 61.8049 49.8112 61.3584L50.1498 61.021V51.1742C50.1498 43.35 50.1852 41.3422 50.3221 41.3994C52.1646 42.1688 53.6584 41.9613 54.7981 40.7777C55.6813 39.8606 55.6661 40.0471 55.6649 30.1636C55.6643 24.7483 55.6082 20.858 55.523 20.3175C54.9087 16.422 52.4033 13.0253 48.8777 11.3079C48.216 10.9857 47.3588 10.6412 46.9728 10.5426C46.3611 10.3863 46.2825 10.3272 46.3604 10.0822C46.8439 8.56015 46.8944 8.08176 46.7203 6.67146C46.4356 4.36417 46.1875 3.48821 45.552 2.54572C44.2762 0.65414 42.0562 -0.24546 39.9081 0.259053ZM39.8213 2.67123C39.0001 3.07924 38.3737 3.83257 38.1332 4.70152C37.9551 5.3457 38.1754 7.64777 38.529 8.83661C38.9174 10.142 40.2222 11.1042 41.6071 11.1062C42.3119 11.1073 43.486 10.4781 43.9368 9.85787C44.5716 8.98438 44.7037 8.26281 44.5101 6.7281C44.2469 4.64103 44.0157 3.9908 43.2754 3.25369C42.2616 2.24425 41.0815 2.04519 39.8213 2.67123ZM13.5778 10.2879C12.8678 10.6615 12.3439 11.3946 12.2606 12.1304C12.1482 13.125 12.3232 13.6644 13.0075 14.4324C13.6169 15.1165 13.635 15.1623 13.5569 15.8196C13.4575 16.6566 13.6797 17.2376 14.2969 17.7554L14.7507 18.136L15.5643 17.3366C16.0916 16.8184 16.554 16.1834 16.8784 15.5318C17.6085 14.0648 17.8927 13.9762 19.1811 14.813C20.0788 15.396 21.0216 15.781 21.5517 15.781C21.8586 15.781 21.879 15.7315 21.8769 14.9906C21.8724 13.4319 20.8061 12.4527 18.9142 12.2695C17.5587 12.1383 17.5006 12.1099 17.0004 11.3303C16.2129 10.1032 14.7657 9.66238 13.5778 10.2879ZM37.7383 12.4099C37.7383 12.446 37.8913 12.8808 38.0785 13.3763C38.5388 14.5958 39.2323 15.5996 40.3058 16.6005L41.203 17.4373L41.5822 17.1681C42.1627 16.7561 43.064 15.7339 43.6671 14.8037C44.2401 13.92 44.8386 12.5029 44.6981 12.3628C44.6524 12.3173 44.3863 12.4112 44.1066 12.5717C43.3961 12.9794 42.2184 13.3066 41.4617 13.3066C40.7112 13.3066 39.5033 12.9771 38.8942 12.6062C38.5097 12.372 37.7383 12.241 37.7383 12.4099ZM46.8369 13.2462C45.8536 15.824 44.6985 17.429 42.5233 19.2392C41.4481 20.134 41.2128 20.1197 39.821 19.0742C37.9214 17.6474 36.6943 16.0158 35.8808 13.8349L35.642 13.1947L35.1387 13.4839C34.3303 13.9484 32.881 15.5043 32.3817 16.4435C31.9494 17.2568 30.5138 21.2724 30.6182 21.3764C30.6444 21.4027 31.6644 21.7572 32.8848 22.1644L35.1036 22.9047L35.5359 21.611C35.9958 20.2348 36.2687 19.9051 36.9478 19.9051C37.4247 19.9051 38.0141 20.4557 38.0141 20.9012C38.0141 21.078 37.7352 22.0551 37.3943 23.0727C36.7543 24.983 36.4786 25.4039 35.8672 25.4039C35.5851 25.4039 35.5057 25.5301 35.251 26.3828C35.0901 26.9213 35.0099 27.4079 35.0727 27.4641C35.1356 27.5204 36.0248 28.2162 37.0487 29.0105C38.3044 29.9845 39.0117 30.6347 39.2214 31.0078C40.1586 32.6753 39.4091 34.8696 37.6161 35.7068L36.9108 36.0361V36.7686V37.5012H42.4271H47.9433V30.1404V22.7795L48.2818 22.4421C48.7296 21.9956 49.3634 21.9956 49.8112 22.4421C50.1234 22.7532 50.1498 22.8817 50.1498 24.0917V25.4039H51.8046H53.4595V23.3539C53.4595 20.3068 53.0623 18.6244 51.9307 16.8791C50.9102 15.3052 49.4896 14.0218 47.8454 13.1885C47.1036 12.8125 47 12.8184 46.8369 13.2462ZM18.0237 17.858C17.7615 18.246 17.2193 18.8498 16.8188 19.1999C16.3949 19.5704 16.0899 19.9523 16.0889 20.1138C16.0863 20.53 16.6998 21.3473 17.2892 21.7126C18.0666 22.1942 19.4157 22.1731 20.1829 21.6671C21.0619 21.0872 21.369 20.4682 21.4392 19.1346L21.4991 17.9992L20.9651 17.913C20.6714 17.8656 20.0898 17.7023 19.6726 17.5503C19.2555 17.3982 18.8211 17.2464 18.7073 17.2132C18.5759 17.1747 18.3268 17.4096 18.0237 17.858ZM12.3616 20.5937C8.09078 23.1524 4.96294 27.642 4.02794 32.5557C3.89707 33.243 3.63643 37.2248 3.33731 43.1068C3.07295 48.3029 2.8341 52.879 2.80665 53.2758L2.75646 53.9976H11.5594H20.3622V45.7494V37.5012H20.0425C19.4639 37.5012 18.3144 37.0885 17.8815 36.7253C17.0218 36.0043 16.8206 35.1079 17.391 34.5394C17.8298 34.1019 18.4729 34.0932 18.9001 34.5191C19.075 34.6935 19.2449 34.9161 19.2775 35.0137C19.3778 35.3137 20.5668 35.3662 21.2626 35.1013C22.3167 34.7 22.8543 33.6409 23.0447 31.59C23.1166 30.8151 22.9305 27.9183 22.8005 27.7887C22.775 27.7633 22.4736 28.0104 22.1308 28.3379C19.7355 30.6258 15.7192 29.9327 14.2403 26.9763C13.7904 26.0771 13.6495 25.2158 13.8814 24.7838C14.1146 24.3494 14.7396 24.1333 15.2275 24.3182C15.6789 24.4892 15.7513 24.5963 16.0107 25.4754C16.2415 26.2577 16.8847 26.9951 17.5963 27.293C18.1576 27.5281 19.1707 27.5444 19.7457 27.3278C20.9847 26.8611 21.7871 25.1657 21.3329 23.9748L21.2005 23.6275L20.5399 23.9301C20.025 24.166 19.6213 24.2331 18.7073 24.234C17.3157 24.2357 16.364 23.8662 15.3427 22.9276C14.6926 22.3303 13.8806 20.915 13.8806 20.379C13.8806 19.8486 13.5203 19.8995 12.3616 20.5937ZM30.6396 23.9334C30.6114 24.024 30.3343 25.1526 30.0236 26.4415C29.5372 28.4604 29.4808 28.8475 29.6163 29.2354C29.7407 29.5909 30.356 30.1221 32.5373 31.757C34.8905 33.5208 35.389 33.8382 35.8953 33.8951C36.433 33.9556 36.536 33.9157 36.9761 33.4771C37.4702 32.9845 37.5714 32.5996 37.3268 32.144C37.2521 32.0049 36.3678 31.2572 35.3616 30.4824C32.8909 28.58 32.6353 28.3299 32.6376 27.817C32.6387 27.5861 32.8183 26.8095 33.0371 26.0912C33.2558 25.373 33.3947 24.7469 33.3456 24.6999C33.2965 24.653 32.6791 24.4243 31.9735 24.1918C31.0682 23.8934 30.6757 23.8174 30.6396 23.9334ZM7.46179 25.7414L7.12323 26.0787V29.8029V33.5271L7.46179 33.8645C7.64796 34.05 7.89619 34.2019 8.01341 34.2019C8.19738 34.2019 8.22648 34.5257 8.22648 36.5689V38.936L9.63491 41.0508C11.2332 43.4508 11.9203 44.141 13.0312 44.4629C15.6101 45.2104 18.286 43.2473 17.5983 41.1127C17.5064 40.8276 16.8496 39.8144 16.1385 38.8613L14.8459 37.1283V35.6652C14.8459 34.437 14.8801 34.2019 15.059 34.2019C15.1762 34.2019 15.4245 34.05 15.6106 33.8645C15.9293 33.5468 15.9492 33.4379 15.9492 32.0024C15.9492 30.567 15.9293 30.4581 15.6106 30.1404C15.3973 29.9276 15.1146 29.8029 14.8459 29.8029C14.1418 29.8029 13.7427 30.3228 13.7427 31.2402V32.0024H11.5362H9.32972V29.0406C9.32972 26.0791 9.32972 26.0787 8.99116 25.7414C8.77782 25.5286 8.49512 25.4039 8.22648 25.4039C7.95784 25.4039 7.67513 25.5286 7.46179 25.7414ZM24.9605 27.2485C25.0152 27.3935 25.093 28.1977 25.1333 29.0356C25.1736 29.8734 25.2309 30.6827 25.261 30.8339C25.2933 30.9967 25.7155 31.3547 26.296 31.7113C27.3509 32.3594 27.3893 32.36 28.2093 31.7393L28.5407 31.4886L28.126 30.955C27.6345 30.3228 27.4199 29.7958 27.349 29.0475C27.3166 28.7038 27.2252 28.4931 27.1049 28.4842C26.9991 28.4765 26.8091 28.4607 26.6825 28.4491C26.5558 28.4377 26.0942 28.1034 25.6565 27.7065C25.2068 27.2986 24.9041 27.0994 24.9605 27.2485ZM50.1796 32.9548C50.2173 38.1135 50.2289 38.3198 50.5031 38.6856C50.9555 39.2896 51.4502 39.5881 52.1232 39.6637C52.6632 39.7245 52.7977 39.6856 53.1043 39.38L53.4595 39.0259V33.3146V27.6034H51.7999H50.1405L50.1796 32.9548ZM10.433 36.2248V38.2478L11.7005 40.1529C13.0168 42.131 13.3622 42.4505 14.184 42.4496C14.6276 42.4492 15.5389 42.0093 15.532 41.7992C15.5301 41.7413 14.8785 40.8329 14.084 39.7805L12.6395 37.8669V36.0344V34.2019H11.5362H10.433V36.2248ZM41.6624 43.3375L41.3238 43.6748V52.3479V61.021L41.6624 61.3584C42.1101 61.8049 42.744 61.8049 43.1917 61.3584L43.5303 61.021V52.3479V43.6748L43.1917 43.3375C42.9784 43.1247 42.6957 43 42.4271 43C42.1584 43 41.8757 43.1247 41.6624 43.3375Z" fill="black"/>
</svg>
