<svg width="82" height="56" viewBox="0 0 82 56" fill="none" xmlns="http://www.w3.org/2000/svg">
<path fill-rule="evenodd" clip-rule="evenodd" d="M19.9724 0.941259C18.7909 1.34537 17.792 1.97286 17.1003 2.74586C16.6739 3.22241 15.6319 5.17251 13.7423 9.031C12.2357 12.1078 10.9827 14.6252 10.9581 14.6252C10.9335 14.6252 10.5887 14.3058 10.1917 13.9153C9.78969 13.5199 9.002 12.9902 8.4132 12.719C7.44776 12.2746 7.18877 12.2269 5.41954 12.1689C3.00742 12.0898 2.24812 12.2721 1.36469 13.1423C0.582678 13.9125 0.336309 14.6658 0.340883 16.272C0.346088 18.0901 0.880941 19.132 2.15128 19.7979C2.67272 20.0713 3.14354 20.1425 4.8656 20.2081L6.94886 20.2874L6.50013 20.9955C6.25329 21.385 5.84998 22.2227 5.60408 22.857L5.15677 24.0104L5.10251 29.7143C5.05156 35.0726 5.06813 35.4951 5.37522 36.6894C5.77648 38.2503 6.43026 39.6511 7.34728 40.915L8.04349 41.8746L8.09412 45.2751C8.14128 48.4301 8.16999 48.7217 8.49222 49.3142C9.02597 50.2955 9.53953 50.8194 10.4583 51.32L11.2995 51.7782H14.8483C18.862 51.7782 19.267 51.6879 20.4424 50.5321C21.3935 49.5965 21.6848 48.7829 21.759 46.8529L21.8232 45.1853L34.4634 45.1886L47.1035 45.192L47.5553 45.8198C48.968 47.7832 52.4511 50.8389 55.52 52.8069C57.4468 54.0428 60.7796 55.7084 61.5813 55.8364C62.0501 55.9111 62.4587 55.7785 63.987 55.0558C72.1915 51.1756 77.8834 45.3966 80.0587 38.7378C80.9595 35.9804 80.9608 35.9652 81.0848 24.9412C81.148 19.3101 81.1759 14.6738 81.1467 14.6381C81.1176 14.6026 81.09 15.2308 81.0852 16.0342L81.0767 17.4951L80.7947 16.6277C80.4538 15.5803 79.7428 14.5296 78.887 13.8092C78.2244 13.2514 69.3626 9.04108 67.1936 8.2535C65.219 7.53666 63.4926 7.28597 61.1261 7.37253L59.0604 7.44823L58.0504 5.42599C56.8421 3.00693 56.0091 2.06904 54.3625 1.27323L53.2617 0.741299L37.0125 0.706086C21.914 0.673354 20.7071 0.690107 19.9724 0.941259ZM20.6054 3.33674C19.9555 3.56555 19.1825 4.09531 18.7988 4.57512C18.6226 4.7954 17.4262 7.12945 16.1401 9.76165C14.854 12.394 13.3747 15.3678 12.8529 16.3704L11.9042 18.1931H27.3132H42.722L42.8146 17.4243C42.9487 16.3114 43.6411 15.0468 44.6095 14.1459C45.4851 13.3316 46.3499 12.8907 53.5703 9.57844C55.2186 8.82235 56.5949 8.18447 56.6287 8.16089C56.7749 8.05928 55.271 5.08813 54.7987 4.54549C54.5131 4.2174 53.9107 3.76815 53.4601 3.54724L52.6409 3.14577L36.8598 3.15803C26.0476 3.16641 20.9295 3.22272 20.6054 3.33674ZM60.4411 9.82246C59.8824 9.89754 58.9376 10.1048 58.3414 10.2829C57.0361 10.6727 47.2251 15.2136 46.4796 15.7728C46.19 15.9902 45.8037 16.4712 45.6212 16.8418C45.2971 17.5003 45.2897 17.6991 45.2897 25.7385C45.2897 32.6018 45.3318 34.2026 45.5444 35.4196C46.7778 42.4821 52.0202 48.6792 59.9652 52.4671L61.8867 53.3832L63.0362 52.868C65.0163 51.9805 67.9563 50.1998 69.6585 48.8567C71.0159 47.7859 73.355 45.4673 74.3017 44.2545C76.6954 41.1877 78.0567 37.8942 78.4222 34.2856C78.5193 33.3269 78.6666 32.4013 78.7496 32.2288C78.8409 32.0386 78.8819 29.0728 78.8535 24.7051L78.8067 17.4951L78.3695 16.7635C78.1289 16.3611 77.7031 15.8633 77.4231 15.6573C76.9286 15.2935 69.1394 11.6095 67.0366 10.745C65.0444 9.92593 62.4117 9.55766 60.4411 9.82246ZM59.4851 13.6321C58.0574 14.0062 49.6951 17.9767 49.1819 18.5242L48.7366 18.999L48.7969 26.779L48.857 34.5591L49.281 36.1104C49.774 37.9148 50.8328 40.1617 51.8719 41.6087C53.5839 43.9928 56.7609 46.7313 59.8026 48.445C61.7162 49.523 62.0076 49.5297 63.7581 48.5368C66.8232 46.7983 69.7533 44.3332 71.5214 42.0052C72.7383 40.403 73.888 38.0667 74.4219 36.1104L74.8452 34.5591L74.9052 26.7081L74.9651 18.8569L74.5989 18.455C74.1526 17.9653 65.5079 13.9698 64.1444 13.6232C62.9706 13.3248 60.6403 13.3291 59.4851 13.6321ZM3.12209 14.9089C2.93471 15.1125 2.86105 15.4814 2.86105 16.2162C2.86105 17.1373 2.90269 17.272 3.27666 17.5613C3.65946 17.8574 3.90031 17.8829 6.32789 17.8829C8.78465 17.8829 8.98339 17.8613 9.2561 17.5649C9.54127 17.2549 9.54111 17.2327 9.24711 16.6958C8.84001 15.9522 7.68166 14.9744 6.98136 14.783C6.66701 14.6972 5.72884 14.6266 4.89652 14.6261C3.62997 14.6254 3.34054 14.6714 3.12209 14.9089ZM0.394194 16.1765C0.394194 16.987 0.42085 17.3187 0.453342 16.9133C0.485834 16.508 0.485834 15.845 0.453342 15.4396C0.42085 15.0343 0.394194 15.3659 0.394194 16.1765ZM60.1949 15.9283C59.7611 16.0333 57.5736 16.9848 55.3339 18.043L51.2615 19.9669L51.321 27.1854C51.3888 35.402 51.41 35.562 52.7795 38.2826C54.256 41.2153 56.8556 43.7771 60.6616 46.0495L61.8805 46.7774L62.536 46.4215C66.2092 44.4274 69.641 41.0729 71.1511 38.0004C72.4047 35.45 72.461 35.0072 72.5355 27.1033C72.5889 21.417 72.5621 20.0821 72.3918 19.9481C71.8852 19.5497 64.4734 16.1574 63.6469 15.9456C62.5677 15.6692 61.2922 15.6629 60.1949 15.9283ZM8.86762 21.6179C8.43639 22.2218 7.91999 23.1817 7.71999 23.7509C7.36763 24.7539 7.35627 24.9522 7.35627 30.1379V35.4898L7.80012 36.725C8.89348 39.7675 11.2493 41.9642 14.028 42.5323C14.8836 42.7073 45.4474 42.7928 45.4474 42.6203C45.4474 42.5745 45.328 42.358 45.1819 42.1388C45.0359 41.9196 44.6559 41.1019 44.3373 40.3214L43.7581 38.9026L35.9926 38.8251L28.2271 38.7475L27.9256 38.3813C27.5059 37.8714 27.5414 37.186 28.0114 36.7239L28.3985 36.343H35.8358C42.7135 36.343 43.2654 36.3237 43.172 36.0844C43.1165 35.9422 43.028 35.4205 42.9755 34.9253L42.8798 34.025L35.5535 33.9818L28.2271 33.9386L27.9256 33.5723C27.5059 33.0624 27.5414 32.3771 28.0114 31.9149L28.3985 31.5341H35.5823H42.766V26.0271V20.52H26.2088H9.65152L8.86762 21.6179ZM12.2275 25.1604C11.8704 25.3198 11.3736 25.714 11.1234 26.0362C10.6783 26.6097 10.6676 26.6688 10.6233 28.8066C10.5682 31.464 10.7116 31.8656 11.9304 32.4649L12.719 32.8527H17.5297C22.7176 32.8527 23.3074 32.7779 23.7856 32.0603C24.1419 31.5254 24.0101 29.5101 23.5634 28.6642C23.15 27.8813 22.365 27.0937 21.6315 26.7256C21.0468 26.4323 13.9748 24.8597 13.271 24.8666C13.0542 24.8687 12.5846 25.0009 12.2275 25.1604ZM67.2633 26.5579C67.0844 26.7219 65.5702 28.6067 63.8985 30.7464C62.2267 32.886 60.8125 34.6366 60.7559 34.6366C60.6995 34.6366 59.7727 33.9735 58.6965 33.1629C57.5064 32.2666 56.5949 31.6892 56.3697 31.6892C55.8318 31.6892 55.1074 32.1006 54.9867 32.4746C54.7662 33.158 55.2259 33.6702 57.7593 35.5648C60.3804 37.5248 60.7324 37.7285 61.3095 37.6201C61.8001 37.5278 61.992 37.3045 65.8508 32.3353C69.474 27.6697 69.6065 27.4299 69.0186 26.6046C68.6992 26.1558 67.7301 26.1301 67.2633 26.5579ZM13.0608 27.294C13.0029 27.3508 12.9556 28.0381 12.9556 28.8212V30.2451L14.9666 30.3461C16.0728 30.4015 17.989 30.4473 19.2252 30.4476C21.338 30.4482 21.4729 30.4304 21.4729 30.1499C21.4729 29.8047 20.8019 28.9697 20.321 28.7167C19.9855 28.5401 13.8829 27.1905 13.4199 27.1905C13.2802 27.1905 13.1185 27.2371 13.0608 27.294ZM10.432 45.6625C10.432 49.1162 10.5588 49.2196 14.7937 49.2163C18.0693 49.2138 18.3178 49.1584 18.9051 48.3015C19.2112 47.8546 19.2647 47.5752 19.2647 46.4207V45.0648L16.465 44.9978C13.9253 44.9369 13.5482 44.8912 12.4035 44.5051C11.7095 44.271 10.9819 43.9776 10.7868 43.8531L10.432 43.6269V45.6625Z" fill="black"/>
</svg>
