<svg width="64" height="62" viewBox="0 0 64 62" fill="none" xmlns="http://www.w3.org/2000/svg">
<path fill-rule="evenodd" clip-rule="evenodd" d="M30.8438 0.17656C30.5782 0.276527 30.1771 0.487947 29.9525 0.646353C28.7491 1.49531 1.12156 23.7731 0.970803 24.016C0.864864 24.1869 0.826283 24.429 0.875942 24.6108C1.0006 25.0666 5.25087 30.195 5.6428 30.3625C5.82755 30.4414 6.06668 30.4753 6.1744 30.4379C6.28199 30.4006 7.25823 29.6617 8.34372 28.7962L10.3173 27.2225L10.381 43.0467C10.4401 57.7171 10.4608 58.9064 10.6657 59.3555C11.0487 60.1952 11.6262 60.7937 12.4432 61.1985L13.2229 61.5848H32.2818H51.3406L52.1203 61.1985C52.9374 60.7937 53.5148 60.1952 53.8978 59.3555C54.1027 58.9064 54.1234 57.7171 54.1825 43.0467L54.2462 27.2225L56.2198 28.7962C57.3053 29.6617 58.2815 30.4006 58.3891 30.4379C58.4968 30.4753 58.7361 30.4414 58.921 30.3625C59.2476 30.223 63.3561 25.3389 63.6382 24.7549C63.7295 24.5658 63.7369 24.3584 63.6596 24.1556C63.5889 23.9704 61.1289 21.9068 57.5568 19.0363L51.5723 14.2272L51.5086 9.62127L51.4449 5.01535L51.1443 4.77427C50.8674 4.552 50.6068 4.53306 47.8242 4.53306C44.0332 4.53306 44.275 4.38715 44.223 6.70545L44.1871 8.30201L43.3595 7.63102C37.9259 3.22618 34.5341 0.563426 34.0644 0.333705C33.3451 -0.0179456 31.5887 -0.103649 30.8438 0.17656ZM31.2021 1.96978C30.9936 2.08161 26.4383 5.69745 21.0794 10.0049C15.7205 14.3123 9.53107 19.2821 7.32508 21.049C5.11909 22.8159 3.23944 24.3291 3.14815 24.4117C3.0147 24.5322 3.2742 24.9191 4.46945 26.3806C5.28755 27.381 6.02835 28.1994 6.1157 28.1994C6.20305 28.1994 12.0527 23.5561 19.1148 17.8809C28.7351 10.15 32.0378 7.56236 32.2844 7.56236C32.6253 7.56236 32.7339 7.64806 50.7155 22.1097C54.9363 25.5044 58.4397 28.2633 58.5005 28.2406C58.5614 28.218 59.2795 27.381 60.0964 26.3806C61.2917 24.9166 61.5491 24.5323 61.4154 24.4107C61.3241 24.3275 56.8374 20.719 51.4449 16.3916C46.0525 12.0644 39.8643 7.09471 37.6933 5.34807C35.5223 3.60143 33.5627 2.0787 33.3386 1.96435C32.8204 1.69966 31.7004 1.70257 31.2021 1.96978ZM46.0334 8.04111V9.78207L47.8002 11.1966C48.7719 11.9747 49.6027 12.6112 49.6465 12.6112C49.6902 12.6112 49.726 11.1912 49.726 9.45567V6.30015H47.8797H46.0334V8.04111ZM22.2227 17.6426L12.2273 25.6881L12.1949 42.0283C12.1639 57.735 12.1718 58.3855 12.3989 58.8091C12.5288 59.0514 12.8241 59.3774 13.0548 59.5337L13.4746 59.8177H32.2818H51.0889L51.5087 59.5337C51.7394 59.3774 52.0347 59.0514 52.1646 58.8091C52.3918 58.3855 52.3996 57.735 52.3686 42.0268L52.3362 25.6852L42.3408 17.6399C36.8434 13.2149 32.3168 9.59514 32.2818 9.59577C32.2467 9.59653 27.7202 13.2175 22.2227 17.6426ZM30.6649 18.9352C29.7699 19.2763 28.8109 20.1579 28.3727 21.0423C28.058 21.6779 28.0163 21.9028 28.0168 22.9613C28.0174 24.0277 28.0566 24.2342 28.3713 24.8273C28.8432 25.7167 29.6038 26.448 30.4803 26.8554C31.0814 27.1348 31.3771 27.1897 32.2818 27.1897C33.1864 27.1897 33.4821 27.1348 34.0832 26.8554C34.9598 26.448 35.7203 25.7167 36.1922 24.8273C36.507 24.2342 36.5462 24.0277 36.5467 22.9613C36.5472 21.9028 36.5056 21.6779 36.1908 21.0423C35.7442 20.1411 34.7865 19.2717 33.8624 18.929C32.939 18.5866 31.5728 18.5891 30.6649 18.9352ZM31.2631 20.5784C31.088 20.6473 30.7819 20.8567 30.5829 21.0436C29.3558 22.1962 29.4876 24.0966 30.8602 25.0423C31.3428 25.3746 31.522 25.4226 32.2818 25.4226C33.0415 25.4226 33.2207 25.3746 33.7033 25.0423C35.0758 24.0968 35.2077 22.1945 33.9806 21.0445C33.7816 20.8579 33.4574 20.645 33.2603 20.5712C32.8178 20.4054 31.6916 20.4095 31.2631 20.5784ZM25.6889 28.0828C25.3192 28.2654 24.8685 28.6076 24.6872 28.8433C24.0264 29.7021 24.0165 29.8044 24.0165 35.7727C24.0165 41.7678 24.0236 41.8397 24.7077 42.7287C25.07 43.1996 26.1422 43.7843 26.6474 43.7864L26.9339 43.7877V49.0088C26.9339 54.0998 26.9405 54.2382 27.1979 54.5625L27.4617 54.8951H32.2818H37.1018L37.3657 54.5625C37.623 54.2382 37.6296 54.0998 37.6296 49.0088V43.7877L37.9161 43.7864C38.0737 43.7858 38.5 43.6479 38.8634 43.4802C39.6045 43.1381 40.2228 42.4077 40.4362 41.6223C40.5206 41.3113 40.5549 39.1021 40.5313 35.4784L40.4945 29.8201L40.1092 29.2024C39.8705 28.8199 39.4866 28.4394 39.1007 28.2027L38.4775 27.8208L32.4193 27.7858L26.3609 27.7508L25.6889 28.0828ZM26.2089 29.8293L25.8516 30.1338L25.8159 35.7044L25.7802 41.275L26.1563 41.6478C26.9404 42.4251 26.9215 42.5316 26.9614 37.0867L26.9976 32.1529L27.2982 31.9117C27.6845 31.6017 27.964 31.607 28.381 31.9321L28.7165 32.1937V42.6609V53.128H30.0535H31.3905V47.9118V42.6957L31.6851 42.4212C32.0675 42.0653 32.5486 42.0722 32.8963 42.4389C33.1712 42.729 33.1731 42.7659 33.1731 47.9295V53.128H34.51H35.847V42.6609V32.1937L36.1825 31.9321C36.5995 31.607 36.879 31.6017 37.2653 31.9117L37.566 32.1529L37.6021 37.0867C37.6415 42.4737 37.6201 42.3423 38.3546 41.716L38.7119 41.4113V35.7727V30.134L38.3546 29.8293L37.9974 29.5247H32.2818H26.5662L26.2089 29.8293ZM43.9522 30.1343C43.7606 30.344 43.7415 31.1181 43.7415 38.6541V46.9432L43.264 46.9439C42.0755 46.9456 41.0026 47.6297 40.6293 48.6237C40.4515 49.097 39.565 55.7179 39.5172 56.9304C39.5047 57.2462 39.5797 57.5067 39.7308 57.6723C39.9577 57.9207 40.087 57.9265 44.672 57.8943L49.3803 57.8613L49.6157 57.5457C49.8466 57.2365 49.841 57.147 49.3393 53.0649C48.9187 49.6422 48.7757 48.7985 48.5376 48.3327C48.1438 47.5624 47.3324 47.0707 46.3026 46.9781L45.5294 46.9086L45.4949 38.6717C45.4618 30.7748 45.4504 30.4237 45.2179 30.1691C44.9129 29.8351 44.2421 29.8167 43.9522 30.1343ZM15.2479 43.3531C15.046 43.4932 14.9649 43.6777 14.9649 43.9964C14.9649 44.3759 15.0918 44.5738 15.8069 45.3079L16.6488 46.1724L15.9153 46.2107C15.3054 46.2425 15.142 46.3021 14.9457 46.5645C14.7139 46.8744 14.721 46.9721 15.3466 52.0193C15.6969 54.8458 15.9835 57.2172 15.9835 57.289C15.9835 57.3608 16.0981 57.5331 16.2382 57.6719C16.4815 57.9131 16.6626 57.9244 20.3127 57.9244C23.8222 57.9244 24.1512 57.9059 24.362 57.697C24.5508 57.5099 24.6982 56.5901 25.1964 52.4904C25.5292 49.7518 25.8293 47.3654 25.8633 47.1873C25.9037 46.9764 25.8315 46.7454 25.6563 46.5246L25.3875 46.1859H22.3151H19.2429L17.6974 44.6712C16.0734 43.0797 15.8301 42.9488 15.2479 43.3531ZM16.6799 48.3632C16.7433 48.7284 17.6388 55.952 17.6388 56.0983C17.6388 56.1308 18.8421 56.1573 20.3127 56.1573C21.9494 56.1573 22.9867 56.1099 22.9867 56.0352C22.9867 55.8474 23.8646 48.6936 23.936 48.3L23.9989 47.9529H22.5459H21.0928L21.1627 48.3805C21.2513 48.9217 20.876 49.3414 20.3033 49.3414C20.0027 49.3414 19.7414 49.1803 19.1776 48.6472L18.4434 47.9529H17.526H16.6086L16.6799 48.3632ZM42.4682 48.9627C42.3281 49.1016 42.2135 49.3003 42.2135 49.4045C42.2135 49.5662 42.5672 49.5938 44.6328 49.5938C46.9437 49.5938 47.052 49.5828 47.052 49.3486C47.052 48.8246 46.6134 48.7103 44.6044 48.7103C42.8926 48.7103 42.6999 48.733 42.4682 48.9627ZM41.9522 51.4556C41.9487 51.5077 41.8161 52.5868 41.6578 53.8538L41.3701 56.1573H41.7918H42.2135V54.7689C42.2135 53.2059 42.369 52.8755 43.1048 52.8755C43.8407 52.8755 43.9961 53.2059 43.9961 54.7689V56.1573H44.6328H45.2694V54.8867C45.2694 53.6791 45.3812 53.1847 45.7023 52.9721C45.9697 52.7951 46.5441 52.8769 46.7974 53.128C47.0212 53.3499 47.052 53.5487 47.052 54.7689V56.1573H47.5078C47.9367 56.1573 47.9595 56.1368 47.8948 55.8102C47.857 55.6193 47.7347 54.6679 47.6227 53.696C47.5108 52.7241 47.3929 51.8012 47.3606 51.6449C47.3019 51.3613 47.2986 51.3609 44.6304 51.3609C43.161 51.3609 41.9559 51.4034 41.9522 51.4556Z" fill="black"/>
</svg>
