<svg width="54" height="46" viewBox="0 0 54 46" fill="none" xmlns="http://www.w3.org/2000/svg">
<path fill-rule="evenodd" clip-rule="evenodd" d="M11.1509 0.331097C9.55384 0.740394 7.23872 1.86001 5.86683 2.8863C4.56406 3.86089 3.21454 5.2613 2.15613 6.73721C1.0306 8.30684 1.05856 8.23743 1.65062 7.99048C3.66957 7.14875 7.96275 5.414 8.02734 5.414C8.07075 5.414 7.81161 5.75614 7.45139 6.17416C5.27064 8.7053 4.00103 12.0233 3.54772 16.3759C3.35223 18.2537 3.46436 22.7839 3.75427 24.7151C3.87478 25.5183 3.911 26.1197 3.84029 26.1431C3.77304 26.1655 3.44399 26.3638 3.1092 26.584C1.85184 27.4108 0.800749 28.8915 0.31269 30.5234C0.0454236 31.4171 0.0349033 33.2596 0.291517 34.2167C0.718451 35.8092 1.82947 37.3515 3.21867 38.2803L3.8897 38.7289H2.32938C0.793557 38.7289 0.767723 38.7339 0.688755 39.0459C0.644677 39.2203 0.628563 39.5029 0.652933 39.6739L0.697278 39.9848L3.19416 40.0208L5.69105 40.0567V39.7045V39.3522L6.50963 39.4372C6.95974 39.4839 7.79869 39.5221 8.37397 39.5221C9.33091 39.5221 9.41974 39.5446 9.41974 39.7865C9.41974 40.0471 9.50856 40.0509 15.4788 40.0509C21.4491 40.0509 21.538 40.0471 21.538 39.7865C21.538 39.5303 21.6268 39.5221 24.4011 39.5221C27.1753 39.5221 27.2642 39.5303 27.2642 39.7865C27.2642 40.0485 27.353 40.0509 37.2517 40.0509H47.2393V39.7369C47.2393 39.4653 47.3627 39.3837 48.1584 39.1296C51.1092 38.1877 53.0986 35.4529 53.0986 32.3384C53.0986 30.5476 52.326 28.7318 50.9923 27.3881L50.1482 26.5375L50.3685 24.9985C50.7113 22.6045 50.7775 18.6803 50.5129 16.4205C50.0318 12.31 48.9013 9.32136 46.8941 6.85315C46.4277 6.27979 46.0692 5.8106 46.0975 5.8106C46.1256 5.8106 47.6646 6.43314 49.5172 7.1941C51.37 7.95518 52.8993 8.56437 52.9156 8.54811C52.9902 8.47408 51.1449 6.04473 50.3636 5.1882C48.6395 3.29811 45.9822 1.65801 43.3108 0.835315C41.6442 0.322107 39.9796 0.31748 38.6815 0.822623C36.0425 1.84944 33.0637 4.77811 30.6724 8.69723C29.8605 10.0278 28.9491 11.7597 29.0607 11.7597C29.0985 11.7597 30.5748 11.1305 32.3414 10.3615C34.108 9.5925 35.5964 9.0124 35.649 9.07255C35.7016 9.13257 36.3978 11.6371 37.1962 14.6383C37.9946 17.6394 38.661 20.0488 38.677 19.9924C38.6931 19.9361 39.0096 17.1535 39.3804 13.8088C39.7511 10.4641 40.1004 7.51931 40.1563 7.26482L40.2584 6.80212L41.063 8.25634C41.5055 9.05616 42.9367 11.6584 44.2437 14.0392C45.5506 16.4199 46.6443 18.3435 46.6742 18.3137C46.8439 18.1453 44.8189 9.91455 43.9316 7.16567C43.6441 6.2749 43.4501 5.5462 43.5004 5.5462C43.693 5.5462 45.3323 6.98363 45.8311 7.58991C47.6549 9.80667 48.814 12.9286 49.2421 16.7775C49.4309 18.4759 49.3509 22.9626 49.1003 24.7155C49.012 25.3335 48.9307 25.8499 48.9198 25.8631C48.9089 25.8763 48.4826 25.7722 47.9726 25.6318C47.4626 25.4914 46.9691 25.3765 46.876 25.3765C46.7429 25.3765 46.7066 26.184 46.7066 29.1442V32.912H45.2417H43.7769V29.5387V26.1655L44.498 24.2837C44.8946 23.2487 45.2605 22.2979 45.3113 22.1706C45.3978 21.9533 45.1485 21.9392 41.1789 21.9392H36.9545L36.3374 21.4924C32.6842 18.8468 26.071 18.0677 21.1104 19.6986C19.7483 20.1463 18.2583 20.8651 17.3919 21.4924C16.9021 21.847 16.6479 21.9392 16.1601 21.9392C15.748 21.9392 15.5454 21.8832 15.5454 21.7692C15.5454 21.4867 18.4272 8.72248 18.5095 8.64091C18.5514 8.59927 20.5235 9.40848 22.8917 10.4394C25.2599 11.4703 27.2801 12.3471 27.3809 12.3878C27.4818 12.4285 27.1271 11.8131 26.5927 11.0202C21.921 4.08696 16.8967 -0.0327225 13.1537 0.000195795C12.748 0.00376525 11.8467 0.152624 11.1509 0.331097ZM11.5504 1.57274C9.86998 2.04086 8.46852 2.67702 7.15589 3.5674C6.37726 4.09555 5.25919 5.05996 5.50462 4.99188C6.06166 4.83733 14.0749 1.49381 14.0774 1.41489C14.0834 1.22756 12.4155 1.33187 11.5504 1.57274ZM13.6799 2.57324C12.7689 3.6799 12.0094 5.18582 11.1803 7.52923C10.8844 8.36541 10.5767 9.22802 10.4964 9.44616C10.3595 9.81778 10.3634 9.82611 10.5559 9.57928C10.669 9.43426 11.6732 7.66183 12.7873 5.64046C13.9015 3.61896 14.8271 2.04205 14.8443 2.13618C14.8615 2.23031 15.09 4.89405 15.3522 8.05552C15.6145 11.2171 15.8492 13.824 15.874 13.8485C15.9187 13.8929 16.0146 13.4896 16.9915 9.1454C17.2741 7.88935 17.5344 6.83266 17.5701 6.79709C17.6059 6.76166 19.0046 7.3263 20.6784 8.05209C22.3523 8.77774 23.7367 9.35666 23.7549 9.33841C23.7732 9.3203 23.2694 8.68269 22.6353 7.9216C21.2016 6.2006 19.3748 4.39393 18.0624 3.39898C16.9883 2.58448 15.1579 1.58014 14.7478 1.58014C14.5973 1.58014 14.171 1.97648 13.6799 2.57324ZM40.0491 1.81149C40.0499 1.89386 48.1104 5.2617 48.6105 5.38848C48.9146 5.46569 47.8352 4.58813 46.7537 3.87913C45.4525 3.0259 44.2306 2.46537 42.7299 2.03307C41.6763 1.72953 40.0471 1.59495 40.0491 1.81149ZM38.3944 2.36767C37.0067 3.0924 35.5432 4.38031 34.0316 6.20721C33.238 7.16633 32.0418 8.87914 32.1149 8.95159C32.1467 8.98319 33.1438 8.58486 34.3305 8.0665C35.5173 7.54813 36.5041 7.14082 36.5233 7.16131C36.5425 7.18193 36.8977 8.47659 37.3128 10.0384C37.7279 11.6003 38.0853 12.8957 38.1072 12.9174C38.1623 12.9722 38.2292 12.4302 38.7952 7.33093C39.0696 4.85875 39.3327 2.79071 39.38 2.73519C39.4271 2.6798 40.2364 4.03606 41.1784 5.74913C42.1204 7.4622 42.9682 8.96507 43.0621 9.08895C43.2999 9.402 42.4041 6.58412 41.8426 5.25271C41.3333 4.04452 39.7748 1.97675 39.3737 1.97675C39.2469 1.97675 38.8062 2.15271 38.3944 2.36767ZM9.85373 5.66373C7.21582 7.73388 5.47053 11.3692 4.89777 15.9867C4.69935 17.5872 4.73371 21.8618 4.95996 23.724C5.0661 24.5965 5.15412 25.3626 5.15559 25.4266C5.15718 25.4905 5.45801 25.5033 5.82422 25.455L6.49006 25.3674V29.1398V32.912H8.28781H10.0856L10.0768 29.5739L10.068 26.2358L9.23623 24.1206L8.40447 22.0053L11.7752 21.97L15.1459 21.9347L15.1445 21.6395C15.1437 21.4772 14.8743 18.1318 14.5457 14.2054C14.2172 10.279 13.9482 6.92084 13.948 6.74263C13.9477 6.5467 13.9004 6.46831 13.8284 6.54432C13.7629 6.61347 11.9556 9.85268 9.81245 13.7427C6.22572 20.2526 5.55149 21.4357 5.74419 20.8816C5.78214 20.7726 6.2385 19.1663 6.75839 17.3122C7.93758 13.106 9.09667 9.38958 9.95986 7.0463C10.3251 6.05478 10.6007 5.22032 10.5722 5.19203C10.5437 5.16374 10.2205 5.37606 9.85373 5.66373ZM24.7955 20.2354C23.2972 20.392 21.3583 20.9046 20.1946 21.4519L19.2075 21.9162H26.8647H34.5218L33.5347 21.4519C31.2296 20.3678 27.928 19.9081 24.7955 20.2354ZM10.3519 23.3262C10.3519 23.3617 10.5916 24.0168 10.8846 24.7816L11.4172 26.1722V29.542V32.912H11.954C12.3485 32.912 12.5105 32.8507 12.5646 32.6807C12.9286 31.538 13.7453 30.5872 14.7211 30.1699C15.4613 29.8535 16.8153 29.8863 17.5481 30.2385C18.3626 30.6299 19.0967 31.4066 19.3969 32.1944C19.5884 32.6973 19.7178 32.8549 19.9643 32.885C20.2548 32.9207 20.2983 32.8537 20.4461 32.1432C21.184 28.5967 24.9007 26.2629 28.3786 27.1623C31.0512 27.8533 32.7265 29.6797 33.3198 32.5485C33.3767 32.8236 33.4728 32.912 33.7149 32.912C33.9669 32.912 34.0701 32.8064 34.1994 32.4162C34.6102 31.1765 35.6352 30.2681 36.9226 30.0028C38.6144 29.6542 40.334 30.6096 40.9837 32.2593C41.208 32.8288 41.2317 32.8459 41.7967 32.8459H42.3786L42.4503 29.2104L42.5221 25.5748L43.0073 24.418L43.4926 23.2613H42.1033H40.7141V23.9223V24.5833H27.1976H13.6811V23.9223V23.2613H12.0165C11.101 23.2613 10.3519 23.2905 10.3519 23.3262ZM4.15696 27.4782C2.23323 28.5738 1.07427 31.0342 1.43276 33.2618C1.63624 34.5258 2.14214 35.4888 3.1088 36.4516C4.01115 37.3503 4.9312 37.8496 6.08523 38.0668C7.12247 38.2622 46.1954 38.2486 47.1329 38.0525C48.9085 37.6813 50.5208 36.4102 51.2584 34.8001C52.1164 32.9269 51.8777 30.636 50.6526 28.9838C50.0913 28.2269 48.6352 27.0951 48.2228 27.0951C48.0701 27.0951 48.0383 27.7103 48.0383 30.6646V34.234H26.5983H5.15838V30.6646C5.15838 27.8965 5.12096 27.0954 4.99192 27.0963C4.90044 27.0971 4.52464 27.269 4.15696 27.4782ZM25.1773 28.5328C23.4301 29.1769 22.0574 30.697 21.7227 32.3585L21.6378 32.7798H26.8505H32.0632L31.9805 32.4162C31.7982 31.6151 31.1138 30.381 30.5302 29.8018C29.5951 28.8734 28.403 28.3734 27.0001 28.3213C26.13 28.2889 25.7056 28.3382 25.1773 28.5328ZM15.3281 31.3372C14.9242 31.4534 13.9474 32.3807 13.9474 32.648C13.9474 32.7301 14.7506 32.7798 16.0781 32.7798C17.4056 32.7798 18.2088 32.7301 18.2088 32.648C18.2088 32.5754 17.9932 32.2792 17.7296 31.9896C17.0773 31.2728 16.2926 31.0597 15.3281 31.3372ZM36.6178 31.4723C36.0758 31.7387 35.5205 32.327 35.5205 32.6349C35.5205 32.7339 36.1965 32.7798 37.6547 32.7798H39.7887L39.5992 32.416C39.348 31.9337 39.0112 31.6435 38.4164 31.3967C37.7532 31.1216 37.2921 31.141 36.6178 31.4723ZM51.2343 39.3899V40.0509L52.1332 40.051H53.032L52.9858 39.39L52.9397 38.7289H52.0869H51.2343V39.3899ZM0.632558 42.067C0.633491 42.2307 0.670511 42.4982 0.71459 42.6619L0.79489 42.9594H7.57097H14.3469V42.3644V41.7695H7.48881H0.630694L0.632558 42.067ZM18.2088 42.3644V42.9594H27.93H37.6512V42.3644V41.7695H27.93H18.2088V42.3644ZM40.8472 42.3644V42.9594H44.7757H48.7041V42.3644V41.7695H44.7757H40.8472V42.3644ZM51.8193 41.9787C51.8638 42.0937 51.9001 42.3614 51.9001 42.5736C51.9001 42.9441 51.9243 42.9594 52.5149 42.9594C53.0874 42.9594 53.1242 42.9389 53.0493 42.6619C53.0053 42.4982 52.9682 42.2307 52.9673 42.067C52.9656 41.8018 52.8989 41.7695 52.3519 41.7695C51.8472 41.7695 51.7528 41.8066 51.8193 41.9787ZM0.680632 45.0911C0.726441 45.3184 0.763861 45.6158 0.763861 45.7521C0.763861 45.9889 0.939908 46 4.6923 46H8.62073V45.339V44.678H4.60907H0.597402L0.680632 45.0911ZM14.3469 45.339V46H20.6058H26.8647V45.339V44.678H20.6058H14.3469V45.339ZM32.724 45.339V46H37.9175H43.1111V45.339V44.678H37.9175H32.724V45.339ZM46.5734 45.339V46H47.7719H48.9704V45.339V44.678H47.7719H46.5734V45.339ZM51.2343 45.339V46H52.1664C53.1894 46 53.1969 45.9921 53.0154 45.0911C52.9326 44.6802 52.9275 44.678 52.0832 44.678H51.2343V45.339Z" fill="white"/>
</svg>
