<svg width="26" height="47" viewBox="0 0 26 47" fill="none" xmlns="http://www.w3.org/2000/svg">
<path d="M2.41211 19.4247V11.4771H10.3598V46.4747" stroke="white" stroke-miterlimit="10" stroke-linecap="round" stroke-linejoin="round"/>
<path d="M2.41191 8.96753H10.3596L11.7539 11.4773H1.01758L2.41191 8.96753Z" stroke="white" stroke-miterlimit="10" stroke-linecap="round" stroke-linejoin="round"/>
<path d="M2.41211 8.96735C2.41211 6.73643 4.22474 5.06323 6.31623 5.06323C8.40772 5.06323 10.2204 6.87586 10.2204 8.96735" stroke="white" stroke-miterlimit="10" stroke-linecap="round" stroke-linejoin="round"/>
<path d="M6.45508 4.92386V1.15918" stroke="white" stroke-miterlimit="10" stroke-linecap="round" stroke-linejoin="round"/>
<path d="M10.3604 19.4248H25.0008V46.4748H10.3604" stroke="white" stroke-miterlimit="10" stroke-linecap="round" stroke-linejoin="round"/>
<path d="M19.0039 24.5838C19.0039 23.7472 19.7011 22.9106 20.6771 22.9106C21.6531 22.9106 22.3503 23.6078 22.3503 24.5838V27.6514H19.1433V24.5838H19.0039Z" stroke="white" stroke-miterlimit="10" stroke-linecap="round" stroke-linejoin="round"/>
<path d="M13.0088 24.5838C13.0088 23.7472 13.7059 22.9106 14.682 22.9106C15.658 22.9106 16.3552 23.6078 16.3552 24.5838V27.6514H13.1482V24.5838H13.0088Z" stroke="white" stroke-miterlimit="10" stroke-linecap="round" stroke-linejoin="round"/>
<path d="M19.0039 31.6947C19.0039 30.8581 19.7011 30.0215 20.6771 30.0215C21.6531 30.0215 22.3503 30.7186 22.3503 31.6947V34.7622H19.1433V31.6947H19.0039Z" stroke="white" stroke-miterlimit="10" stroke-linecap="round" stroke-linejoin="round"/>
<path d="M13.0088 31.6947C13.0088 30.8581 13.7059 30.0215 14.682 30.0215C15.658 30.0215 16.3552 30.7186 16.3552 31.6947V34.7622H13.1482V31.6947H13.0088Z" stroke="white" stroke-miterlimit="10" stroke-linecap="round" stroke-linejoin="round"/>
<path d="M19.0039 38.806C19.0039 37.9694 19.7011 37.1328 20.6771 37.1328C21.6531 37.1328 22.3503 37.83 22.3503 38.806V41.8735H19.1433V38.806H19.0039Z" stroke="white" stroke-miterlimit="10" stroke-linecap="round" stroke-linejoin="round"/>
<path d="M13.0088 38.806C13.0088 37.9694 13.7059 37.1328 14.682 37.1328C15.658 37.1328 16.3552 37.83 16.3552 38.806V41.8735H13.1482V38.806H13.0088Z" stroke="white" stroke-miterlimit="10" stroke-linecap="round" stroke-linejoin="round"/>
<path d="M25.0008 19.4246V16.636H10.3604" stroke="white" stroke-miterlimit="10" stroke-linecap="round" stroke-linejoin="round"/>
<path d="M10.359 28.906H3.80566" stroke="white" stroke-miterlimit="10" stroke-linecap="round" stroke-linejoin="round"/>
</svg>
