<svg width="44" height="61" viewBox="0 0 44 61" fill="none" xmlns="http://www.w3.org/2000/svg">
<path d="M27.82 60.1677H41.474V22.9441H2.625V60.1677H16.279" stroke="white" stroke-miterlimit="10" stroke-linecap="round" stroke-linejoin="round"/>
<path d="M23.7568 29.771C28.7958 30.5837 32.8595 34.9725 32.8595 40.3366V60.005" stroke="white" stroke-miterlimit="10" stroke-linecap="round" stroke-linejoin="round"/>
<path d="M20.3429 29.771C15.1414 30.5837 11.2402 34.9725 11.2402 40.3366V60.005" stroke="white" stroke-miterlimit="10" stroke-linecap="round" stroke-linejoin="round"/>
<path d="M43.1 17.9048H1L2.62548 22.9438H41.4745L43.1 17.9048Z" stroke="white" stroke-miterlimit="10" stroke-linecap="round" stroke-linejoin="round"/>
<path d="M23.5937 27.9832H20.3428V31.3967H23.5937V27.9832Z" stroke="white" stroke-miterlimit="10" stroke-linecap="round" stroke-linejoin="round"/>
<path d="M27.8197 60.1677V40.3368C27.8197 37.0859 25.2189 34.4851 21.9679 34.4851C18.717 34.4851 16.1162 37.0859 16.1162 40.3368V60.0052" stroke="white" stroke-miterlimit="10" stroke-linecap="round" stroke-linejoin="round"/>
<path d="M41.474 14.4917H2.625V17.5801H41.474V14.4917Z" stroke="white" stroke-miterlimit="10" stroke-linecap="round" stroke-linejoin="round"/>
<path d="M41.474 11.0779H2.625V14.1663H41.474V11.0779Z" stroke="white" stroke-miterlimit="10" stroke-linecap="round" stroke-linejoin="round"/>
<path d="M34.8107 7.177H9.45312V10.7531H34.8107V7.177Z" stroke="white" stroke-miterlimit="10" stroke-linecap="round" stroke-linejoin="round"/>
<path d="M30.7467 1.97529V7.17684H13.5166V1.97529L17.9054 3.60077C18.7181 1.97529 20.1811 1 22.1317 1C24.0822 1 25.5452 2.13784 26.3579 3.60077L30.7467 1.97529Z" stroke="white" stroke-miterlimit="10" stroke-linecap="round" stroke-linejoin="round"/>
<path d="M9.45253 31.5589C10.5298 31.5589 11.4031 30.6856 11.4031 29.6083C11.4031 28.531 10.5298 27.6577 9.45253 27.6577C8.37525 27.6577 7.50195 28.531 7.50195 29.6083C7.50195 30.6856 8.37525 31.5589 9.45253 31.5589Z" stroke="white" stroke-miterlimit="10" stroke-linecap="round" stroke-linejoin="round"/>
<path d="M34.6478 31.5589C35.7251 31.5589 36.5984 30.6856 36.5984 29.6083C36.5984 28.531 35.7251 27.6577 34.6478 27.6577C33.5706 27.6577 32.6973 28.531 32.6973 29.6083C32.6973 30.6856 33.5706 31.5589 34.6478 31.5589Z" stroke="white" stroke-miterlimit="10" stroke-linecap="round" stroke-linejoin="round"/>
<path d="M2.625 43.7502H16.279" stroke="white" stroke-miterlimit="10" stroke-linecap="round" stroke-linejoin="round"/>
<path d="M2.625 55.4536H16.279" stroke="white" stroke-miterlimit="10" stroke-linecap="round" stroke-linejoin="round"/>
<path d="M41.4744 55.4536H27.8203" stroke="white" stroke-miterlimit="10" stroke-linecap="round" stroke-linejoin="round"/>
<path d="M41.4744 43.7502H27.8203" stroke="white" stroke-miterlimit="10" stroke-linecap="round" stroke-linejoin="round"/>
</svg>
