<svg width="57" height="57" viewBox="0 0 57 57" fill="none" xmlns="http://www.w3.org/2000/svg">
<g clip-path="url(#clip0_65_2145)">
<path fill-rule="evenodd" clip-rule="evenodd" d="M7.63388 0.174856C7.49539 0.31346 7.45898 0.613267 7.45898 1.61489V2.87991L6.79792 3.86126C6.43443 4.40109 5.70033 5.34371 5.16674 5.95601C3.97709 7.32112 3.67639 7.91583 3.67505 8.90621C3.67416 9.48534 3.74252 9.77435 4.01739 10.3535L4.36072 11.0771L4.23993 12.443C4.17347 13.1942 4.11914 13.858 4.11914 13.9181C4.11914 13.9798 3.75721 14.0273 3.28808 14.0273C2.58036 14.0273 2.43998 14.0593 2.34179 14.2426C2.2731 14.3711 2.22656 15.3822 2.22656 16.7475V19.0371H1.28818C0.583582 19.0371 0.306264 19.0806 0.174896 19.212C0.0209297 19.3659 0 20.0003 0 24.5001C0 29.4648 0.00645703 29.6197 0.222656 29.8359C0.420598 30.0338 0.593713 30.0586 1.78125 30.0586H3.11719V42.917V55.7754H1.74284C0.552744 55.7754 0.343781 55.8026 0.184248 55.979C-0.0574453 56.246 -0.049541 56.5866 0.203619 56.8157C0.391875 56.9862 2.51679 57 28.5171 57H56.6272L56.8693 56.7423C57.1002 56.4965 57.2192 55.9182 57.0126 56.0459C56.9584 56.0794 56.852 56.0323 56.7763 55.9411C56.668 55.8106 56.3453 55.7754 55.2608 55.7754H53.8828V42.917V30.0586H55.2241C56.5314 30.0586 56.5722 30.0511 56.8383 29.764L57.1113 29.4694V24.346C57.1113 21.5281 57.0803 19.2536 57.0424 19.2916C57.0044 19.3294 56.9007 19.2877 56.8119 19.1987C56.696 19.0829 56.3837 19.0371 55.7118 19.0371H54.7734V16.7475C54.7734 15.3822 54.7269 14.3711 54.6582 14.2426C54.56 14.0593 54.4196 14.0273 53.7119 14.0273C53.2428 14.0273 52.8809 13.9798 52.8809 13.9181C52.8809 13.858 52.8265 13.1942 52.7601 12.443L52.6393 11.0771L52.9826 10.3535C53.2575 9.77435 53.3258 9.48534 53.3249 8.90621C53.3236 7.91583 53.0229 7.32112 51.8333 5.95601C51.2997 5.34371 50.5656 4.40109 50.2021 3.86126L49.541 2.87991V1.62413C49.541 0.54903 49.5117 0.34196 49.3374 0.184208C49.0669 -0.0606025 48.8099 -0.0482451 48.5391 0.222616C48.3425 0.419222 48.3164 0.593673 48.3164 1.71619V2.98712L47.7678 3.8036C47.4661 4.25269 46.9275 4.9623 46.571 5.38067C45.2022 6.98669 44.8695 7.46562 44.6874 8.09173C44.4592 8.87715 44.5358 9.51863 44.9645 10.4091L45.2861 11.0771L45.1591 12.5244L45.0322 13.9716L44.1999 14.0273C43.0734 14.1027 43.0877 14.0666 43.0857 16.8383L43.084 19.0371H28.5H13.916L13.9143 16.8383C13.9123 14.0666 13.9266 14.1027 12.8001 14.0273L11.9678 13.9716L11.8409 12.5244L11.7139 11.0771L12.0355 10.4091C12.4642 9.51863 12.5408 8.87715 12.3126 8.09173C12.1305 7.46562 11.7978 6.98669 10.429 5.38067C10.0725 4.9623 9.53392 4.25269 9.23222 3.8036L8.68359 2.98712V1.71619C8.68359 0.593673 8.65754 0.419222 8.46094 0.222616C8.19353 -0.0447939 7.87223 -0.0633857 7.63388 0.174856ZM20.7799 2.54147C20.5317 2.81578 20.5253 3.9216 20.7706 4.16686C21.0053 4.40143 21.41 4.38807 21.6361 4.13814C21.9106 3.83477 21.8867 2.84951 21.5977 2.56051C21.3203 2.28319 21.02 2.27618 20.7799 2.54147ZM7.67129 4.75423C7.21595 5.42587 6.58038 6.21274 5.80543 7.06417C5.47356 7.42877 5.13378 7.89056 5.05029 8.0904C4.85301 8.56254 4.85702 9.25945 5.05975 9.74473L5.22107 10.1308H8.05214H10.8831L11.0041 9.82467C11.4333 8.739 11.273 8.23557 10.0493 6.82471C9.52868 6.22443 8.86205 5.39292 8.56792 4.97688L8.03321 4.22052L7.67129 4.75423ZM48.4595 4.92968C48.2014 5.31042 47.5432 6.13848 46.9971 6.76971C45.7229 8.24191 45.563 8.72964 45.9959 9.82467L46.1169 10.1308H48.9479H51.7789L51.9402 9.74473C52.143 9.25968 52.1471 8.56132 51.95 8.09552C51.8667 7.89847 51.4599 7.36153 51.0462 6.9023C50.6324 6.44308 50.0618 5.74894 49.7783 5.35985C48.8575 4.09639 48.9939 4.14092 48.4595 4.92968ZM18.3307 4.99069C18.0741 5.27413 18.101 5.63316 18.394 5.83834C18.7511 6.0885 19.7293 6.06968 19.9661 5.80806C20.2078 5.54098 20.1999 5.20043 19.9468 4.97132C19.6521 4.70458 18.578 4.71738 18.3307 4.99069ZM22.4604 4.9073C22.216 5.04969 22.2042 5.60032 22.4405 5.83678C22.7092 6.10542 23.7618 6.07413 24.0469 5.78902C24.3148 5.52106 24.3253 5.36152 24.0962 5.03455C23.951 4.82726 23.8201 4.78763 23.2891 4.79041C22.9405 4.7923 22.5677 4.84485 22.4604 4.9073ZM20.7109 6.6723C20.6476 6.79075 20.5957 7.1637 20.5957 7.50103C20.5957 8.00857 20.6383 8.14417 20.8432 8.28756C21.1702 8.51667 21.3297 8.50621 21.5977 8.23824C21.9015 7.93443 21.9137 6.9101 21.6167 6.64124C21.3376 6.38864 20.8539 6.40522 20.7109 6.6723ZM35.3639 8.66452C35.0894 8.96789 35.1133 9.95314 35.4023 10.2421C35.6797 10.5195 35.98 10.5265 36.22 10.2612C36.4683 9.98687 36.4747 8.88105 36.2294 8.63579C35.9947 8.40123 35.59 8.41459 35.3639 8.66452ZM32.8872 11.1884C32.7194 11.4445 32.7192 11.4886 32.8838 11.7398C33.1643 12.168 34.1547 12.2546 34.5945 11.8895C34.7721 11.7421 34.776 11.2189 34.6008 11.0437C34.5253 10.9682 34.1635 10.9101 33.7684 10.9101C33.1458 10.9101 33.0496 10.9405 32.8872 11.1884ZM36.9665 11.0704C36.7526 11.3282 36.8708 11.833 37.1836 11.998C37.5559 12.1944 38.5278 12.0922 38.7144 11.8371C38.9028 11.5794 38.8894 11.2959 38.6786 11.085C38.4444 10.8508 37.1579 10.8398 36.9665 11.0704ZM5.5251 11.7729C5.49159 12.0026 5.4317 12.6056 5.39207 13.1132L5.31981 14.036L6.36151 14.0038L7.40332 13.9716L7.43894 13.4709C7.49706 12.6523 7.98902 12.3308 8.46094 12.8027C8.61758 12.9593 8.68359 13.1738 8.68359 13.5263V14.0273H9.70135H10.7192L10.6403 12.7801C10.5969 12.0941 10.5366 11.4929 10.5065 11.4442C10.4764 11.3954 9.35691 11.3554 8.01885 11.3554H5.586L5.5251 11.7729ZM46.4935 11.4442C46.4633 11.4929 46.4031 12.0941 46.3597 12.7801L46.2808 14.0273H47.2986H48.3164V13.5512C48.3164 12.9888 48.566 12.5794 48.9072 12.5817C49.3329 12.5847 49.4756 12.7656 49.5373 13.3808L49.5967 13.9716L50.6385 14.0038L51.6802 14.036L51.6079 13.1132C51.5683 12.6056 51.5084 12.0026 51.4749 11.7729L51.414 11.3554H48.9811C47.6431 11.3554 46.5236 11.3954 46.4935 11.4442ZM35.4023 12.6914C35.2352 12.8585 35.1797 13.0624 35.1797 13.5091C35.1797 14.1829 35.3903 14.4726 35.8804 14.4726C36.2641 14.4726 36.4043 14.1934 36.4043 13.4286C36.4043 12.921 36.3617 12.7854 36.1568 12.642C35.8298 12.4129 35.6703 12.4234 35.4023 12.6914ZM3.45117 17.1457V19.0395L8.04346 19.0105L12.6357 18.9814L12.6662 17.1167L12.6967 15.2519H8.07396H3.45117V17.1457ZM44.3338 17.1167L44.3643 18.9814L48.9565 19.0105L53.5488 19.0395V17.1457V15.2519H48.926H44.3032L44.3338 17.1167ZM0.0513223 24.4921C0.0513223 27.3394 0.0657949 28.5042 0.0833848 27.0805C0.100975 25.657 0.100975 23.3274 0.0833848 21.9038C0.0657949 20.4802 0.0513223 21.6449 0.0513223 24.4921ZM1.22461 24.5478V28.8339H8.01562H14.8066V24.5478V20.2617H8.01562H1.22461V24.5478ZM16.0312 22.0429V23.8242H25.3023C33.5133 23.8242 34.6018 23.844 34.8209 23.9975C35.0793 24.1784 35.1398 24.5408 34.9594 24.8261C34.8674 24.9716 33.6491 25.0002 25.4704 25.0488L16.0869 25.1045V26.9414V28.7783H28.5H40.9131L40.9422 24.52L40.9714 20.2617H28.5013H16.0312V22.0429ZM42.1934 24.5478V28.8339H48.9844H55.7754V24.5478V20.2617H48.9844H42.1934V24.5478ZM4.03219 22.6618C3.79651 22.8269 3.78516 22.9084 3.78516 24.4348C3.78516 26.161 3.85429 26.3847 4.38811 26.3847C4.91814 26.3847 5.00977 26.1035 5.00977 24.4768C5.00977 23.4449 4.96635 22.9209 4.8706 22.7991C4.65674 22.527 4.30651 22.4697 4.03219 22.6618ZM7.81735 22.6618C7.58211 22.8266 7.57031 22.9097 7.57031 24.3944C7.57031 25.2566 7.62186 26.0503 7.68554 26.1694C7.84841 26.4738 8.39915 26.4549 8.62158 26.1372C8.8468 25.8158 8.87474 23.0777 8.65576 22.7991C8.4419 22.527 8.09166 22.4697 7.81735 22.6618ZM11.3803 22.6616C11.1436 22.8273 11.1328 22.9063 11.1328 24.4762C11.1328 26.2369 11.1759 26.3847 11.6895 26.3847C12.203 26.3847 12.2461 26.2369 12.2461 24.4762C12.2461 22.9063 12.2353 22.8273 11.9986 22.6616C11.8626 22.5663 11.7234 22.4882 11.6895 22.4882C11.6555 22.4882 11.5163 22.5663 11.3803 22.6616ZM44.9611 22.7008C44.7129 22.9015 44.6966 22.9932 44.6674 24.3429C44.6326 25.9622 44.7294 26.3064 45.2364 26.3649C45.8196 26.4324 45.8672 26.2905 45.8672 24.4848C45.8672 22.9059 45.8565 22.8273 45.6197 22.6616C45.3066 22.4422 45.2787 22.4438 44.9611 22.7008ZM48.873 22.5655C48.4866 22.7036 48.4277 22.9592 48.4277 24.4962C48.4277 25.8274 48.453 26.0392 48.6314 26.2005C48.8879 26.4327 49.2506 26.4367 49.4774 26.2098C49.6197 26.0674 49.6523 25.7455 49.6523 24.4842C49.6523 23.082 49.6311 22.9123 49.4297 22.7109C49.198 22.4792 49.1498 22.4666 48.873 22.5655ZM52.4355 22.5655C52.0491 22.7036 51.9902 22.9592 51.9902 24.4962C51.9902 25.8274 52.0155 26.0392 52.1939 26.2005C52.4504 26.4327 52.8131 26.4367 53.0399 26.2098C53.1822 26.0674 53.2148 25.7455 53.2148 24.4842C53.2148 23.082 53.1936 22.9123 52.9922 22.7109C52.7605 22.4792 52.7123 22.4666 52.4355 22.5655ZM37.6832 23.937C37.396 24.2544 37.4211 24.8128 37.734 25.0662C38.2561 25.489 39.0019 25.1625 39.0019 24.511C39.0019 24.0436 38.6866 23.7129 38.2412 23.7129C38.0267 23.7129 37.8058 23.8016 37.6832 23.937ZM4.3418 42.917V55.7754H8.07129H11.8008V42.917V30.0586H8.07129H4.3418V42.917ZM13.0254 42.917V55.7754H16.2539H19.4824V42.917V30.0586H16.2539H13.0254V42.917ZM20.707 42.917V55.7754H22.21H23.7129V51.5683C23.7129 48.1252 23.7443 47.2407 23.8857 46.6977C24.3411 44.9486 25.7068 43.6339 27.4786 43.2389C29.4795 42.7928 31.5328 43.6765 32.5866 45.4374C33.2451 46.5378 33.2871 46.9055 33.2871 51.5683V55.7754H34.79H36.293V42.917V30.0586H28.5H20.707V42.917ZM37.5176 42.917V55.7754H40.8018H44.0859V42.917V30.0586H40.8018H37.5176V42.917ZM45.3105 42.917V55.7754H48.9844H52.6582V42.917V30.0586H48.9844H45.3105V42.917ZM15.8815 34.1587C15.7344 34.3211 15.6973 34.6004 15.6973 35.5422C15.6973 36.8233 15.7969 37.0722 16.3096 37.0722C16.824 37.0722 16.9219 36.8246 16.9219 35.523C16.9219 34.5023 16.8915 34.296 16.7183 34.1393C16.4512 33.8976 16.1106 33.9055 15.8815 34.1587ZM40.4741 34.3138C40.3462 34.4964 40.3008 34.8439 40.3008 35.6407C40.3008 36.2343 40.3326 36.8031 40.3716 36.9047C40.4889 37.2105 40.9572 37.3281 41.2621 37.1283C41.5135 36.9636 41.5254 36.8982 41.5254 35.686C41.5254 34.6801 41.489 34.3799 41.3505 34.2413C41.0993 33.9902 40.6762 34.0252 40.4741 34.3138ZM16.1426 41.4989C15.776 41.6132 15.6973 41.8941 15.6973 43.088C15.6973 44.0956 15.7279 44.3018 15.9009 44.4583C16.168 44.7 16.5085 44.6921 16.7376 44.4389C16.8844 44.2767 16.9219 43.9981 16.9219 43.0686C16.9219 41.8954 16.8443 41.6223 16.4766 41.5016C16.3847 41.4715 16.2344 41.4702 16.1426 41.4989ZM40.4741 41.8842C40.3465 42.0662 40.3008 42.4126 40.3008 43.1953C40.3008 44.3749 40.4493 44.7539 40.9114 44.7539C41.4284 44.7539 41.5254 44.5078 41.5254 43.1953C41.5254 42.2449 41.488 41.9492 41.3505 41.8116C41.0993 41.5605 40.6762 41.5955 40.4741 41.8842ZM27.6464 44.4083C26.9887 44.5781 26.1113 45.159 25.7018 45.6961C24.9595 46.6693 24.9375 46.8386 24.9375 51.5577V55.7754H28.5H32.0625V51.5577C32.0625 47.9796 32.0352 47.2556 31.8827 46.7834C31.4441 45.425 30.1829 44.448 28.7581 44.3628C28.3406 44.3378 27.8404 44.3583 27.6464 44.4083ZM16.1426 49.0692C15.7784 49.1827 15.6973 49.4654 15.6973 50.6199C15.6973 51.6191 15.7261 51.7964 15.9199 51.9902C16.0424 52.1127 16.2177 52.2129 16.3096 52.2129C16.4014 52.2129 16.5768 52.1127 16.6992 51.9902C16.893 51.7964 16.9219 51.6191 16.9219 50.6199C16.9219 49.4663 16.8431 49.1923 16.4766 49.0719C16.3847 49.0418 16.2344 49.0406 16.1426 49.0692ZM40.5234 49.3183C40.3296 49.5121 40.3008 49.6894 40.3008 50.6851C40.3008 51.9425 40.4408 52.3242 40.9022 52.3242C41.4119 52.3242 41.5254 52.0249 41.5254 50.6796C41.5254 49.5272 41.5084 49.4304 41.2779 49.269C40.9509 49.0399 40.7914 49.0504 40.5234 49.3183ZM0.021709 56.3877C0.0239355 56.5713 0.048873 56.633 0.0771504 56.5247C0.105428 56.4164 0.103535 56.2661 0.0730312 56.1907C0.0425273 56.1153 0.0194824 56.204 0.021709 56.3877Z" fill="white"/>
</g>
<defs>
<clipPath id="clip0_65_2145">
<rect width="57" height="57" fill="white"/>
</clipPath>
</defs>
</svg>
