<svg width="52" height="51" viewBox="0 0 52 51" fill="none" xmlns="http://www.w3.org/2000/svg">
<path fill-rule="evenodd" clip-rule="evenodd" d="M25.0629 2.44547V4.89095L24.7669 5.049C24.2894 5.304 24.0984 5.86813 24.0984 7.02465C24.0984 7.634 24.0488 8.05896 23.9778 8.05896C23.9115 8.05896 23.8572 7.86422 23.8572 7.62606C23.8572 6.68978 23.2256 6.01415 22.3501 6.01415C21.4747 6.01415 20.8431 6.68978 20.8431 7.62606V8.05896H20.2402H19.6374V9.20165V10.3443H20.3005H20.9636V11.3667V12.3892H17.1055H13.2473V11.902C13.2473 11.2479 12.9832 10.7788 12.4809 10.541C11.9572 10.2931 11.6438 10.2931 11.1201 10.541C10.6179 10.7788 10.3537 11.2479 10.3537 11.902V12.3892H9.02745H7.70121V11.487V10.5849H8.18348H8.66575V9.44222V8.29953H7.46008H6.25441V7.81238C6.25441 6.51946 5.0679 5.7452 3.96121 6.31606C3.50981 6.54905 3.32558 6.88885 3.2448 7.63797L3.17994 8.23939L2.0044 8.27379L0.828873 8.30819V9.44655V10.5849H1.31114H1.79341V12.329V14.0731H0.94944H0.105469V14.5542V15.0354H0.889157H1.67284V17.5613V20.0873H0.889157H0.105469V20.5083V20.9292H0.889157H1.67284V23.6958V26.4623H0.889157H0.105469V26.8833V27.3042H0.889157H1.67284V29.8903V32.4764H0.889157H0.105469V32.9576V33.4387H0.889157H1.67284V35.8443V38.25H0.889157H0.105469V38.7311V39.2123H0.889157H1.67284V41.4976V43.783H0.889157H0.105469V44.2586V44.7343L0.919299 44.7698L1.73313 44.8054V47.5118V50.2182L0.919299 50.2538C0.106313 50.2892 0.105469 50.2896 0.105469 50.6447V51H25.6055H51.1055V50.6392V50.2783H50.2615H49.4175V47.5118V44.7453H50.2615H51.1055V44.2642V43.783H50.2615H49.4175V41.4976V39.2123H50.2615H51.1055V38.7311V38.25H50.2615H49.4175V35.8443V33.4387H50.2615H51.1055V32.9576V32.4764H50.2615H49.4175V29.8903V27.3042H50.2615H51.1055V26.8833V26.4623H50.2615H49.4175V23.6958V20.9292H50.2615H51.1055V20.5083V20.0873H50.2615H49.4175V17.5613V15.0354H50.2615H51.1055V14.5542V14.0731H50.2615H49.4175V12.329V10.5849H49.8998H50.3821V9.44643V8.30795L49.1462 8.27367L47.9104 8.23939L47.8477 7.53573C47.7941 6.93347 47.7286 6.7818 47.3937 6.48325C46.8345 5.9848 45.9722 5.9848 45.413 6.48325C45.0781 6.7818 45.0126 6.93347 44.9589 7.53573L44.8962 8.23939L43.6604 8.27367L42.4246 8.30795V9.44643V10.5849H42.9069H43.3892V11.487V12.3892H42.1232H40.8572V11.8965C40.8572 11.2768 40.5579 10.7621 40.0607 10.5267C39.5845 10.3013 39.2753 10.2969 38.7681 10.5084C38.27 10.716 37.9797 11.1559 37.8848 11.8469L37.8103 12.3892H34.0288H30.2473V11.3667V10.3443H30.9104H31.5736V9.20165V8.05896H30.986H30.3985L30.3385 7.43493C30.1487 5.46422 27.3576 5.56983 27.3545 7.54776C27.3541 7.82898 27.3045 8.05896 27.2445 8.05896C27.1843 8.05896 27.1165 7.51143 27.0938 6.84218L27.0523 5.6254L26.5399 5.17193C26.0518 4.74011 26.0275 4.68635 26.0275 4.04319V3.36792H27.7154H29.4033V1.68396V0H27.2331H25.0629V2.44547ZM26.1079 1.04249C26.0636 1.08652 26.0275 1.41128 26.0275 1.76419V2.40566H27.2331H28.4388V1.68396V0.962264H27.3135C26.6946 0.962264 26.152 0.998349 26.1079 1.04249ZM25.2076 5.91792C25.1183 6.00705 25.0629 6.44452 25.0629 7.06061V8.05896H25.6055H26.148V7.06061C26.148 6.00838 26.049 5.77359 25.6055 5.77359C25.4662 5.77359 25.2872 5.83854 25.2076 5.91792ZM4.47049 7.16526C4.27192 7.30407 4.20476 7.47246 4.20476 7.83211V8.31336L4.71717 8.27631C5.2256 8.23963 5.22958 8.23566 5.22958 7.77293C5.22958 7.16213 4.87789 6.88055 4.47049 7.16526ZM21.9523 7.12075C21.8727 7.20014 21.8076 7.44371 21.8076 7.66203C21.8076 8.05223 21.8168 8.05896 22.3501 8.05896C22.8835 8.05896 22.8927 8.05223 22.8927 7.66203C22.8927 7.20495 22.7119 6.97642 22.3501 6.97642C22.2109 6.97642 22.0319 7.04137 21.9523 7.12075ZM28.4629 7.12075C28.3833 7.20014 28.3182 7.44371 28.3182 7.66203C28.3182 8.05223 28.3274 8.05896 28.8608 8.05896C29.3942 8.05896 29.4033 8.05223 29.4033 7.66203C29.4033 7.20495 29.2225 6.97642 28.8608 6.97642C28.7215 6.97642 28.5425 7.04137 28.4629 7.12075ZM45.9179 7.34316C45.8451 7.47884 45.8026 7.73588 45.8232 7.9145C45.8578 8.21377 45.9035 8.23939 46.4033 8.23939C46.9032 8.23939 46.9489 8.21377 46.9835 7.9145C47.0409 7.41761 46.8133 7.0967 46.4033 7.0967C46.1706 7.0967 46.005 7.18078 45.9179 7.34316ZM20.6019 9.20165C20.6019 9.3591 21.2383 9.38208 25.6055 9.38208C29.9727 9.38208 30.609 9.3591 30.609 9.20165C30.609 9.0442 29.9727 9.02123 25.6055 9.02123C21.2383 9.02123 20.6019 9.0442 20.6019 9.20165ZM1.73313 9.26179C1.53745 9.57754 1.91482 9.62264 4.75443 9.62264C7.62079 9.62264 7.70121 9.61603 7.70121 9.38208C7.70121 9.14813 7.62079 9.14151 4.75443 9.14151C2.91999 9.14151 1.77955 9.18686 1.73313 9.26179ZM43.4716 9.21957C43.4263 9.26492 43.3892 9.37498 43.3892 9.46435C43.3892 9.59726 43.9317 9.62096 46.3732 9.59462C48.9309 9.56707 49.3572 9.53676 49.3572 9.38208C49.3572 9.22763 48.9402 9.19708 46.4557 9.16954C44.8598 9.15185 43.517 9.17435 43.4716 9.21957ZM22.0103 10.4228C21.9652 10.4679 21.9282 10.9287 21.9282 11.447V12.3892H25.6103H29.2925L29.2575 11.3968L29.2225 10.4045L25.6574 10.3726C23.6966 10.3552 22.0555 10.3777 22.0103 10.4228ZM2.63738 12.329V14.0731H4.68703H6.73667V12.329V10.5849H4.68703H2.63738V12.329ZM44.3537 12.329V14.0731H46.4033H48.453V12.329V10.5849H46.4033H44.3537V12.329ZM11.3854 11.574C11.2822 11.721 11.1977 11.9646 11.1977 12.1153C11.1977 12.3638 11.2536 12.3892 11.8005 12.3892C12.3474 12.3892 12.4033 12.3638 12.4033 12.1153C12.4033 11.7428 12.0782 11.3066 11.8005 11.3066C11.6754 11.3066 11.4886 11.4269 11.3854 11.574ZM39.0071 11.5266C38.8974 11.6476 38.8076 11.8912 38.8076 12.0679C38.8076 12.3742 38.8362 12.3892 39.4255 12.3892H40.0434L39.9673 12.0097C39.8265 11.3074 39.4004 11.0931 39.0071 11.5266ZM7.70121 13.7123V14.0731H14.3324H20.9636V13.7123V13.3514H14.3324H7.70121V13.7123ZM21.9282 13.7123V14.0731H25.6055H29.2828V13.7123V13.3514H25.6055H21.9282V13.7123ZM30.2473 13.7123V14.0731H36.8182H43.3892V13.7123V13.3514H36.8182H30.2473V13.7123ZM2.75795 17.5613V20.0873H4.74731H6.73667V17.5613V15.0354H4.74731H2.75795V17.5613ZM7.72894 17.5312L7.7615 20.0271H11.5594H15.3572L15.3898 17.5312L15.4225 15.0354H11.5594H7.69627L7.72894 17.5312ZM16.2892 17.5312L16.3218 20.0271L16.9548 20.0634L17.5877 20.0999V18.5679C17.5877 16.8165 17.763 16.2625 18.4675 15.7871C19.0257 15.4105 20.0472 15.4107 20.6077 15.7875C21.3572 16.2914 21.5011 16.7057 21.5481 18.4951L21.5902 20.0905L25.5871 20.0588L29.5842 20.0271L29.6445 18.4033C29.7122 16.5791 29.842 16.1929 30.5299 15.7687C31.0725 15.4341 32.0863 15.4259 32.622 15.7518C33.3396 16.1884 33.4361 16.4714 33.5026 18.337L33.5629 20.0271L34.1959 20.0634L34.8289 20.0999V17.5676V15.0354H25.5428H16.2566L16.2892 17.5312ZM35.7934 17.5613V20.0873H39.5913H43.3892V17.5613V15.0354H39.5913H35.7934V17.5613ZM44.3814 17.5312L44.414 20.0271L46.4335 20.0601L48.453 20.093V17.5642V15.0354H46.4009H44.3488L44.3814 17.5312ZM19.1982 16.4778C18.6539 16.6968 18.5523 17.0332 18.5523 18.6154V20.097L19.547 20.062L20.5416 20.0271L20.5781 18.8243C20.6271 17.2007 20.5562 16.8817 20.083 16.5938C19.659 16.3359 19.5773 16.3252 19.1982 16.4778ZM31.2549 16.4778C30.7107 16.6968 30.609 17.0332 30.609 18.6154V20.097L31.6037 20.062L32.5984 20.0271L32.6357 18.8243C32.6814 17.3576 32.537 16.7872 32.0571 16.5396C31.662 16.3358 31.6164 16.3323 31.2549 16.4778ZM8.90689 17.862V19.125H9.32887H9.75086V17.862V16.5991H9.32887H8.90689V17.862ZM11.1977 17.862V19.125H11.6799H12.1622V17.862V16.5991H11.6799H11.1977V17.862ZM13.609 17.862V19.125H14.0913H14.5736V17.862V16.5991H14.0913H13.609V17.862ZM36.9991 17.862V19.125H37.4814H37.9636V17.862V16.5991H37.4814H36.9991V17.862ZM39.4104 17.862V19.125H39.8324H40.2544V17.862V16.5991H39.8324H39.4104V17.862ZM41.7012 17.862V19.125H42.1835H42.6658V17.862V16.5991H42.1835H41.7012V17.862ZM22.7721 18.0425V19.2453H23.2544H23.7367V18.0425V16.8396H23.2544H22.7721V18.0425ZM25.1835 18.0425V19.2453H25.6055H26.0275V18.0425V16.8396H25.6055H25.1835V18.0425ZM27.4743 18.0425V19.2453H27.9565H28.4388V18.0425V16.8396H27.9565H27.4743V18.0425ZM2.75795 23.6958V26.4623H4.74731H6.73667V23.6958V20.9292H4.74731H2.75795V23.6958ZM7.75595 21.0808C7.72316 21.1661 7.71098 22.3983 7.72882 23.819L7.7615 26.4021H11.5594H15.3572V23.6958V20.9894L11.5864 20.9576C8.59703 20.9324 7.80321 20.958 7.75595 21.0808ZM16.3155 21.0826C16.2831 21.1669 16.2713 22.3983 16.2891 23.819L16.3218 26.4021L25.5753 26.4329L34.8289 26.4637V23.6965V20.9292H25.6017C18.2357 20.9292 16.3627 20.9602 16.3155 21.0826ZM35.7934 23.6958V26.4623H39.5913H43.3892V23.6958V20.9292H39.5913H35.7934V23.6958ZM44.4077 21.0826C44.3753 21.1669 44.3635 22.3983 44.3813 23.819L44.414 26.4021L46.4335 26.4351L48.453 26.468V23.6986V20.9292H46.4599C44.9559 20.9292 44.4522 20.9669 44.4077 21.0826ZM22.7721 23.9965V25.2594H23.2544H23.7367V23.9965V22.7335H23.2544H22.7721V23.9965ZM25.1835 23.9965V25.2594H25.6055H26.0275V23.9965V22.7335H25.6055H25.1835V23.9965ZM27.4743 23.9965V25.2594H27.9565H28.4388V23.9965V22.7335H27.9565H27.4743V23.9965ZM17.8289 23.9965V24.8986H18.3111H18.7934V23.9965V23.0943H18.3111H17.8289V23.9965ZM32.1764 23.9965V24.8986H32.5984H33.0204V23.9965V23.0943H32.5984H32.1764V23.9965ZM2.75795 29.8903V32.4764H4.74731H6.73667V29.8903V27.3042H4.74731H2.75795V29.8903ZM7.78332 27.3828C7.73811 27.4278 7.70121 28.5931 7.70121 29.9722V32.4798L11.5292 32.448L15.3572 32.4163V29.8903V27.3644L11.6113 27.3326C9.55108 27.3152 7.82841 27.3377 7.78332 27.3828ZM16.3154 27.458C16.2828 27.5425 16.271 28.6928 16.289 30.014L16.3218 32.4163L16.9454 32.4524L17.5688 32.4883L17.6085 30.8669C17.6431 29.4468 17.6794 29.2033 17.9002 28.9063C18.8139 27.6778 20.5111 27.7195 21.2585 28.9886C21.4654 29.3399 21.5132 29.6619 21.5484 30.9428L21.5907 32.4764H25.6175H29.6445L29.6464 30.9428C29.6482 29.578 29.6781 29.3576 29.9177 28.9406C30.5955 27.7612 32.4807 27.6959 33.2248 28.8259C33.398 29.089 33.4546 29.4889 33.5026 30.7863L33.5629 32.4163L34.1959 32.4526L34.8289 32.489V29.8966V27.3042H25.6017C18.2225 27.3042 16.3627 27.335 16.3154 27.458ZM35.7934 29.8903V32.4764H39.5913H43.3892V29.8903V27.3042H39.5913H35.7934V29.8903ZM44.4341 27.3845C44.3899 27.4285 44.3537 28.5922 44.3537 29.9706V32.4764H46.4033H48.453V29.8903V27.3042H46.4838C45.4006 27.3042 44.4782 27.3403 44.4341 27.3845ZM19.3082 28.9614C19.1603 28.985 18.9298 29.1433 18.7958 29.3132C18.5825 29.5836 18.5523 29.7995 18.5523 31.0493V32.4764H19.5771H20.6019V31.1473C20.6019 30.2134 20.5492 29.7166 20.4247 29.4764C20.2367 29.1137 19.7529 28.8904 19.3082 28.9614ZM31.2549 28.9883C30.7158 29.203 30.609 29.5466 30.609 31.0647V32.4862L31.6037 32.4512L32.5984 32.4163V31.0054C32.5984 29.6582 32.5848 29.5813 32.297 29.3037C31.9318 28.9514 31.5998 28.851 31.2549 28.9883ZM8.90689 30.3715V31.6344H9.32887H9.75086V30.3715V29.1085H9.32887H8.90689V30.3715ZM11.1977 30.3715V31.6344H11.6799H12.1622V30.3715V29.1085H11.6799H11.1977V30.3715ZM13.609 30.3715V31.6344H14.0913H14.5736V30.3715V29.1085H14.0913H13.609V30.3715ZM22.7721 30.3715V31.6344H23.2544H23.7367V30.3715V29.1085H23.2544H22.7721V30.3715ZM25.1835 30.3715V31.6344H25.6055H26.0275V30.3715V29.1085H25.6055H25.1835V30.3715ZM27.4743 30.3715V31.6344H27.9565H28.4388V30.3715V29.1085H27.9565H27.4743V30.3715ZM36.9991 30.3715V31.6344H37.4814H37.9636V30.3715V29.1085H37.4814H36.9991V30.3715ZM39.4104 30.3715V31.6344H39.8324H40.2544V30.3715V29.1085H39.8324H39.4104V30.3715ZM41.7012 30.3715V31.6344H42.1835H42.6658V30.3715V29.1085H42.1835H41.7012V30.3715ZM2.75795 35.8443V38.25H4.74731H6.73667V35.8443V33.4387H4.74731H2.75795V35.8443ZM7.70121 35.846V38.2534L11.5292 38.2216L15.3572 38.1899L15.3899 35.8143L15.4226 33.4387H11.5619H7.70121V35.846ZM16.2891 35.8143L16.3218 38.1899L25.5753 38.2207L34.8289 38.2514V35.8451V33.4387H25.5427H16.2564L16.2891 35.8143ZM35.7934 35.8443V38.25H39.5913H43.3892V35.8443V33.4387H39.5913H35.7934V35.8443ZM44.3537 35.8443V38.25H46.4033H48.453V35.8443V33.4387H46.4033H44.3537V35.8443ZM22.7721 35.7842V37.0472H23.2544H23.7367V35.7842V34.5212H23.2544H22.7721V35.7842ZM25.1835 35.7842V37.0472H25.6055H26.0275V35.7842V34.5212H25.6055H25.1835V35.7842ZM27.4743 35.7842V37.0472H27.9565H28.4388V35.7842V34.5212H27.9565H27.4743V35.7842ZM17.8289 35.7842V36.6863H18.3111H18.7934V35.7842V34.8821H18.3111H17.8289V35.7842ZM32.1764 35.7842V36.6863H32.5984H33.0204V35.7842V34.8821H32.5984H32.1764V35.7842ZM2.75795 41.4976V43.783H4.74731H6.73667V41.4976V39.2123H4.74731H2.75795V41.4976ZM7.70121 41.4976V43.783H8.30405H8.90689V42.7005V41.6179H9.32887H9.75086V42.7005V43.783H10.4743H11.1977V42.7005V41.6179H11.6799H12.1622V42.7005V43.783H12.8856H13.609V42.7005V41.6179H14.0913H14.5736V42.7005V43.783H14.9955H15.4175V41.4976V39.2123H11.5594H7.70121V41.4976ZM16.2904 44.7152L16.3218 50.2182H18.8537H21.3856L21.4459 47.0908C21.5057 43.9907 21.5089 43.9582 21.827 43.3572C22.2172 42.6196 23.0761 41.8073 23.836 41.4569C24.2836 41.2506 24.6236 41.1974 25.4849 41.1993C26.4879 41.2016 26.6278 41.2329 27.3337 41.6124C28.1749 42.0648 28.7722 42.7082 29.1901 43.6122C29.4477 44.1695 29.4658 44.3809 29.5012 47.2412L29.539 50.2783H32.1839H34.8289V44.7453V39.2123H25.544H16.2591L16.2904 44.7152ZM35.7934 41.4976V43.783H36.3962H36.9991V42.7005V41.6179H37.4814H37.9636V42.7005V43.783H38.687H39.4104V42.7005V41.6179H39.8324H40.2544V42.7005V43.783H40.9778H41.7012V42.7005V41.6179H42.1835H42.6658V42.7005V43.783H43.0275H43.3892V41.4976V39.2123H39.5913H35.7934V41.4976ZM44.3537 41.4976V43.783H46.4033H48.453V41.4976V39.2123H46.4033H44.3537V41.4976ZM24.4297 42.2707C23.8747 42.4683 23.2273 42.9497 22.9221 43.3919C22.3898 44.1631 22.3501 44.4404 22.3501 47.3915V50.2182L25.4625 50.2503L28.5747 50.2824L28.5369 47.3033C28.5015 44.5177 28.4822 44.293 28.2384 43.8432C27.4784 42.4407 25.8456 41.7666 24.4297 42.2707ZM17.8289 43.0613V43.9033H18.3111H18.7934V43.0613V42.2193H18.3111H17.8289V43.0613ZM32.1764 43.0613V43.9033H32.5984H33.0204V43.0613V42.2193H32.5984H32.1764V43.0613ZM2.71877 44.8244C2.67404 44.8691 2.63738 46.0874 2.63738 47.5319V50.158H9.02975H15.4221L15.3897 47.4817L15.3572 44.8054L9.0787 44.7743C5.62565 44.7572 2.76362 44.7797 2.71877 44.8244ZM35.7934 47.4517V50.158H42.1232H48.453V47.4517V44.7453H42.1232H35.7934V47.4517Z" fill="white"/>
</svg>
