<svg width="57" height="47" viewBox="0 0 57 47" fill="none" xmlns="http://www.w3.org/2000/svg">
<path d="M56.0489 13.5732H1.10547V46.2981H56.0489V13.5732Z" stroke="white" stroke-miterlimit="10" stroke-linecap="round" stroke-linejoin="round"/>
<path d="M56.0489 16.5012H1.10547" stroke="white" stroke-miterlimit="10" stroke-linecap="round" stroke-linejoin="round"/>
<path d="M36.4136 46.2983C36.4136 46.2983 36.4136 38.3754 36.4136 32.3472C36.4136 26.3189 28.1462 23.0464 28.1462 23.0464C28.1462 23.0464 19.8789 26.3189 19.8789 32.3472C19.8789 38.3754 19.8789 46.2983 19.8789 46.2983" stroke="white" stroke-miterlimit="10" stroke-linecap="round" stroke-linejoin="round"/>
<path d="M13.6782 41.9923C13.6782 41.9923 13.6782 37.8587 13.6782 34.7584C13.6782 31.6582 9.37231 29.9358 9.37231 29.9358C9.37231 29.9358 5.06641 31.6582 5.06641 34.7584C5.06641 37.8587 5.06641 41.9923 5.06641 41.9923" stroke="white" stroke-miterlimit="10" stroke-linecap="round" stroke-linejoin="round"/>
<path d="M40.0311 46.298V20.2903H27.9745H15.918V46.298" stroke="white" stroke-miterlimit="10" stroke-linecap="round" stroke-linejoin="round"/>
<path d="M27.9746 20.2904V16.5012" stroke="white" stroke-miterlimit="10" stroke-linecap="round" stroke-linejoin="round"/>
<path d="M22.9795 20.2904V16.5012" stroke="white" stroke-miterlimit="10" stroke-linecap="round" stroke-linejoin="round"/>
<path d="M17.9844 20.2904V16.5012" stroke="white" stroke-miterlimit="10" stroke-linecap="round" stroke-linejoin="round"/>
<path d="M12.8174 20.2904V16.5012" stroke="white" stroke-miterlimit="10" stroke-linecap="round" stroke-linejoin="round"/>
<path d="M7.82227 20.2904V16.5012" stroke="white" stroke-miterlimit="10" stroke-linecap="round" stroke-linejoin="round"/>
<path d="M33.1416 20.2904V16.5012" stroke="white" stroke-miterlimit="10" stroke-linecap="round" stroke-linejoin="round"/>
<path d="M38.1367 20.2904V16.5012" stroke="white" stroke-miterlimit="10" stroke-linecap="round" stroke-linejoin="round"/>
<path d="M43.1309 20.2904V16.5012" stroke="white" stroke-miterlimit="10" stroke-linecap="round" stroke-linejoin="round"/>
<path d="M48.126 20.2904V16.5012" stroke="white" stroke-miterlimit="10" stroke-linecap="round" stroke-linejoin="round"/>
<path d="M13.506 24.5962H5.06641V46.298H13.506V24.5962Z" stroke="white" stroke-miterlimit="10" stroke-linecap="round" stroke-linejoin="round"/>
<path d="M13.6782 27.5242H5.06641" stroke="white" stroke-miterlimit="10" stroke-linecap="round" stroke-linejoin="round"/>
<path d="M42.4424 41.9923C42.4424 41.9923 42.4424 37.8587 42.4424 34.7584C42.4424 31.6582 46.7483 29.9358 46.7483 29.9358C46.7483 29.9358 51.0542 31.6582 51.0542 34.7584C51.0542 37.8587 51.0542 41.9923 51.0542 41.9923" stroke="white" stroke-miterlimit="10" stroke-linecap="round" stroke-linejoin="round"/>
<path d="M42.4618 46.2651H50.9014V24.5634H42.4618V46.2651Z" stroke="white" stroke-miterlimit="10" stroke-linecap="round" stroke-linejoin="round"/>
<path d="M42.4424 27.5242H50.882" stroke="white" stroke-miterlimit="10" stroke-linecap="round" stroke-linejoin="round"/>
<path d="M19.707 33.0358V20.2903" stroke="white" stroke-miterlimit="10" stroke-linecap="round" stroke-linejoin="round"/>
<path d="M36.4141 33.0358V20.2903" stroke="white" stroke-miterlimit="10" stroke-linecap="round" stroke-linejoin="round"/>
<path d="M1.10547 13.5735V10.6455H56.0489V13.5735" stroke="white" stroke-miterlimit="10" stroke-linecap="round" stroke-linejoin="round"/>
<path d="M30.769 9.39518C32.0654 7.87541 31.8844 5.59243 30.3646 4.29599C28.8448 2.99955 26.5618 3.18059 25.2654 4.70036C23.9689 6.22013 24.15 8.50313 25.6698 9.79956C27.1895 11.096 29.4725 10.915 30.769 9.39518Z" stroke="white" stroke-miterlimit="10" stroke-linecap="round" stroke-linejoin="round"/>
<path d="M17.9844 13.5732V1H38.136V13.5732" stroke="white" stroke-miterlimit="10" stroke-linecap="round" stroke-linejoin="round"/>
<path d="M11.7842 13.5733V5.65039H17.9847" stroke="white" stroke-miterlimit="10" stroke-linecap="round" stroke-linejoin="round"/>
<path d="M44.3372 13.5733V5.65039H38.1367" stroke="white" stroke-miterlimit="10" stroke-linecap="round" stroke-linejoin="round"/>
</svg>
