<svg width="47" height="53" viewBox="0 0 47 53" fill="none" xmlns="http://www.w3.org/2000/svg">
<path fill-rule="evenodd" clip-rule="evenodd" d="M18.295 0.446629C18.295 0.866461 18.2598 0.893258 17.7096 0.893258H17.1244L17.0526 4.8757C16.9792 8.93884 16.8874 9.64451 16.3469 10.2978L16.0598 10.6447L15.4111 10.3036C15.0543 10.116 13.6875 8.96087 12.3738 7.73681C9.53517 5.09157 8.98978 4.83863 7.53522 5.49279C6.39454 6.00582 6.17927 7.20577 6.6543 10.4023C7.55627 16.47 9.39927 21.2052 11.8093 23.6466C13.3254 25.1826 14.8364 25.8854 16.9045 26.0166L18.1447 26.0954V27.8609V29.6264H12.6578H7.17083V38.4101V47.1938H3.63815H0.105469V50.0969V53H23.1055H46.1055V50.0969V47.1938H42.6492H39.1928L39.1541 38.4473L39.1153 29.7008L29.3816 29.6626L19.648 29.6242V27.6316V25.639L20.0469 25.5399C20.2664 25.4853 21.19 25.104 22.0996 24.6925C24.9587 23.3989 27.3993 22.4838 32.0048 20.9782C36.882 19.3837 37.9057 18.9658 38.5879 18.2901C39.7659 17.1235 38.5983 15.0035 36.2792 14.098C35.2556 13.6983 32.1814 13.5875 30.2062 13.8792L28.8132 14.0847L28.1016 12.8114L27.3898 11.5379L27.3468 6.21559L27.3038 0.893258H26.4824C25.67 0.893258 25.661 0.888345 25.661 0.446629C25.661 0.0248624 25.6277 0 25.0597 0C24.4918 0 24.4584 0.0248624 24.4584 0.446629V0.893258H23.4813H22.5042V0.446629C22.5042 0.0248624 22.4708 0 21.9029 0C21.3349 0 21.3015 0.0248624 21.3015 0.446629V0.893258H20.3996H19.4976V0.446629C19.4976 0.0248624 19.4643 0 18.8963 0C18.3284 0 18.295 0.0248624 18.295 0.446629ZM18.5482 2.47864C18.4916 2.53477 18.4446 3.99301 18.4435 5.71938C18.4417 8.9165 18.33 9.79398 17.7946 10.819C17.423 11.5302 16.7889 11.9101 15.9734 11.9101C14.7631 11.9101 14.3719 11.6319 10.587 8.07893C9.09757 6.68068 8.67094 6.47061 8.07745 6.84236C7.2499 7.3606 9.00512 16.0388 10.5442 19.0379L10.8847 19.7013L11.3639 18.8108C13.4083 15.0122 18.1729 12.1906 24.2329 11.1898L25.8865 10.9168V6.68664V2.45646L22.2688 2.41671C20.279 2.39483 18.6047 2.42267 18.5482 2.47864ZM24.3081 12.6584C20.2914 13.3649 17.1085 14.7657 14.7623 16.8595C13.8241 17.6969 12.8338 19.0155 13.2678 18.8494C17.757 17.1315 21.5628 15.8748 25.0854 14.9473L27.291 14.3666L26.739 13.3627C26.4355 12.8105 26.1195 12.3637 26.0368 12.3697C25.9542 12.3758 25.1762 12.5058 24.3081 12.6584ZM31.569 15.1887C27.5921 15.5911 21.1691 17.38 14.7508 19.8729C11.3904 21.1781 11.5942 21.0473 12.0088 21.632C12.6247 22.5007 13.9025 23.607 14.7892 24.0392C15.4433 24.358 15.9501 24.4826 16.7955 24.5323C18.2379 24.6173 19.28 24.3565 21.4834 23.3587C24.1895 22.1335 27.6898 20.8244 31.939 19.4483C36.0859 18.1055 37.4501 17.5594 37.5956 17.1839C37.7459 16.7959 36.4249 15.6652 35.5315 15.4173C34.4694 15.1226 33.0386 15.0399 31.569 15.1887ZM8.6741 39.1545V47.1938H12.2068H15.7395V44.5885V41.9831H16.9421H18.1447V36.5492V31.1152H13.4094H8.6741V39.1545ZM19.648 36.548V41.9831H20.7754H21.9029V44.5885V47.1938H25.1349H28.3669V42.132V37.0702H33.0302H37.6935L37.6527 34.1299L37.612 31.1896L28.63 31.1512L19.648 31.1128V36.548ZM29.8702 42.8764V47.1938H33.7035H37.5368V42.8764V38.559H33.7035H29.8702V42.8764ZM17.2427 45.3329V47.1938H18.8212H20.3996V45.3329V43.4719H18.8212H17.2427V45.3329ZM1.64091 50.1341L1.6839 51.5857H23.1055H44.527L44.57 50.1341L44.613 48.6826H23.1055H1.59791L1.64091 50.1341Z" fill="white"/>
</svg>
