<svg width="55" height="48" viewBox="0 0 55 48" fill="none" xmlns="http://www.w3.org/2000/svg">
<path fill-rule="evenodd" clip-rule="evenodd" d="M26.8863 0.776654C26.7472 0.91902 26.6763 1.24078 26.6763 1.73045C26.6763 2.42548 26.6544 2.47453 26.3087 2.55282C24.9097 2.86938 24.1098 3.32886 23.2144 4.33035C22.8404 4.74856 22.4172 5.41381 22.2432 5.85675C21.9458 6.61449 21.9333 6.80591 21.8916 11.3215L21.8483 16.001H20.9875H20.1267V13.2288C20.1267 10.2704 19.9905 9.31522 19.4325 8.35759C19.0607 7.72009 18.448 7.04446 17.7956 6.55274C17.2985 6.1781 17.2709 6.11976 17.3026 5.50781C17.36 4.40426 16.9328 3.65718 15.9497 3.14182C15.5922 2.9545 15.4484 2.78973 15.4484 2.56771C15.4484 2.17873 15.2128 1.92829 14.8469 1.92829C14.4812 1.92829 14.2454 2.17873 14.2454 2.56689C14.2454 2.78044 14.1094 2.94795 13.811 3.10206C12.7637 3.64324 12.3403 4.34237 12.3904 5.4481C12.424 6.18835 12.4101 6.22223 11.9564 6.51585C11.2174 6.99391 10.278 8.15511 9.94233 9.00534C9.64158 9.76773 9.6341 9.90476 9.59413 15.4247L9.55336 21.0651L9.1259 20.723C8.72491 20.4022 8.69831 20.3267 8.69831 19.5134C8.69831 18.437 8.26563 17.6693 7.43984 17.2799C7.05409 17.0979 6.8997 16.941 6.8973 16.728C6.89302 16.3623 6.55912 16.001 6.22549 16.001C5.88398 16.001 5.55716 16.3659 5.55716 16.7474C5.55716 16.9643 5.45999 17.0893 5.24933 17.1433C4.8077 17.2567 3.9886 18.1417 3.80815 18.7005C3.72341 18.9629 3.68839 19.4336 3.73036 19.7466C3.80374 20.2938 3.78169 20.3377 3.15292 20.8912C2.72172 21.271 2.34866 21.7795 2.0566 22.3857L1.61403 23.3045L1.57767 34.7501L1.54132 46.1957H1.08592C0.328167 46.1957 -0.0558538 46.8603 0.42053 47.3474C0.610068 47.5411 3.22524 47.562 27.211 47.562C51.1967 47.562 53.8119 47.5411 54.0014 47.3474C54.4776 46.8606 54.0938 46.1957 53.3367 46.1957H52.8821L52.845 34.7501L52.8079 23.3045L52.3686 22.3926C52.0922 21.8186 51.6957 21.2703 51.2993 20.9136C50.675 20.3517 50.6693 20.3389 50.6693 19.4945C50.6693 18.7792 50.6078 18.5518 50.2859 18.0768C50.0719 17.7609 49.675 17.4039 49.3872 17.2683C49.0221 17.0966 48.8707 16.9388 48.8683 16.728C48.864 16.3623 48.5301 16.001 48.1965 16.001C47.855 16.001 47.5282 16.3659 47.5282 16.7474C47.5282 16.9643 47.431 17.0893 47.2203 17.1433C46.7787 17.2567 45.9596 18.1417 45.7791 18.7005C45.6944 18.9629 45.6603 19.4407 45.7035 19.7625C45.7769 20.3091 45.7516 20.3709 45.3184 20.7088L44.8548 21.0701V15.7634C44.8548 11.4297 44.8172 10.3088 44.6494 9.65023C44.3265 8.38328 43.6557 7.4057 42.5237 6.55274C42.0266 6.1781 41.9991 6.11976 42.0308 5.50781C42.0881 4.40426 41.6609 3.65718 40.6778 3.14182C40.3204 2.9545 40.1765 2.78973 40.1765 2.56771C40.1765 2.17873 39.9409 1.92829 39.5751 1.92829C39.2093 1.92829 38.9736 2.17873 38.9736 2.56689C38.9736 2.78044 38.8375 2.94795 38.5391 3.10206C37.4919 3.64324 37.0684 4.34237 37.1185 5.4481C37.1521 6.18835 37.1382 6.22223 36.6845 6.51585C35.9418 6.99637 35.0046 8.1577 34.6755 9.00534C34.3995 9.71677 34.3689 10.0541 34.3233 12.8927L34.2733 16.001H33.4371H32.6008L32.514 11.663C32.4015 6.03956 32.2402 5.37897 30.6086 3.85474C29.9467 3.23637 28.7403 2.61143 28.2084 2.61143C28.059 2.61143 28.013 2.42111 28.013 1.80136C28.013 0.940334 27.809 0.562012 27.3447 0.562012C27.2082 0.562012 27.0019 0.658608 26.8863 0.776654ZM26.1417 3.96063C24.9903 4.34811 24.1267 5.09369 23.5896 6.16376C23.3391 6.66286 23.2707 7.05484 23.2263 8.24733L23.1715 9.71608H27.1442H31.1168L31.0618 8.24733C31.0148 6.99609 30.9551 6.67734 30.658 6.09544C29.9712 4.75034 28.7919 3.96623 27.3447 3.89245C26.8668 3.86813 26.3255 3.89888 26.1417 3.96063ZM14.063 4.53419C13.8145 4.73394 13.7108 4.94517 13.7108 5.25149V5.68556H14.8469H15.9831V5.25149C15.9831 4.70949 15.4623 4.25097 14.8469 4.25097C14.6094 4.25097 14.2567 4.37844 14.063 4.53419ZM38.7911 4.53419C38.5426 4.73394 38.4389 4.94517 38.4389 5.25149V5.68556H39.5751H40.7112V5.25149C40.7112 4.70949 40.1904 4.25097 39.5751 4.25097C39.3375 4.25097 38.9848 4.37844 38.7911 4.53419ZM13.9425 7.1248C12.3263 7.53782 11.1357 8.89604 10.9446 10.5451L10.8665 11.219H14.8469H18.8274L18.7494 10.5465C18.653 9.71554 18.1562 8.69602 17.5655 8.11767C16.7006 7.27071 15.0942 6.8305 13.9425 7.1248ZM38.6707 7.1248C37.0544 7.53782 35.8638 8.89604 35.6727 10.5451L35.5946 11.219H39.5751H43.5555L43.4776 10.5465C43.3812 9.71554 42.8843 8.69602 42.2937 8.11767C41.4287 7.27071 39.8223 6.8305 38.6707 7.1248ZM23.201 13.5417V16.001H27.211H31.221V13.5417V11.0824H27.211H23.201V13.5417ZM24.3467 11.8435C24.1817 12.0123 24.1367 12.3743 24.1367 13.5302C24.1367 14.7828 24.1732 15.036 24.3812 15.2283C24.6989 15.5222 24.9776 15.5146 25.2521 15.2046C25.4287 15.0052 25.4733 14.6624 25.4733 13.5065C25.4733 11.976 25.3497 11.6289 24.805 11.6289C24.6685 11.6289 24.4623 11.7255 24.3467 11.8435ZM26.7526 11.8435C26.5877 12.0123 26.5427 12.3743 26.5427 13.5302C26.5427 14.7828 26.5792 15.036 26.7871 15.2283C27.1049 15.5222 27.3836 15.5146 27.6581 15.2046C27.8347 15.0052 27.8793 14.6624 27.8793 13.5065C27.8793 11.976 27.7557 11.6289 27.211 11.6289C27.0745 11.6289 26.8683 11.7255 26.7526 11.8435ZM29.1586 11.8435C28.9937 12.0123 28.9486 12.3743 28.9486 13.5302C28.9486 14.7828 28.9851 15.036 29.1931 15.2283C29.5108 15.5222 29.7895 15.5146 30.0641 15.2046C30.2407 15.0052 30.2853 14.6624 30.2853 13.5065C30.2853 11.976 30.1617 11.6289 29.617 11.6289C29.4805 11.6289 29.2743 11.7255 29.1586 11.8435ZM10.9038 14.2931V16.001H14.8469H18.7901V14.2931V12.5853H14.8469H10.9038V14.2931ZM35.6319 14.2931V16.001H39.5751H43.5182V14.2931V12.5853H39.5751H35.6319V14.2931ZM13.7375 13.7056C13.6493 13.7958 13.5771 14.0294 13.5771 14.2248C13.5771 14.7821 13.8109 14.9079 14.8469 14.9079C15.883 14.9079 16.1167 14.7821 16.1167 14.2248C16.1167 13.6675 15.883 13.5417 14.8469 13.5417C14.287 13.5417 13.8321 13.6089 13.7375 13.7056ZM38.4656 13.7056C38.3774 13.7958 38.3052 14.0294 38.3052 14.2248C38.3052 14.7821 38.539 14.9079 39.5751 14.9079C40.6111 14.9079 40.8449 14.7821 40.8449 14.2248C40.8449 13.6675 40.6111 13.5417 39.5751 13.5417C39.0151 13.5417 38.5603 13.6089 38.4656 13.7056ZM10.9038 22.1492V26.9312H11.7726H12.6414V24.9598C12.6414 23.3499 12.6799 22.9492 12.8514 22.7737C13.0213 22.6002 13.4011 22.5591 14.8357 22.5591C17.1567 22.5591 17.0524 22.4445 17.0524 24.995V26.9312H17.9212H18.7901V22.1492V17.3672H14.8469H10.9038V22.1492ZM20.1267 22.1492V26.9312H20.5945H21.0624V26.2768C21.0624 22.2908 24.9756 19.1695 28.7223 20.167C31.4947 20.9051 33.4933 23.4645 33.4933 26.2768C33.4933 26.9129 33.5045 26.9312 33.8943 26.9312H34.2953V22.1492V17.3672H27.211H20.1267V22.1492ZM35.6319 22.1492V26.9312H36.5007H37.3696V24.9598C37.3696 23.3499 37.4081 22.9492 37.5796 22.7737C37.7495 22.6002 38.1292 22.5591 39.5638 22.5591C41.8848 22.5591 41.7805 22.4445 41.7805 24.995V26.9312H42.6494H43.5182V22.1492V17.3672H39.5751H35.6319V22.1492ZM5.36161 18.7524C5.16753 18.9882 5.02691 19.3018 5.0491 19.4493C5.08546 19.6916 5.19921 19.7175 6.22549 19.7175C7.25178 19.7175 7.36553 19.6916 7.40188 19.4493C7.42407 19.3018 7.28346 18.9882 7.08937 18.7524C6.80707 18.4096 6.63411 18.3236 6.22549 18.3236C5.81688 18.3236 5.64391 18.4096 5.36161 18.7524ZM47.3414 18.7188C47.1103 18.9654 46.9879 19.2274 47.0157 19.4157C47.0577 19.6998 47.127 19.7175 48.1965 19.7175C49.2228 19.7175 49.3365 19.6916 49.3729 19.4493C49.3951 19.3018 49.2544 18.9882 49.0604 18.7524C48.5773 18.1657 47.8729 18.1519 47.3414 18.7188ZM5.20161 21.2523C4.42087 21.5019 3.85079 21.9526 3.40261 22.6751C2.68482 23.8319 2.57549 23.7888 6.22549 23.7888C9.8755 23.7888 9.76616 23.8319 9.04838 22.6751C8.5883 21.9336 8.02744 21.5002 7.19711 21.2447C6.45272 21.0158 5.93517 21.0178 5.20161 21.2523ZM47.1726 21.2523C46.3919 21.5019 45.8218 21.9526 45.3736 22.6751C44.6558 23.8319 44.5465 23.7888 48.1965 23.7888C51.8465 23.7888 51.7371 23.8319 51.0194 22.6751C50.5593 21.9336 49.9984 21.5002 49.1681 21.2447C48.4237 21.0158 47.9062 21.0178 47.1726 21.2523ZM25.9985 21.5075C24.0037 22.086 22.6149 23.8269 22.4391 25.9693L22.3603 26.9312H27.2778H32.1954L32.1148 25.9483C31.9644 24.1149 30.8905 22.5424 29.2714 21.7848C28.3891 21.3718 26.901 21.2458 25.9985 21.5075ZM13.9781 25.4283V26.9312H14.8469H15.7157V25.4283V23.9254H14.8469H13.9781V25.4283ZM38.7062 25.4283V26.9312H39.5751H40.4439V25.4283V23.9254H39.5751H38.7062V25.4283ZM2.88385 26.0431V26.9312H6.22549H9.56713V26.0431V25.155H6.22549H2.88385V26.0431ZM44.8548 26.0431V26.9312H48.1965H51.5381V26.0431V25.155H48.1965H44.8548V26.0431ZM2.88385 37.2466V46.1957H6.22549H9.56713V37.2466V28.2975H6.22549H2.88385V37.2466ZM10.9038 29.1856V30.0736H11.3048H11.7058V29.1856V28.2975H11.3048H10.9038V29.1856ZM13.0424 29.1856V30.0736H13.5771H14.1118V29.1856V28.2975H13.5771H13.0424V29.1856ZM15.4484 29.1856V30.0736H15.9831H16.5177V29.1856V28.2975H15.9831H15.4484V29.1856ZM17.8544 29.1856V30.0736H18.3222H18.7901V29.1856V28.2975H18.3222H17.8544V29.1856ZM20.1267 29.1856V30.0736H20.795H21.4634V29.1856V28.2975H20.795H20.1267V29.1856ZM22.8 29.1856V30.0736H23.4015H24.003V29.1856V28.2975H23.4015H22.8V29.1856ZM25.3397 29.1856V30.0736H25.9412H26.5427V29.1856V28.2975H25.9412H25.3397V29.1856ZM27.8793 29.1856V30.0736H28.4808H29.0823V29.1856V28.2975H28.4808H27.8793V29.1856ZM30.419 29.1856V30.0736H31.0205H31.622V29.1856V28.2975H31.0205H30.419V29.1856ZM32.9586 29.1856V30.0736H33.6269H34.2953V29.1856V28.2975H33.6269H32.9586V29.1856ZM35.6319 29.1856V30.0736H36.0329H36.4339V29.1856V28.2975H36.0329H35.6319V29.1856ZM37.7706 29.1856V30.0736H38.3052H38.8399V29.1856V28.2975H38.3052H37.7706V29.1856ZM40.1765 29.1856V30.0736H40.7112H41.2459V29.1856V28.2975H40.7112H40.1765V29.1856ZM42.5825 29.1856V30.0736H43.0504H43.5182V29.1856V28.2975H43.0504H42.5825V29.1856ZM44.8548 37.2466V46.1957H48.1965H51.5381V37.2466V28.2975H48.1965H44.8548V37.2466ZM5.76715 30.2883C5.36616 30.6983 5.65407 31.4399 6.21426 31.4399C6.49576 31.4399 6.89382 31.0258 6.89382 30.733C6.89382 30.4701 6.4713 30.0736 6.19114 30.0736C6.07351 30.0736 5.88277 30.1702 5.76715 30.2883ZM47.7381 30.2883C47.3372 30.6983 47.6251 31.4399 48.1853 31.4399C48.4668 31.4399 48.8648 31.0258 48.8648 30.733C48.8648 30.4701 48.4423 30.0736 48.1621 30.0736C48.0445 30.0736 47.8538 30.1702 47.7381 30.2883ZM10.9038 38.8178V46.1957H14.8469H18.7901V38.8178V31.4399H14.8469H10.9038V38.8178ZM20.1267 38.8178V46.1957H21.7864H23.4462L23.4955 43.1558C23.5372 40.5932 23.5833 40.0245 23.7889 39.5343L24.0327 38.9528L23.5407 38.3962C22.6916 37.4356 22.4747 36.7706 22.4747 35.1289C22.4747 33.5224 22.6833 32.8529 23.469 31.9382L23.897 31.4399H22.0119H20.1267V38.8178ZM26.0595 31.6608C25.2706 31.9468 24.4174 32.7502 24.053 33.55C23.4673 34.8357 23.7497 36.8236 24.6318 37.6244C24.8869 37.8561 24.9278 37.8513 25.6681 37.505C26.339 37.191 26.565 37.1526 27.4123 37.2082C28.1426 37.256 28.5345 37.3612 28.9819 37.6292L29.5781 37.9863L29.9237 37.6165C30.8446 36.6315 31.0975 34.8555 30.5026 33.55C29.7415 31.8795 27.7696 31.041 26.0595 31.6608ZM30.9858 31.8156C31.1782 32.0222 31.5051 32.5295 31.7126 32.9428C32.0558 33.6265 32.0898 33.8237 32.0898 35.1289C32.0898 36.4333 32.0556 36.6316 31.7132 37.3149C31.5061 37.7282 31.1286 38.2858 30.8744 38.5539C30.4143 39.0392 30.4132 39.0435 30.6161 39.54C30.7784 39.9368 30.82 40.6674 30.82 43.1172V46.1957H32.5576H34.2953V38.8178V31.4399H32.4658H30.6363L30.9858 31.8156ZM35.6319 38.8178V46.1957H39.5751H43.5182V38.8178V31.4399H39.5751H35.6319V38.8178ZM14.3218 34.1139C14.0535 34.3881 14.0535 34.7766 14.3218 35.0509C14.6008 35.336 14.9557 35.3223 15.2272 35.0156C15.5147 34.6908 15.5072 34.406 15.2039 34.1253C14.897 33.8414 14.5923 33.8375 14.3218 34.1139ZM38.9162 34.1139C38.5152 34.5239 38.8031 35.2655 39.3633 35.2655C39.6448 35.2655 40.0429 34.8514 40.0429 34.5586C40.0429 34.2957 39.6204 33.8992 39.3402 33.8992C39.2226 33.8992 39.0318 33.9958 38.9162 34.1139ZM4.24724 38.162C4.13389 38.2779 4.08684 39.0752 4.08684 40.8779C4.08684 43.0849 4.11665 43.4551 4.30793 43.6173C4.46966 43.7545 4.98401 43.8047 6.22549 43.8047C7.46698 43.8047 7.98132 43.7545 8.14306 43.6173C8.33433 43.4551 8.36414 43.0849 8.36414 40.8779C8.36414 39.0752 8.31709 38.2779 8.20374 38.162C7.98066 37.934 4.47033 37.934 4.24724 38.162ZM12.8018 38.162C12.6885 38.2779 12.6414 39.0752 12.6414 40.8779C12.6414 43.0849 12.6712 43.4551 12.8625 43.6173C13.0243 43.7545 13.5386 43.8047 14.7801 43.8047C16.0216 43.8047 16.5359 43.7545 16.6977 43.6173C16.8889 43.4551 16.9187 43.0849 16.9187 40.8779C16.9187 39.0752 16.8717 38.2779 16.7583 38.162C16.5353 37.934 13.0249 37.934 12.8018 38.162ZM37.3963 38.162C37.283 38.2779 37.2359 39.0752 37.2359 40.8779C37.2359 43.0849 37.2657 43.4551 37.457 43.6173C37.6187 43.7545 38.1331 43.8047 39.3746 43.8047C40.616 43.8047 41.1304 43.7545 41.2921 43.6173C41.4834 43.4551 41.5132 43.0849 41.5132 40.8779C41.5132 39.0752 41.4662 38.2779 41.3528 38.162C41.1297 37.934 37.6194 37.934 37.3963 38.162ZM46.2182 38.162C46.1049 38.2779 46.0578 39.0752 46.0578 40.8779C46.0578 43.0849 46.0876 43.4551 46.2789 43.6173C46.4407 43.7545 46.955 43.8047 48.1965 43.8047C49.438 43.8047 49.9523 43.7545 50.1141 43.6173C50.3053 43.4551 50.3351 43.0849 50.3351 40.8779C50.3351 39.0752 50.2881 38.2779 50.1747 38.162C49.9516 37.934 46.4413 37.934 46.2182 38.162ZM26.1641 38.8378C25.8257 39.009 25.437 39.3593 25.2285 39.6812C24.8734 40.2292 24.8717 40.2444 24.8291 43.2137L24.7863 46.1957H27.1417H29.4973L29.4568 43.0874C29.4171 40.0355 29.4106 39.9711 29.0903 39.5347C28.6972 38.9991 27.8303 38.5446 27.2022 38.5447C26.9497 38.5447 26.4826 38.6766 26.1641 38.8378ZM5.31884 40.9014L5.35667 42.4385H6.22549H7.09432L7.13215 40.9014L7.16997 39.3643H6.22549H5.28101L5.31884 40.9014ZM13.8734 40.9014L13.9113 42.4385H14.7801H15.6489L15.6867 40.9014L15.7246 39.3643H14.7801H13.8356L13.8734 40.9014ZM38.4679 40.9014L38.5057 42.4385H39.3746H40.2434L40.2812 40.9014L40.319 39.3643H39.3746H38.4301L38.4679 40.9014ZM47.2898 40.9014L47.3277 42.4385H48.1965H49.0653L49.1031 40.9014L49.141 39.3643H48.1965H47.252L47.2898 40.9014Z" fill="white"/>
</svg>
