<svg width="57" height="62" viewBox="0 0 57 62" fill="none" xmlns="http://www.w3.org/2000/svg">
<path fill-rule="evenodd" clip-rule="evenodd" d="M27.9531 0.665204C27.8787 0.737728 27.8172 1.10649 27.8162 1.48464C27.815 1.8889 27.5806 2.57 27.2467 3.13811C26.7367 4.00647 26.5775 4.12945 25.6689 4.35681C23.5989 4.87484 21.2868 6.86693 20.3464 8.94268C20.1241 9.43327 19.8394 10.4202 19.7139 11.1357L19.4853 12.4367H18.641H17.7969V13.9716V15.5065H18.3864H18.9758V21.0704V26.6344H18.2881H17.6004V28.1693C17.6004 29.0647 17.6823 29.7042 17.7969 29.7042C17.905 29.7042 17.9934 30.0875 17.9934 30.5562C17.9934 31.025 18.0818 31.4616 18.1899 31.5269C18.3139 31.6017 18.3864 33.7993 18.3864 37.4859V43.3264H17.6987C17.096 43.3264 17.0109 43.3858 17.0109 43.806V44.2857H9.74076H2.47059V45.8206C2.47059 47.0569 2.52796 47.3554 2.76532 47.3554C2.92743 47.3554 3.07126 47.3771 3.08501 47.4034C3.09857 47.4297 3.16499 50.4486 3.23238 54.1118L3.3548 60.7723L1.78287 60.827C0.541436 60.8702 0.210938 60.9421 0.210938 61.1695C0.210938 61.4208 1.28064 61.4573 8.66006 61.4573C16.0395 61.4573 17.1092 61.4208 17.1092 61.1695C17.1092 60.9646 16.8543 60.8656 16.225 60.8255L15.3408 60.7692L15.3999 58.115C15.452 55.7812 15.417 55.4196 15.1107 55.1203C14.8898 54.9048 14.7515 54.4564 14.7332 53.8977C14.7173 53.4123 14.6927 52.9593 14.6786 52.891C14.6075 52.5459 12.9998 51.0144 12.4936 50.8097C11.9774 50.601 11.8145 50.6307 11.036 51.0762C9.98755 51.6764 9.44426 52.377 8.93849 53.782C8.62941 54.6406 8.56181 55.3634 8.56181 57.8071V60.7857H7.72673H6.89164L6.87749 54.7901C6.86983 51.4925 6.82562 48.4922 6.77924 48.1229C6.6975 47.4702 6.71539 47.4496 7.4202 47.3925C8.14486 47.3338 8.14525 47.334 8.20617 48.1599C8.29184 49.323 8.81411 49.2978 8.97445 48.1229L9.09234 47.2595L9.12182 48.0429C9.15483 48.9222 9.26172 49.1023 9.66177 48.9525C9.83272 48.8884 9.93725 48.5661 9.93725 48.1024C9.93725 47.6916 10.0257 47.3554 10.1337 47.3554C10.2418 47.3554 10.3302 47.744 10.3302 48.2188V49.0822H11.1162H11.9022V48.2188C11.9022 47.1229 12.2525 47.084 12.3331 48.1709C12.3916 48.9636 12.4125 48.9863 13.0811 48.9863C13.8502 48.9863 14.0809 48.4542 13.3558 48.3531C13.0334 48.3082 12.963 48.1925 13.0349 47.8255C13.111 47.437 13.2422 47.3554 13.7918 47.3554C14.4501 47.3554 14.4566 47.3641 14.4566 48.2303V49.1054L15.1934 49.0457C15.9096 48.988 15.933 48.9621 16.0285 48.1229C16.1085 47.4193 16.1994 47.2595 16.5197 47.2595C16.738 47.2595 16.9127 47.1315 16.9127 46.9717C16.9127 46.7223 15.9892 46.6772 9.98638 46.6335L3.06006 46.583V45.7221V44.8612H10.0355H17.0109V45.6287C17.0109 46.183 17.0929 46.3961 17.3057 46.3961C17.5283 46.3961 17.6004 46.6306 17.6004 47.3554C17.6004 47.8831 17.6888 48.3148 17.7969 48.3148C17.9238 48.3148 17.9934 50.5532 17.9934 54.6462C17.9934 58.6024 17.9221 60.9776 17.803 60.9776C17.6985 60.9776 17.6637 61.1071 17.726 61.2654C17.8252 61.5181 19.7359 61.5528 33.3217 61.5484C46.3663 61.5444 48.8207 61.5016 48.9091 61.2765C49.0203 60.9937 48.6576 60.7857 48.0532 60.7857C47.7149 60.7857 47.6844 60.5488 47.627 57.4614C47.5665 54.1986 47.5545 54.1163 46.9758 53.0194C46.3569 51.8462 45.3589 50.9147 44.503 50.7119C44.1142 50.6196 43.7948 50.7407 43.1397 51.2286C42.6693 51.5789 42.3231 51.9202 42.3705 51.9872C42.4178 52.0539 42.2406 52.2794 41.9767 52.4881C41.5892 52.7945 41.4926 53.0555 41.4743 53.8448C41.4601 54.4499 41.3303 54.953 41.133 55.1657C40.8679 55.452 40.8204 55.9516 40.8496 58.1478L40.8846 60.7859H39.9629C39.4559 60.7857 38.9855 60.8734 38.9177 60.9807C38.5202 61.6086 38.4285 60.4179 38.4285 54.6349C38.4285 50.5494 38.498 48.3148 38.625 48.3148C38.733 48.3148 38.8215 47.8831 38.8215 47.3554C38.8215 46.6306 38.8936 46.3961 39.1162 46.3961C39.329 46.3961 39.4109 46.183 39.4109 45.6287V44.8612H46.2881H53.1653V45.7221V46.583L46.239 46.6335C40.2362 46.6772 39.3127 46.7223 39.3127 46.9717C39.3127 47.13 39.5068 47.2866 39.7442 47.3194C40.0981 47.3687 40.1863 47.5237 40.2354 48.1828C40.2928 48.955 40.3228 48.9886 41.0064 49.0444C41.758 49.1056 41.9561 48.8454 41.9626 47.7871C41.9649 47.4222 42.0716 47.3554 42.653 47.3554C43.2504 47.3554 43.3408 47.4166 43.3408 47.8217C43.3408 48.1586 43.2185 48.3052 42.9006 48.3493C42.6585 48.3831 42.431 48.5619 42.3951 48.7464C42.3412 49.0218 42.4736 49.0822 43.1299 49.0822H43.9302V48.2188C43.9302 47.1229 44.2806 47.084 44.3611 48.1709C44.4197 48.9623 44.4431 48.988 45.1583 49.0457L45.8951 49.1054V48.2303C45.8951 47.5805 45.971 47.3554 46.1899 47.3554C46.409 47.3554 46.4846 47.5811 46.4846 48.2347C46.4846 49.3671 46.9499 49.3007 47.0362 48.1559C47.0696 47.7158 47.1904 47.3554 47.3048 47.3554C47.4197 47.3554 47.4643 47.5366 47.4046 47.7597C47.269 48.2662 47.5954 49.1459 47.8597 48.9865C47.9679 48.9212 48.0565 48.5275 48.0565 48.1116C48.0565 47.3574 48.0585 47.3554 48.8425 47.3554C49.6073 47.3554 49.6285 47.3733 49.6285 48.0156C49.6285 48.3788 49.5401 48.7292 49.432 48.7944C49.2153 48.9253 49.1536 59.6043 49.3624 60.8381L49.4848 61.562L52.848 61.5096C55.6824 61.4655 56.2109 61.412 56.2109 61.1695C56.2109 60.9413 55.8745 60.8702 54.5899 60.826L52.9688 60.7702L52.9702 55.358C52.9718 49.1871 53.0905 47.3554 53.4885 47.3554C53.6903 47.3554 53.7548 46.9842 53.7548 45.8206V44.2857H46.5829H39.4109V43.806C39.4109 43.3858 39.3259 43.3264 38.7232 43.3264H38.0355V37.4859C38.0355 33.7993 38.108 31.6017 38.232 31.5269C38.3401 31.4616 38.4285 31.0342 38.4285 30.5768C38.4285 30.0883 38.5299 29.7075 38.6741 29.6537C38.8492 29.5885 38.901 29.1413 38.8551 28.0983L38.7904 26.6344H38.1182H37.446V21.0704V15.5065H38.0355H38.625V13.9716V12.4367H37.7808H36.9365L36.708 11.1357C36.2822 8.71072 35.2302 7.01409 33.2861 5.61657C32.5819 5.11025 31.5945 4.61256 30.9133 4.42012C29.8782 4.12792 29.6882 3.99362 29.2284 3.23135C28.9435 2.7586 28.6642 1.98847 28.608 1.51975C28.511 0.712402 28.2516 0.373767 27.9531 0.665204ZM27.9449 3.24555C27.4933 3.87505 27.5358 3.99477 28.2109 3.99477C28.8666 3.99477 28.9022 3.91092 28.5275 3.25073L28.2685 2.79448L27.9449 3.24555ZM27.1566 4.96808C25.9788 5.87271 24.9545 8.60174 24.8494 11.1149L24.7981 12.3407H28.2239H31.6495L31.5784 11.0936C31.3788 7.59198 29.8188 4.57035 28.2109 4.57035C27.9158 4.57035 27.4415 4.74936 27.1566 4.96808ZM24.7668 5.40591C22.4366 6.50086 20.7616 8.67849 20.3611 11.1332C20.2701 11.6919 20.2358 12.2137 20.2851 12.2928C20.3342 12.3718 21.197 12.4367 22.2024 12.4367H24.0304L24.1634 11.0046C24.3454 9.0436 24.8959 7.10369 25.6326 5.82954C25.9717 5.24244 26.224 4.76221 26.193 4.76221C26.1621 4.76221 25.5202 5.05192 24.7668 5.40591ZM30.7924 5.83472C31.5261 7.10407 32.0767 9.0459 32.2585 11.0046L32.3915 12.4367H34.1982C35.1921 12.4367 36.0492 12.3935 36.1032 12.3409C36.1572 12.2882 36.1358 11.7736 36.0557 11.1974C35.6692 8.41641 33.6262 6.05267 30.6561 4.95005C30.1792 4.77296 30.1794 4.77411 30.7924 5.83472ZM18.4646 13.2818C18.4064 13.4299 18.387 13.8401 18.4217 14.1932C18.4799 14.787 18.5359 14.8349 19.1723 14.8349C19.8534 14.8349 19.8606 14.8261 19.92 13.9236L19.9799 13.0123H19.2751C18.8513 13.0123 18.5282 13.1197 18.4646 13.2818ZM20.5861 13.8906L20.646 14.7689L28.1127 14.7592C32.2194 14.7538 35.6456 14.7471 35.7267 14.7442C35.8079 14.7413 35.8741 14.3505 35.8741 13.8756V13.0123H28.2001H20.5262L20.5861 13.8906ZM36.4535 13.9144C36.5598 14.8184 36.5742 14.8349 37.2495 14.8349C37.9335 14.8349 37.9372 14.8303 37.9372 13.9716V13.1082L37.1413 13.051L36.3451 12.9938L36.4535 13.9144ZM19.5653 21.0704V26.6344H20.5362C21.4265 26.6344 21.9383 26.8756 21.6485 27.1584C21.5839 27.2215 20.8013 27.2806 19.9096 27.2896L18.2881 27.3059L18.2282 28.2173L18.1683 29.1286H28.2109H38.2536L38.1937 28.2173L38.1337 27.3059L35.7758 27.2725C34.479 27.2543 31.4507 27.2326 29.046 27.2246C25.2976 27.2121 24.6741 27.1689 24.6741 26.9222C24.6741 26.6747 25.3072 26.6344 29.1934 26.6344H33.7127L33.7156 23.9004C33.7188 21.1796 33.8933 20.275 34.2992 20.8786C34.4055 21.0369 34.4939 22.3966 34.4957 23.9004L34.4987 26.6344H35.6776H36.8565V21.0704V15.5065H35.6776H34.4987V18.0147C34.4987 20.3001 34.4682 20.5173 34.1548 20.4586C33.8522 20.402 33.8043 20.1002 33.7559 17.9504L33.7009 15.5065H28.205H22.7092V21.047C22.7092 25.4479 22.6549 26.6313 22.4455 26.8011C22.3005 26.9186 22.1236 26.9581 22.0525 26.8886C21.9814 26.8192 21.9232 24.2298 21.9232 21.1343V15.5065H20.7443H19.5653V21.0704ZM27.2285 16.4993C25.6768 16.9299 24.4914 18.4172 24.4819 19.9454C24.475 21.071 25.4076 22.5925 26.427 23.1189C27.9793 23.9203 30.1395 23.5272 31.0899 22.2701C32.7448 20.0814 31.7488 17.1935 29.0951 16.4857C28.1893 16.2442 28.1473 16.2444 27.2285 16.4993ZM26.8846 17.2754C26.6414 17.39 26.4425 17.6373 26.4425 17.8247C26.4425 18.0306 26.2698 18.1902 26.0069 18.227C25.475 18.3021 25.0345 19.4705 25.4449 19.7182C25.6444 19.8387 25.6444 19.9434 25.4449 20.2552C25.1292 20.7491 25.5506 21.9187 25.9857 21.7556C26.1527 21.693 26.3311 21.8394 26.4453 22.1328C26.6742 22.7208 27.5462 23.0971 27.9402 22.7778C28.1433 22.613 28.2785 22.613 28.4817 22.7778C28.8757 23.0971 29.7477 22.7208 29.9766 22.1328C30.0908 21.8394 30.2692 21.693 30.4362 21.7556C30.8712 21.9187 31.2927 20.7491 30.9769 20.2552C30.7775 19.9434 30.7775 19.8387 30.9769 19.7182C31.3874 19.4705 30.9469 18.3021 30.415 18.227C30.1529 18.1902 29.9794 18.0306 29.9794 17.8263C29.9794 17.5185 29.2569 17.0413 28.7912 17.0413C28.6882 17.0413 28.6039 17.672 28.6039 18.4427C28.6039 19.7923 28.6293 19.868 29.2916 20.4948C30.504 21.6422 29.9585 21.8703 28.6393 20.7677L27.818 20.0812V18.5613C27.818 16.9537 27.7543 16.866 26.8846 17.2754ZM22.9904 26.8478C22.8141 27.1263 23.2582 27.3875 23.7506 27.2948C24.2471 27.2016 24.3518 27.0932 24.1909 26.8391C24.0204 26.5696 23.1625 26.5757 22.9904 26.8478ZM18.8249 30.2798C18.8249 30.6491 18.8654 30.8003 18.9147 30.6155C18.9643 30.4308 18.9643 30.1288 18.9147 29.944C18.8654 29.7593 18.8249 29.9104 18.8249 30.2798ZM19.7618 30.5676C19.7618 31.303 19.7037 31.4309 19.3688 31.4309C18.9843 31.4309 18.9758 31.5589 18.9758 37.3787V43.3264H20.1548H21.3337L21.3324 37.8103C21.331 32.1289 21.2052 29.7042 20.9123 29.7042C20.8199 29.7042 20.7443 30.0927 20.7443 30.5676C20.7443 31.207 20.6678 31.4309 20.4495 31.4309C20.2312 31.4309 20.1548 31.207 20.1548 30.5676C20.1548 30.0927 20.0664 29.7042 19.9583 29.7042C19.8502 29.7042 19.7618 30.0927 19.7618 30.5676ZM21.835 30.7115C21.922 31.2654 21.9997 34.3305 22.0075 37.5225L22.0215 43.3265H28.2109L34.4004 43.3264L34.4313 37.4266C34.4484 34.1819 34.5234 31.1169 34.5985 30.6155C34.6867 30.0258 34.6623 29.7042 34.5297 29.7042C34.4169 29.7042 34.2976 30.071 34.2642 30.5196C34.179 31.6729 33.6561 31.6401 33.4965 30.4716C33.3883 29.6777 33.3761 29.6624 33.3462 30.2798C33.2796 31.655 32.5337 31.8208 32.5337 30.4603C32.5337 30.0444 32.4453 29.7042 32.3372 29.7042C32.2292 29.7042 32.1408 30.0927 32.1408 30.5676V31.4309H31.3548H30.5688V30.5516C30.5688 29.9329 30.4959 29.6961 30.3232 29.7529C30.0902 29.8297 30.0491 29.9876 30.0002 30.9993C29.9823 31.3717 29.8713 31.4309 29.1934 31.4309H28.4074V30.5676C28.4074 29.7088 28.4037 29.7042 27.7197 29.7042C27.0901 29.7042 27.032 29.7518 27.032 30.2663C27.032 30.6967 27.1322 30.8431 27.4588 30.8899C28.2697 31.0065 28.1019 31.4309 27.2448 31.4309C26.55 31.4309 26.4398 31.3732 26.4217 30.9993C26.3728 29.9876 26.3317 29.8297 26.0987 29.7529C25.9259 29.6961 25.853 29.9329 25.853 30.5516V31.4309H25.0671H24.2811V30.5676C24.2811 30.0927 24.1927 29.7042 24.0846 29.7042C23.9766 29.7042 23.8881 30.0927 23.8881 30.5676V31.4309H23.0039H22.1197V30.5676C22.1197 30.0549 22.0297 29.7042 21.8983 29.7042C21.7419 29.7042 21.7234 30.0006 21.835 30.7115ZM22.9513 30.2798C22.9513 30.6491 22.9917 30.8003 23.0411 30.6155C23.0906 30.4308 23.0906 30.1288 23.0411 29.944C22.9917 29.7593 22.9513 29.9104 22.9513 30.2798ZM24.8706 30.2798C24.8706 30.5963 24.959 30.8554 25.0671 30.8554C25.1751 30.8554 25.2636 30.5963 25.2636 30.2798C25.2636 29.9632 25.1751 29.7042 25.0671 29.7042C24.959 29.7042 24.8706 29.9632 24.8706 30.2798ZM29.128 29.8322C28.9222 30.033 28.9749 30.8554 29.1934 30.8554C29.3015 30.8554 29.3899 30.5963 29.3899 30.2798C29.3899 29.6837 29.3498 29.6154 29.128 29.8322ZM31.1583 30.2798C31.1583 30.5963 31.2467 30.8554 31.3548 30.8554C31.4629 30.8554 31.5513 30.5963 31.5513 30.2798C31.5513 29.9632 31.4629 29.7042 31.3548 29.7042C31.2467 29.7042 31.1583 29.9632 31.1583 30.2798ZM35.2846 30.2663C35.2846 30.6967 35.3848 30.8431 35.7114 30.8899C36.4036 30.9895 36.3895 31.4309 35.6939 31.4309H35.0881V37.3787V43.3264H36.2671H37.446V37.3787C37.446 31.5589 37.4376 31.4309 37.053 31.4309C36.7182 31.4309 36.6601 31.303 36.6601 30.5676C36.6601 29.7088 36.6563 29.7042 35.9723 29.7042C35.3428 29.7042 35.2846 29.7518 35.2846 30.2663ZM37.4916 30.2798C37.4916 30.6491 37.5321 30.8003 37.5814 30.6155C37.6309 30.4308 37.6309 30.1288 37.5814 29.944C37.5321 29.7593 37.4916 29.9104 37.4916 30.2798ZM24.9513 33.3287C23.3138 34.3037 22.8758 35.5458 22.9479 39.0095L23.0039 41.6955L23.9526 41.7546C24.7633 41.8051 24.9164 41.7579 25.004 41.4308C25.0989 41.076 25.2638 41.0495 27.2532 41.0693C28.6617 41.0833 29.4795 41.0133 29.6308 40.8655C29.7577 40.7416 30.245 40.6403 30.7138 40.6403C31.5263 40.6403 31.5635 40.6649 31.5096 41.1679C31.4546 41.6806 31.4809 41.6955 32.4355 41.6955H33.418L33.474 39.0095C33.5184 36.8731 33.4631 36.1525 33.2042 35.4879C32.8012 34.4543 31.9403 33.4739 31.1571 33.1571C30.6236 32.9415 30.4869 32.9678 29.7862 33.4205C29.358 33.6972 28.8706 34.1828 28.7026 34.5C28.3271 35.2091 28.1597 35.221 27.802 34.5642C27.514 34.0353 26.156 32.9653 25.7744 32.9666C25.6556 32.967 25.2852 33.1299 24.9513 33.3287ZM25.3015 34.4196C24.4196 35.0228 24.0846 36.0487 24.0846 38.1463V40.0802L25.7057 40.0244C27.2171 39.9726 27.331 39.9396 27.3896 39.5371C27.4947 38.8138 28.0144 39.0131 28.0144 39.7769C28.0144 40.1463 28.1029 40.4484 28.2109 40.4484C28.3265 40.4484 28.4074 39.7769 28.4074 38.8176C28.4074 37.1964 28.0936 36.5318 27.9771 37.9063C27.8798 39.0557 27.5342 38.7386 27.4022 37.3787C27.2544 35.8551 27.0426 35.3271 26.3063 34.6467C25.7739 34.1546 25.7102 34.1402 25.3015 34.4196ZM30.0348 34.7415C29.2307 35.5631 28.9584 36.5675 29.0334 38.4339L29.0951 39.9688L30.7162 40.0244L32.3372 40.0802L32.3341 38.1058C32.3312 36.4172 32.2673 36.0233 31.892 35.3843C31.6505 34.9733 31.2711 34.5205 31.0485 34.3779C30.6842 34.1446 30.5834 34.1809 30.0348 34.7415ZM17.733 44.0282C17.6601 44.0994 17.6004 44.5318 17.6004 44.9892V45.8206H28.2217H38.8431L38.7831 44.9092L38.7232 43.9979L28.2944 43.9482C22.5587 43.9209 17.8061 43.957 17.733 44.0282ZM18.3209 46.5241C18.1138 46.7261 18.1685 47.7392 18.3864 47.7392C18.4944 47.7392 18.5829 47.437 18.5829 47.0677C18.5829 46.3775 18.5471 46.3033 18.3209 46.5241ZM19.3688 47.3554C19.3688 48.1826 19.3154 48.3148 18.9812 48.3148C18.6043 48.3148 18.5919 48.4888 18.5391 54.5502L18.4846 60.7859L19.8109 60.7857H21.1373V54.5616C21.1373 50.619 21.0651 48.2938 20.9408 48.2188C20.8327 48.1536 20.7443 47.7117 20.7443 47.2369C20.7443 46.7102 20.6676 46.4197 20.5478 46.4921C20.4397 46.5573 20.3513 47.0013 20.3513 47.4786C20.3513 48.6603 19.8809 48.5014 19.8001 47.2925C19.72 46.092 19.3688 46.1433 19.3688 47.3554ZM21.5986 47.6912C21.6676 48.4034 21.7246 51.6411 21.7254 54.886L21.7267 60.7857H23.0908H24.4546L24.5153 56.9965C24.5725 53.4127 24.6022 53.1552 25.0624 52.2479C25.6391 51.1107 27.0007 49.7209 27.7077 49.5477C27.9846 49.4797 28.4259 49.477 28.6886 49.5413C29.3046 49.6923 30.6425 50.921 30.4765 51.1835C30.4063 51.294 30.4759 51.3845 30.6309 51.3845C30.9821 51.3845 31.5827 52.5509 31.3697 52.8185C31.118 53.1345 31.3613 54.4543 31.6709 54.4543C31.8934 54.4543 31.9443 55.0447 31.9443 57.62V60.7857H33.3197H34.6951L34.6965 54.886C34.6973 51.6411 34.7543 48.4034 34.8233 47.6912C34.9119 46.7754 34.8826 46.3961 34.7236 46.3961C34.5847 46.3961 34.4987 46.763 34.4987 47.3554V48.3148H33.6144H32.7302V47.3554V46.3961H32.0425C31.3876 46.3961 31.3548 46.4282 31.3548 47.0677C31.3548 47.6618 31.4133 47.7392 31.8623 47.7392C32.7078 47.7392 32.2911 48.2129 31.3886 48.2777L30.5688 48.3368V47.3664C30.5688 46.8328 30.4804 46.3961 30.3723 46.3961C30.2643 46.3961 30.1758 46.8278 30.1758 47.3554V48.3148H29.2916H28.4074V47.3554C28.4074 46.1348 28.0557 46.0957 27.9761 47.3075C27.9329 47.9636 27.8337 48.2188 27.6215 48.2188C27.4053 48.2188 27.3228 47.9884 27.3118 47.3554C27.2933 46.2933 26.9392 46.2914 26.9198 47.3531C26.9119 47.7741 26.8516 48.1712 26.7854 48.2357C26.5036 48.5108 26.246 48.0392 26.246 47.2482C26.246 46.7795 26.1576 46.3961 26.0495 46.3961C25.9415 46.3961 25.853 46.8278 25.853 47.3554V48.3148H24.9688H24.0846V47.3554C24.0846 46.8278 23.9962 46.3961 23.8881 46.3961C23.7801 46.3961 23.6916 46.8278 23.6916 47.3554V48.3148H22.8074H21.9232V47.3554C21.9232 46.763 21.8372 46.3961 21.6982 46.3961C21.5393 46.3961 21.51 46.7754 21.5986 47.6912ZM22.6437 46.5241C22.4423 46.7208 22.4885 47.5101 22.7092 47.6432C22.8261 47.7138 22.9057 47.4853 22.9057 47.079C22.9057 46.3777 22.8703 46.3029 22.6437 46.5241ZM24.8052 46.5241C24.6037 46.7208 24.6499 47.5101 24.8706 47.6432C24.9875 47.7138 25.0671 47.4853 25.0671 47.079C25.0671 46.3777 25.0317 46.3029 24.8052 46.5241ZM29.1437 46.537C29.1016 46.6177 29.1291 46.9429 29.2052 47.2595C29.3573 47.8925 29.3818 47.8821 29.5092 47.1298C29.5899 46.6521 29.3158 46.2073 29.1437 46.537ZM33.5162 47.0677C33.5162 47.4815 33.5956 47.714 33.7127 47.6432C33.8208 47.578 33.9092 47.319 33.9092 47.0677C33.9092 46.8163 33.8208 46.5573 33.7127 46.4921C33.5956 46.4213 33.5162 46.6538 33.5162 47.0677ZM35.6776 47.0677C35.6776 47.4815 35.757 47.714 35.8741 47.6432C35.9822 47.578 36.0706 47.319 36.0706 47.0677C36.0706 46.8163 35.9822 46.5573 35.8741 46.4921C35.757 46.4213 35.6776 46.6538 35.6776 47.0677ZM36.6601 47.3554V48.3148H35.9723H35.2846V54.5502V60.7857H36.5618H37.839V54.5502C37.839 48.4427 37.8309 48.3148 37.446 48.3148C37.1055 48.3148 37.053 48.1868 37.053 47.3554C37.053 46.8278 36.9646 46.3961 36.8565 46.3961C36.7485 46.3961 36.6601 46.8278 36.6601 47.3554ZM37.839 47.0563C37.839 47.4318 37.9274 47.7392 38.0355 47.7392C38.1436 47.7392 38.232 47.4853 38.232 47.1749C38.232 46.8645 38.1436 46.5573 38.0355 46.4921C37.9186 46.4215 37.839 46.65 37.839 47.0563ZM3.64953 47.8351C3.64953 48.0989 3.73796 48.3148 3.84603 48.3148C3.9541 48.3148 4.04252 48.0989 4.04252 47.8351C4.04252 47.5713 3.9541 47.3554 3.84603 47.3554C3.73796 47.3554 3.64953 47.5713 3.64953 47.8351ZM4.63199 48.2188C4.63199 48.9132 4.56459 49.0822 4.28813 49.0822C3.96824 49.0822 3.94427 49.4888 3.94427 54.934V60.7857H5.17273H6.4012L6.32437 54.9819C6.28232 51.7899 6.16128 48.7464 6.05557 48.2188C5.8801 47.3428 5.86085 47.3178 5.83412 47.931C5.77419 49.3055 5.02497 49.4726 5.02497 48.1116C5.02497 47.6956 4.93655 47.3554 4.82848 47.3554C4.72041 47.3554 4.63199 47.744 4.63199 48.2188ZM10.9197 47.8351C10.9197 48.0989 11.0081 48.3148 11.1162 48.3148C11.2243 48.3148 11.3127 48.0989 11.3127 47.8351C11.3127 47.5713 11.2243 47.3554 11.1162 47.3554C11.0081 47.3554 10.9197 47.5713 10.9197 47.8351ZM15.046 47.8351C15.046 48.0989 15.1344 48.3148 15.2425 48.3148C15.3506 48.3148 15.439 48.0989 15.439 47.8351C15.439 47.5713 15.3506 47.3554 15.2425 47.3554C15.1344 47.3554 15.046 47.5713 15.046 47.8351ZM40.9316 47.7179C40.8781 47.9172 40.9108 48.1979 41.0039 48.3414C41.119 48.5189 41.1742 48.403 41.1764 47.979C41.1797 47.281 41.0778 47.1722 40.9316 47.7179ZM44.9127 47.8351C44.9127 48.0989 45.0011 48.3148 45.1092 48.3148C45.2173 48.3148 45.3057 48.0989 45.3057 47.8351C45.3057 47.5713 45.2173 47.3554 45.1092 47.3554C45.0011 47.3554 44.9127 47.5713 44.9127 47.8351ZM50.1908 47.4034C50.1759 47.4297 50.1097 50.4517 50.0435 54.1188L49.9232 60.7861L51.1513 60.7859L52.3794 60.7857V54.934C52.3794 49.2102 52.3707 49.0822 51.9864 49.0822C51.6516 49.0822 51.5934 48.9542 51.5934 48.2188C51.5934 47.1229 51.243 47.084 51.1625 48.1709C51.1293 48.6192 51.0137 48.9863 50.9057 48.9863C50.7976 48.9863 50.6821 48.6192 50.6489 48.1709C50.6155 47.7225 50.505 47.3554 50.4032 47.3554C50.3013 47.3554 50.2058 47.3771 50.1908 47.4034ZM52.1829 47.8351C52.1829 48.0989 52.2713 48.3148 52.3794 48.3148C52.4874 48.3148 52.5758 48.0989 52.5758 47.8351C52.5758 47.5713 52.4874 47.3554 52.3794 47.3554C52.2713 47.3554 52.1829 47.5713 52.1829 47.8351ZM27.2525 51.2901C26.8329 51.6604 26.2824 52.4158 26.0295 52.9689C25.6104 53.8851 25.5652 54.2782 25.5237 57.3802L25.4781 60.7857H28.2418H31.0056L30.9088 57.3802C30.8498 55.305 30.7105 53.6848 30.5519 53.2324C30.2613 52.4024 28.7183 50.6171 28.2915 50.6171C28.1398 50.6171 27.6722 50.92 27.2525 51.2901ZM11.1575 52.2435C10.0557 53.1485 9.77652 54.1932 9.70579 57.6716L9.64252 60.7863H12.0004L14.3583 60.7865L14.2601 57.5724C14.1526 54.0543 14.0099 53.5274 12.8522 52.3711C12.124 51.6439 11.9071 51.6276 11.1575 52.2435ZM43.5437 52.2721C42.299 53.2947 42.0868 54.0102 41.9712 57.5724L41.8671 60.7865L44.2741 60.7861L46.6811 60.7857V58.0258C46.6811 54.7695 46.3954 53.6312 45.2949 52.5015C44.9021 52.0983 44.4853 51.7683 44.3688 51.7683C44.2523 51.7683 43.8809 51.995 43.5437 52.2721Z" fill="white"/>
</svg>
