<svg width="66" height="52" viewBox="0 0 66 52" fill="none" xmlns="http://www.w3.org/2000/svg">
<path d="M27.7706 24.4248H21.775L18.9863 28.7472H47.0123L44.2237 24.4248H38.228" stroke="white" stroke-miterlimit="10" stroke-linecap="round" stroke-linejoin="round"/>
<path d="M22.1934 28.7471V42.8298" stroke="white" stroke-miterlimit="10" stroke-linecap="round" stroke-linejoin="round"/>
<path d="M24.8428 28.7471V42.8298" stroke="white" stroke-miterlimit="10" stroke-linecap="round" stroke-linejoin="round"/>
<path d="M27.6318 28.7471V42.8298" stroke="white" stroke-miterlimit="10" stroke-linecap="round" stroke-linejoin="round"/>
<path d="M43.8066 28.7471V42.8298" stroke="white" stroke-miterlimit="10" stroke-linecap="round" stroke-linejoin="round"/>
<path d="M41.1562 28.7471V42.8298" stroke="white" stroke-miterlimit="10" stroke-linecap="round" stroke-linejoin="round"/>
<path d="M38.3682 28.7471V42.8298" stroke="white" stroke-miterlimit="10" stroke-linecap="round" stroke-linejoin="round"/>
<path d="M43.8054 42.8296H22.1933L15.2217 51.4744H50.777L43.8054 42.8296Z" stroke="white" stroke-miterlimit="10" stroke-linecap="round" stroke-linejoin="round"/>
<path d="M35.2995 38.2283H30.6982V42.8295H35.2995V38.2283Z" stroke="white" stroke-miterlimit="10" stroke-linecap="round" stroke-linejoin="round"/>
<path d="M35.2995 31.2566H30.6982V35.8579H35.2995V31.2566Z" stroke="white" stroke-miterlimit="10" stroke-linecap="round" stroke-linejoin="round"/>
<path d="M38.2289 24.4246V18.2896H27.7715V24.4246" stroke="white" stroke-miterlimit="10" stroke-linecap="round" stroke-linejoin="round"/>
<path d="M35.4407 18.2896L34.0464 12.0151H31.9549L30.5605 18.2896" stroke="white" stroke-miterlimit="10" stroke-linecap="round" stroke-linejoin="round"/>
<path d="M28.1896 18.2899C27.0741 16.4772 26.377 14.2463 26.377 12.5731C26.377 8.94786 29.305 6.01978 32.9303 6.01978C36.5555 6.01978 39.4836 8.94786 39.4836 12.5731C39.4836 14.2463 38.7865 16.4772 37.671 18.2899" stroke="white" stroke-miterlimit="10" stroke-linecap="round" stroke-linejoin="round"/>
<path d="M32.9297 5.88014V1" stroke="white" stroke-miterlimit="10" stroke-linecap="round" stroke-linejoin="round"/>
<path d="M32.93 25.9582C34.5472 25.9582 35.8581 24.6473 35.8581 23.0301C35.8581 21.413 34.5472 20.1021 32.93 20.1021C31.3129 20.1021 30.002 21.413 30.002 23.0301C30.002 24.6473 31.3129 25.9582 32.93 25.9582Z" stroke="white" stroke-miterlimit="10" stroke-linecap="round" stroke-linejoin="round"/>
<path d="M23.4489 24.4247V16.4771H15.6406V51.4747" stroke="white" stroke-miterlimit="10" stroke-linecap="round" stroke-linejoin="round"/>
<path d="M23.4487 13.9675H15.6404L14.2461 16.4773H24.843L23.4487 13.9675Z" stroke="white" stroke-miterlimit="10" stroke-linecap="round" stroke-linejoin="round"/>
<path d="M23.4489 13.9674C23.4489 11.7364 21.6362 10.0632 19.5447 10.0632C17.4532 10.0632 15.6406 11.8759 15.6406 13.9674" stroke="white" stroke-miterlimit="10" stroke-linecap="round" stroke-linejoin="round"/>
<path d="M19.5449 9.92386V6.15918" stroke="white" stroke-miterlimit="10" stroke-linecap="round" stroke-linejoin="round"/>
<path d="M15.6404 24.4248H1V51.4748H15.6404" stroke="white" stroke-miterlimit="10" stroke-linecap="round" stroke-linejoin="round"/>
<path d="M6.99482 29.5838C6.99482 28.7472 6.29767 27.9106 5.32164 27.9106C4.34561 27.9106 3.64844 28.6078 3.64844 29.5838V32.6514H6.85539V29.5838H6.99482Z" stroke="white" stroke-miterlimit="10" stroke-linecap="round" stroke-linejoin="round"/>
<path d="M12.9919 29.5838C12.9919 28.7472 12.2947 27.9106 11.3187 27.9106C10.3427 27.9106 9.64551 28.6078 9.64551 29.5838V32.6514H12.8525V29.5838H12.9919Z" stroke="white" stroke-miterlimit="10" stroke-linecap="round" stroke-linejoin="round"/>
<path d="M6.99482 36.6947C6.99482 35.8581 6.29767 35.0215 5.32164 35.0215C4.34561 35.0215 3.64844 35.7186 3.64844 36.6947V39.7622H6.85539V36.6947H6.99482Z" stroke="white" stroke-miterlimit="10" stroke-linecap="round" stroke-linejoin="round"/>
<path d="M12.9919 36.6947C12.9919 35.8581 12.2947 35.0215 11.3187 35.0215C10.3427 35.0215 9.64551 35.7186 9.64551 36.6947V39.7622H12.8525V36.6947H12.9919Z" stroke="white" stroke-miterlimit="10" stroke-linecap="round" stroke-linejoin="round"/>
<path d="M6.99482 43.806C6.99482 42.9694 6.29767 42.1328 5.32164 42.1328C4.34561 42.1328 3.64844 42.83 3.64844 43.806V46.8735H6.85539V43.806H6.99482Z" stroke="white" stroke-miterlimit="10" stroke-linecap="round" stroke-linejoin="round"/>
<path d="M12.9919 43.806C12.9919 42.9694 12.2947 42.1328 11.3187 42.1328C10.3427 42.1328 9.64551 42.83 9.64551 43.806V46.8735H12.8525V43.806H12.9919Z" stroke="white" stroke-miterlimit="10" stroke-linecap="round" stroke-linejoin="round"/>
<path d="M1 24.4246V21.636H15.6404" stroke="white" stroke-miterlimit="10" stroke-linecap="round" stroke-linejoin="round"/>
<path d="M15.6406 33.906H22.194" stroke="white" stroke-miterlimit="10" stroke-linecap="round" stroke-linejoin="round"/>
<path d="M42.4121 24.4247V16.4771H50.3598V51.4747" stroke="white" stroke-miterlimit="10" stroke-linecap="round" stroke-linejoin="round"/>
<path d="M42.4119 13.9675H50.3596L51.7539 16.4773H41.0176L42.4119 13.9675Z" stroke="white" stroke-miterlimit="10" stroke-linecap="round" stroke-linejoin="round"/>
<path d="M42.4121 13.9674C42.4121 11.7364 44.2247 10.0632 46.3162 10.0632C48.4077 10.0632 50.2204 11.8759 50.2204 13.9674" stroke="white" stroke-miterlimit="10" stroke-linecap="round" stroke-linejoin="round"/>
<path d="M46.4551 9.92386V6.15918" stroke="white" stroke-miterlimit="10" stroke-linecap="round" stroke-linejoin="round"/>
<path d="M50.3604 24.4248H65.0008V51.4748H50.3604" stroke="white" stroke-miterlimit="10" stroke-linecap="round" stroke-linejoin="round"/>
<path d="M59.0039 29.5838C59.0039 28.7472 59.7011 27.9106 60.6771 27.9106C61.6531 27.9106 62.3503 28.6078 62.3503 29.5838V32.6514H59.1433V29.5838H59.0039Z" stroke="white" stroke-miterlimit="10" stroke-linecap="round" stroke-linejoin="round"/>
<path d="M53.0088 29.5838C53.0088 28.7472 53.7059 27.9106 54.682 27.9106C55.658 27.9106 56.3552 28.6078 56.3552 29.5838V32.6514H53.1482V29.5838H53.0088Z" stroke="white" stroke-miterlimit="10" stroke-linecap="round" stroke-linejoin="round"/>
<path d="M59.0039 36.6947C59.0039 35.8581 59.7011 35.0215 60.6771 35.0215C61.6531 35.0215 62.3503 35.7186 62.3503 36.6947V39.7622H59.1433V36.6947H59.0039Z" stroke="white" stroke-miterlimit="10" stroke-linecap="round" stroke-linejoin="round"/>
<path d="M53.0088 36.6947C53.0088 35.8581 53.7059 35.0215 54.682 35.0215C55.658 35.0215 56.3552 35.7186 56.3552 36.6947V39.7622H53.1482V36.6947H53.0088Z" stroke="white" stroke-miterlimit="10" stroke-linecap="round" stroke-linejoin="round"/>
<path d="M59.0039 43.806C59.0039 42.9694 59.7011 42.1328 60.6771 42.1328C61.6531 42.1328 62.3503 42.83 62.3503 43.806V46.8735H59.1433V43.806H59.0039Z" stroke="white" stroke-miterlimit="10" stroke-linecap="round" stroke-linejoin="round"/>
<path d="M53.0088 43.806C53.0088 42.9694 53.7059 42.1328 54.682 42.1328C55.658 42.1328 56.3552 42.83 56.3552 43.806V46.8735H53.1482V43.806H53.0088Z" stroke="white" stroke-miterlimit="10" stroke-linecap="round" stroke-linejoin="round"/>
<path d="M65.0008 24.4246V21.636H50.3604" stroke="white" stroke-miterlimit="10" stroke-linecap="round" stroke-linejoin="round"/>
<path d="M50.359 33.906H43.8057" stroke="white" stroke-miterlimit="10" stroke-linecap="round" stroke-linejoin="round"/>
</svg>
