<svg width="63" height="53" viewBox="0 0 63 53" fill="none" xmlns="http://www.w3.org/2000/svg">
<path d="M38.6937 24.9387H24.8066V42.7936H38.6937V24.9387Z" stroke="white" stroke-miterlimit="10" stroke-linecap="round" stroke-linejoin="round"/>
<path d="M38.6937 15.1516H24.8066V25.071H38.6937V15.1516Z" stroke="white" stroke-miterlimit="10" stroke-linecap="round" stroke-linejoin="round"/>
<path d="M34.8582 18.3259H28.5098V25.0711H34.8582V18.3259Z" stroke="white" stroke-miterlimit="10" stroke-linecap="round" stroke-linejoin="round"/>
<path d="M37.3712 12.6389H26.1292L24.8066 15.1518H38.6937L37.3712 12.6389Z" stroke="white" stroke-miterlimit="10" stroke-linecap="round" stroke-linejoin="round"/>
<path d="M38.6937 27.584H24.8066" stroke="white" stroke-miterlimit="10" stroke-linecap="round" stroke-linejoin="round"/>
<path d="M35.9162 31.1548H27.584V42.6612H35.9162V31.1548Z" stroke="white" stroke-miterlimit="10" stroke-linecap="round" stroke-linejoin="round"/>
<path d="M38.6937 42.7937H24.8066L20.8389 51.7873H42.6614L38.6937 42.7937Z" stroke="white" stroke-miterlimit="10" stroke-linecap="round" stroke-linejoin="round"/>
<path d="M17.5317 21.2358C17.5317 19.2519 19.1188 17.6648 21.1026 17.6648C23.0865 17.6648 24.6736 19.2519 24.6736 21.2358V42.6616H17.3994V21.2358H17.5317Z" stroke="white" stroke-miterlimit="10" stroke-linecap="round" stroke-linejoin="round"/>
<path d="M20.8387 51.7873H1V46.7615H22.8226" stroke="white" stroke-miterlimit="10" stroke-linecap="round" stroke-linejoin="round"/>
<path d="M3.5127 46.7614V42.7937H17.532" stroke="white" stroke-miterlimit="10" stroke-linecap="round" stroke-linejoin="round"/>
<path d="M17.5322 22.0288H24.8064" stroke="white" stroke-miterlimit="10" stroke-linecap="round" stroke-linejoin="round"/>
<path d="M17.5322 24.9387H24.8064" stroke="white" stroke-miterlimit="10" stroke-linecap="round" stroke-linejoin="round"/>
<path d="M17.6648 30.2292H6.42285V42.7938H17.6648V30.2292Z" stroke="white" stroke-miterlimit="10" stroke-linecap="round" stroke-linejoin="round"/>
<path d="M14.6224 35.2549H9.33203V42.7936H14.6224V35.2549Z" stroke="white" stroke-miterlimit="10" stroke-linecap="round" stroke-linejoin="round"/>
<path d="M31.6838 12.6387C33.583 12.6387 35.1225 11.0991 35.1225 9.19995C35.1225 7.3008 33.583 5.76123 31.6838 5.76123C29.7847 5.76123 28.2451 7.3008 28.2451 9.19995C28.2451 11.0991 29.7847 12.6387 31.6838 12.6387Z" stroke="white" stroke-miterlimit="10" stroke-linecap="round" stroke-linejoin="round"/>
<path d="M34.4609 7.08398C36.048 7.08398 37.3706 8.40658 37.3706 9.99368V12.7711" stroke="white" stroke-miterlimit="10" stroke-linecap="round" stroke-linejoin="round"/>
<path d="M26.1289 12.6388V9.86133C26.1289 8.27424 27.4515 6.95166 29.0386 6.95166" stroke="white" stroke-miterlimit="10" stroke-linecap="round" stroke-linejoin="round"/>
<path d="M31.6846 5.76128V1" stroke="white" stroke-miterlimit="10" stroke-linecap="round" stroke-linejoin="round"/>
<path d="M21.2354 17.6645V12.1096" stroke="white" stroke-miterlimit="10" stroke-linecap="round" stroke-linejoin="round"/>
<path d="M17.5325 30.2289C17.5325 27.187 15.0196 24.6741 11.9777 24.6741C8.93575 24.6741 6.42285 27.187 6.42285 30.2289" stroke="white" stroke-miterlimit="10" stroke-linecap="round" stroke-linejoin="round"/>
<path d="M11.9775 24.542V20.0452" stroke="white" stroke-miterlimit="10" stroke-linecap="round" stroke-linejoin="round"/>
<path d="M45.9681 21.2358C45.9681 19.2519 44.381 17.6648 42.3971 17.6648C40.4133 17.6648 38.8262 19.2519 38.8262 21.2358V42.6616H46.1004V21.2358H45.9681Z" stroke="white" stroke-miterlimit="10" stroke-linecap="round" stroke-linejoin="round"/>
<path d="M42.6616 51.7873H62.5003V46.7615H40.6777" stroke="white" stroke-miterlimit="10" stroke-linecap="round" stroke-linejoin="round"/>
<path d="M59.9871 46.7614V42.7937H45.9678" stroke="white" stroke-miterlimit="10" stroke-linecap="round" stroke-linejoin="round"/>
<path d="M45.9676 22.0288H38.6934" stroke="white" stroke-miterlimit="10" stroke-linecap="round" stroke-linejoin="round"/>
<path d="M45.9676 24.9387H38.6934" stroke="white" stroke-miterlimit="10" stroke-linecap="round" stroke-linejoin="round"/>
<path d="M45.8059 42.7229H57.0479V30.1584H45.8059V42.7229Z" stroke="white" stroke-miterlimit="10" stroke-linecap="round" stroke-linejoin="round"/>
<path d="M48.8483 42.6838H54.1387V35.1451H48.8483V42.6838Z" stroke="white" stroke-miterlimit="10" stroke-linecap="round" stroke-linejoin="round"/>
<path d="M42.2646 17.6645V12.1096" stroke="white" stroke-miterlimit="10" stroke-linecap="round" stroke-linejoin="round"/>
<path d="M45.9678 30.2289C45.9678 27.187 48.4807 24.6741 51.5226 24.6741C54.5645 24.6741 57.0775 27.187 57.0775 30.2289" stroke="white" stroke-miterlimit="10" stroke-linecap="round" stroke-linejoin="round"/>
<path d="M51.5225 24.542V20.0452" stroke="white" stroke-miterlimit="10" stroke-linecap="round" stroke-linejoin="round"/>
<path d="M17.5322 33.8H24.8064" stroke="white" stroke-miterlimit="10" stroke-linecap="round" stroke-linejoin="round"/>
<path d="M17.5322 36.4453H24.8064" stroke="white" stroke-miterlimit="10" stroke-linecap="round" stroke-linejoin="round"/>
<path d="M45.9676 36.4453H38.6934" stroke="white" stroke-miterlimit="10" stroke-linecap="round" stroke-linejoin="round"/>
<path d="M45.9676 33.8H38.6934" stroke="white" stroke-miterlimit="10" stroke-linecap="round" stroke-linejoin="round"/>
</svg>
