<svg width="63" height="62" viewBox="0 0 63 62" fill="none" xmlns="http://www.w3.org/2000/svg">
<path fill-rule="evenodd" clip-rule="evenodd" d="M13.0721 0.726401C12.9095 0.888757 12.7765 1.14576 12.7768 1.29766C12.7773 1.72074 15.0368 6.95705 15.3219 7.19601C15.6554 7.4755 16.0456 7.46179 16.4334 7.15717C16.6432 6.99252 16.7508 6.79216 16.7508 6.56643C16.7508 6.10125 14.5174 0.904512 14.2045 0.641615C13.854 0.347088 13.4193 0.379559 13.0721 0.726401ZM48.3468 0.60782C48.0349 0.82598 45.7758 6.03294 45.7758 6.53372C45.7758 7.24339 46.6622 7.65578 47.1993 7.19601C47.4702 6.96414 49.7501 1.66735 49.7501 1.26987C49.7501 0.935901 49.2259 0.431152 48.8791 0.431152C48.7252 0.431152 48.4857 0.510647 48.3468 0.60782ZM30.6277 1.64317C29.9258 1.77871 28.9745 2.31461 28.6263 2.77041C28.4682 2.97739 27.704 4.41635 26.9281 5.96811C26.152 7.51988 25.4282 8.88981 25.3194 9.01224C24.9392 9.44062 24.4836 9.55631 21.4796 9.98758C19.8153 10.2265 18.1929 10.5107 17.8742 10.6191C17.0396 10.9032 16.1056 11.8678 15.8575 12.7022C15.4725 13.9966 15.712 15.2425 16.5062 16.0761C16.8426 16.4292 17.0491 16.5465 17.3343 16.5465C18.1646 16.5465 18.4576 15.6703 17.88 14.9142C17.2577 14.0995 17.4453 12.9089 18.2698 12.4404C18.4861 12.3176 19.8013 12.0752 21.7489 11.7994C25.1827 11.3131 26.0299 11.0505 26.6895 10.2676C26.8648 10.0595 27.6783 8.55211 28.4971 6.91784C29.4504 5.01502 30.1023 3.85495 30.3095 3.69211C30.7348 3.35814 31.6 3.35044 32.1345 3.67576C32.4563 3.87179 32.785 4.4339 34.0275 6.91399C34.8545 8.5645 35.694 10.1003 35.8931 10.3266C36.545 11.068 37.3244 11.3022 40.7777 11.7941C44.2641 12.2906 44.5401 12.3846 44.8603 13.1838C45.0982 13.7775 45.1026 14.0601 44.8806 14.478C44.7857 14.6566 43.6438 15.858 42.3431 17.1479C41.0423 18.4377 39.8654 19.7095 39.7276 19.9741C39.2944 20.8059 39.3198 21.7086 39.8648 24.8448C40.1349 26.3992 40.356 27.8991 40.356 28.1779C40.3563 29.124 39.2706 29.9353 38.3624 29.6677C38.1672 29.6102 37.2918 29.1797 36.417 28.7109C32.2378 26.4718 31.6826 26.2704 30.5169 26.5715C30.1325 26.6709 28.6346 27.3747 27.1882 28.1354C25.7418 28.8962 24.3925 29.5764 24.1897 29.647C23.4229 29.914 22.4155 29.3436 22.1856 28.5121C22.1037 28.2158 22.2056 27.3761 22.6036 25.0694C22.8932 23.3914 23.131 21.7712 23.1319 21.4687C23.1358 20.3506 22.8507 19.8507 21.3367 18.3204C20.1602 17.1314 19.8803 16.9073 19.5718 16.9073C19.0576 16.9073 18.6778 17.2962 18.6778 17.8222C18.6778 18.2025 18.8086 18.3743 19.9322 19.4711C21.2641 20.7713 21.4526 21.1224 21.2805 21.9818C21.2392 22.1883 20.9859 23.652 20.7178 25.2343C20.2828 27.8015 20.2449 28.1813 20.3657 28.7618C20.7431 30.5775 22.6402 31.8639 24.3683 31.4759C24.7288 31.395 26.2433 30.6852 27.8911 29.825C30.6698 28.3744 30.8048 28.3181 31.3837 28.3707C31.8605 28.414 32.5252 28.7109 34.5753 29.7959C37.8148 31.5105 37.8412 31.5212 38.7905 31.5109C40.6562 31.4904 42.1372 30.0872 42.1785 28.3008C42.1873 27.9207 41.9602 26.2164 41.6741 24.5134C41.3304 22.4676 41.184 21.2948 41.243 21.0565C41.3054 20.8045 42.0728 19.97 43.7869 18.2904C46.6401 15.4942 46.7943 15.2665 46.7974 13.8406C46.7992 12.9966 46.7556 12.7994 46.442 12.234C46.0028 11.4423 45.3189 10.8407 44.5845 10.6001C44.2792 10.5 42.7016 10.2251 41.0788 9.98903C39.4559 9.75307 38.0197 9.52913 37.8872 9.49161C37.3763 9.34681 37.0309 8.81453 35.5974 5.9633C34.0082 2.80228 33.6662 2.33048 32.6483 1.89465C31.9616 1.6006 31.2842 1.5163 30.6277 1.64317ZM5.60508 8.18278C5.44249 8.34513 5.30941 8.6126 5.30941 8.77736C5.30941 9.4209 5.69649 9.62811 8.68823 10.5866C10.2486 11.0864 11.6944 11.4955 11.9012 11.4955C12.164 11.4955 12.3524 11.4 12.5268 11.1786C12.8402 10.7806 12.8417 10.5284 12.5327 10.136C12.3355 9.88572 11.7159 9.64122 9.29198 8.8571C7.64369 8.32385 6.20642 7.88753 6.0979 7.88753C5.98939 7.88753 5.76767 8.02042 5.60508 8.18278ZM53.0964 8.89017C50.0562 9.89293 49.7623 10.0447 49.754 10.6168C49.7486 10.9909 50.2464 11.5256 50.5999 11.5252C50.7618 11.5249 52.195 11.1086 53.7847 10.5998C56.9793 9.5776 57.3054 9.39252 57.1676 8.67971C57.0837 8.24495 56.6963 7.88308 56.3306 7.89799C56.189 7.90377 54.7335 8.35031 53.0964 8.89017ZM10.6086 16.6711C8.43002 17.4513 7.9926 17.7465 8.14025 18.3374C8.25864 18.8111 8.55599 19.0721 8.9774 19.0721C9.55453 19.0721 13.2792 17.6879 13.5291 17.3805C13.6451 17.2378 13.7399 16.9895 13.7399 16.8284C13.7399 16.4553 13.2325 15.9431 12.8722 15.9523C12.7202 15.9563 11.7015 16.2798 10.6086 16.6711ZM49.0823 16.2405C48.7138 16.6084 48.7048 17.0458 49.0576 17.4281C49.352 17.7469 52.9359 19.0721 53.5039 19.0721C54.2398 19.0721 54.6478 18.1358 54.1345 17.6247C53.8922 17.3835 50.023 15.9452 49.6163 15.9452C49.4852 15.9452 49.2449 16.0781 49.0823 16.2405ZM3.20179 18.872C1.69972 19.3699 0.669392 20.5789 0.532818 22.0039C0.5003 22.3427 0.529566 26.3811 0.597733 30.9782C0.735631 40.2785 0.724431 40.1537 1.57627 41.7883C1.97335 42.5504 3.00488 43.7733 7.72523 49.078C10.8446 52.5837 13.5 55.6685 13.626 55.9331C13.8281 56.3573 13.8554 56.7094 13.8577 58.915C13.8603 61.4084 13.8612 61.4169 14.156 61.7112L14.4516 62.0064H20.6462C26.4572 62.0064 26.8575 61.9928 27.1114 61.7875C27.3526 61.5924 27.5068 60.9008 28.5257 55.4436C29.6251 49.5548 29.6695 49.2513 29.677 47.5747C29.6844 45.9005 29.6686 45.7835 29.2792 44.6424C28.6114 42.6846 28.1747 42.1391 23.2757 37.1412C20.8462 34.6627 18.4185 32.1663 17.8807 31.5938C16.5939 30.2235 15.9108 29.842 14.7636 29.8531C13.7878 29.8623 13.2196 30.0747 12.5472 30.6813C11.5899 31.5451 11.247 33.2384 11.799 34.3769C11.9464 34.6811 13.4676 36.4619 15.3669 38.5539C18.6508 42.171 18.6778 42.205 18.6778 42.7321C18.6778 43.7871 17.6323 44.316 16.7722 43.6962C16.1822 43.271 9.31847 35.727 9.05833 35.2176C8.74532 34.6051 8.73978 34.553 8.25755 27.6998C7.99464 23.9628 7.77352 21.5329 7.66875 21.2292C7.32454 20.2317 6.54797 19.4225 5.50054 18.9704C4.9693 18.741 3.75399 18.6889 3.20179 18.872ZM57.4343 18.8725C56.3315 19.1829 55.5548 19.8874 55.0438 21.0408C54.8204 21.5453 54.7357 22.3808 54.3307 28.083C53.94 33.5828 53.8358 34.6319 53.636 35.0806C53.4812 35.4283 52.135 36.9835 49.6918 39.6373C47.6518 41.8531 45.8684 43.7319 45.7287 43.8122C45.3056 44.0555 44.7435 43.9947 44.3486 43.6629C43.8691 43.26 43.7639 42.7564 44.0493 42.2306C44.1708 42.0067 45.6794 40.2762 47.4016 38.3851C49.4169 36.1723 50.6289 34.7431 50.8024 34.3756C51.3658 33.1814 51.0349 31.4719 50.086 30.6747C49.3615 30.0659 48.7852 29.8503 47.8834 29.8505C46.4414 29.851 46.4616 29.8343 40.4766 35.9733C37.5289 38.9967 34.908 41.7479 34.6522 42.0869C33.5353 43.5679 33.0091 45.11 32.9234 47.1538C32.8636 48.5793 32.8772 48.6749 34.0326 54.9709C34.6758 58.4766 35.2521 61.4384 35.313 61.5526C35.374 61.6669 35.5274 61.8157 35.654 61.8834C35.8022 61.9626 38.0745 62.0064 42.0398 62.0064H48.1954L48.491 61.7112C48.7863 61.4164 48.7866 61.4127 48.7866 58.8732C48.7866 56.8521 48.824 56.2524 48.9686 55.9512C49.1334 55.6081 49.7925 54.8414 53.8263 50.3017C55.228 48.7239 55.3623 48.3724 54.7604 47.8553C54.3576 47.5094 54.091 47.5016 53.6811 47.8234C53.507 47.9603 52.0822 49.5162 50.5151 51.281C48.3165 53.7572 47.5807 54.6684 47.2929 55.2716L46.9199 56.0533L46.9422 58.1279L46.9646 60.2024H41.9163H36.8681L36.8049 59.9318C36.7701 59.783 36.2766 57.1177 35.7083 54.0088C34.7587 48.8134 34.6798 48.2641 34.7328 47.2139C34.8006 45.869 35.1042 44.8264 35.7464 43.7344C36.3724 42.6695 46.8992 31.9051 47.512 31.7032C48.6109 31.341 49.6929 32.689 49.1136 33.6985C49.0332 33.8387 47.5582 35.5027 45.836 37.3961C44.1137 39.2897 42.5763 41.081 42.4193 41.3769C41.3576 43.3787 42.8227 45.7733 45.1069 45.7695C46.5013 45.7674 46.6129 45.676 50.8333 41.0869C52.917 38.8214 54.7543 36.7728 54.9165 36.5346C55.6133 35.5105 55.6449 35.3014 56.1366 28.4298C56.4109 24.5961 56.6569 21.8601 56.742 21.6951C57.1923 20.8218 58.0412 20.4038 58.8969 20.6338C59.4718 20.7884 60.0613 21.3477 60.2032 21.8732C60.3438 22.3939 60.1383 38.6842 59.9814 39.4647C59.7448 40.641 59.2512 41.4201 57.4332 43.4857C56.4727 44.5771 55.65 45.5857 55.6052 45.7268C55.4075 46.349 56.1907 47.03 56.79 46.7573C57.2051 46.5685 60.3647 42.9849 60.8793 42.1195C61.6917 40.7531 61.8127 40.1549 61.917 36.9915C61.9683 35.437 62.0293 31.324 62.0525 27.8514L62.0948 21.5375L61.76 20.8567C60.9663 19.2428 59.123 18.3972 57.4343 18.8725ZM3.59212 20.6871C2.98019 20.9052 2.78003 21.089 2.52205 21.67C2.31334 22.14 2.30852 22.5626 2.4186 30.5904C2.48869 35.6997 2.58504 39.2438 2.6632 39.5924C2.80833 40.2389 3.26249 41.2002 3.67871 41.7419C3.83119 41.9403 6.43043 44.8887 9.45468 48.2938C13.3526 52.6823 15.0487 54.6782 15.2802 55.1488C15.5934 55.7859 15.6082 55.902 15.6442 58.0076L15.6818 60.2024H20.723H25.7643L25.8337 59.8717C26.331 57.4985 27.9513 48.133 27.9513 47.6313C27.9513 46.5984 27.6177 45.1985 27.1391 44.2232C26.6308 43.1875 26.3575 42.888 19.9633 36.3616C14.977 31.2722 15.0704 31.3426 14.0006 31.8568C13.6249 32.0374 13.3786 32.5428 13.3786 33.133C13.3786 33.687 13.0794 33.3179 17.2241 37.8766C18.7191 39.521 20.0732 41.1175 20.2332 41.4244C21.0176 42.929 20.2173 44.9866 18.6092 45.6C17.9297 45.859 16.7395 45.7919 16.086 45.4576C15.7662 45.294 14.3131 43.8137 11.7216 41.0118C7.64923 36.6085 7.27348 36.1134 7.00298 34.7931C6.93216 34.4477 6.68262 31.4119 6.44837 28.0467C6.15607 23.8462 5.97096 21.8292 5.85812 21.6126C5.61652 21.1491 5.16272 20.766 4.69724 20.6326C4.18828 20.4869 4.14853 20.4889 3.59212 20.6871Z" fill="black"/>
</svg>
